<?xml version="1.0" standalone="no"?>
<!DOCTYPE svg PUBLIC "-//W3C//DTD SVG 1.1//EN" "http://www.w3.org/Graphics/SVG/1.1/DTD/svg11.dtd" >
<svg xmlns="http://www.w3.org/2000/svg" xmlns:xlink="http://www.w3.org/1999/xlink" version="1.1">
<metadata>
Created by FontForge 20201107 at Tue Jan  4 18:31:33 2022
 By 
Copyright (c) 2021 by __Designer__. All rights reserved.
</metadata>
<defs>
<font id="LamaSans-ExtraBold" horiz-adv-x="0" >
  <font-face 
    font-family="Lama Sans ExtraBold"
    font-weight="800"
    font-stretch="normal"
    units-per-em="1000"
    panose-1="0 0 2 0 0 0 0 0 0 0"
    ascent="800"
    descent="-200"
    x-height="500"
    cap-height="700"
    bbox="-531 -458 1471 1130"
    underline-thickness="50"
    underline-position="-120"
    unicode-range="U+000D-FEFC"
  />
<missing-glyph horiz-adv-x="475" 
d="M390 -250h-302v950h302v-950zM160 636v-31h61v-35h-62v-31h157v31h-62v35h62v31h-156zM159 514v-99h157v32h-62v67h-95zM221 447h-31v35h31v-35zM159 389v-31h62v-35h-62v-31h95v66h62v31h-157zM285 332v-62h-126v-33h157v95h-31zM221 216v-53h33v22h31v-45h-95v76h-31
v-107h157v107h-95zM159 52v-107h157v107h-157zM285 -24h-95v45h95v-45zM159 -77v-31h66l-66 -45v-31h157v31h-97l67 45h30v31h-157z" />
    <glyph glyph-name="uniFDF2" unicode="&#x627;&#xfedf;&#xfee0;&#xfeea;" horiz-adv-x="1553" arabic-form="isolated" 
d="M796 1050v-127h-60v108zM666 767.5q-22 21.5 -22 55.5v46h61v-46q0 -16 15 -16q7 0 11 5t4 13v59h62v-50q0 -15 14 -15q8 0 12.5 5t4.5 13v74h62v-74q0 -35 -18.5 -58t-49.5 -23q-13 0 -26.5 5.5t-22.5 15.5q-19 -31 -52 -31t-55 21.5zM1332 700h139v-700h-139v700z
M1029 699h138v-526q0 -47 -23 -86.5t-62.5 -63t-86.5 -23.5h-65q-75 0 -133 51q-26 -24 -58 -37.5t-68 -13.5h-93q-38 0 -72.5 16.5t-59.5 45.5q-31 -29 -72 -45.5t-86 -16.5q-65 0 -121.5 31.5t-90 86t-33.5 118.5v20q0 70 31.5 124t87.5 83.5t126 29.5h248l1 -314
q0 -21 9.5 -31t31.5 -10h77q26 0 45 19t19 45v497h139v-498q4 -26 24.5 -44.5t47.5 -18.5h64q14 0 24.5 10.5t10.5 24.5v526zM398 354h-110q-44 0 -76.5 -26t-32.5 -72v-14q0 -43 32.5 -73.5t76.5 -30.5q46 0 78 32.5t32 78.5v105z" />
    <glyph glyph-name="uniFEF5" unicode="&#xfedf;&#xfe82;" horiz-adv-x="643" arabic-form="isolated" 
d="M587 699v-526q0 -47 -23.5 -86.5t-63 -63t-86.5 -23.5h-372v138h148v436h139v-436h84q14 0 24.5 10.5t10.5 24.5v526h139zM149 762q7 5 15 5q11 0 19 -8q31 -31 100 -31q23 0 83 21l24 -66q-23 -10 -55 -19t-52 -9q-34 0 -61.5 10t-53.5 32q-3 3 -7 3q-3 0 -8 -3l-41 -26
l-37 42z" />
    <glyph glyph-name="uniFEF6" unicode="&#xfee0;&#xfe82;" horiz-adv-x="694" arabic-form="final" 
d="M745 118q20 -20 20 -48q0 -30 -20.5 -50t-49.5 -20h-36q-37 0 -71.5 13.5t-61.5 37.5q-54 -51 -125 -51h-359v138h148v434h139v-434h56q26 0 44.5 19t18.5 45v497h139v-498q5 -26 25.5 -44.5t46.5 -18.5h37q29 0 49 -20zM146 757q7 5 15 5q11 0 19 -8q31 -31 100 -31
q23 0 83 21l24 -66q-23 -10 -55 -19t-52 -9q-34 0 -61.5 10t-53.5 32q-3 3 -7 3q-3 0 -8 -3l-41 -26l-37 42z" />
    <glyph glyph-name="uniFEF7" unicode="&#xfedf;&#xfe84;" horiz-adv-x="643" arabic-form="isolated" 
d="M366 635h-224v70h33q-8 26 -6 41q5 38 33.5 64t67.5 26q33 0 59 -17t38 -47l-54 -41q-9 19 -18 26.5t-25 7.5q-12 0 -21 -8t-9 -19t7 -22t23 -11h96v-70zM587 699v-526q0 -47 -23.5 -86.5t-63 -63t-86.5 -23.5h-372v138h148v436h139v-436h84q14 0 24.5 10.5t10.5 24.5
v526h139z" />
    <glyph glyph-name="uniFEF8" unicode="&#xfee0;&#xfe84;" horiz-adv-x="694" arabic-form="final" 
d="M366 635h-223v70h33q-9 22 -6 41q5 38 33 64t67 26q34 0 59.5 -16.5t38.5 -47.5l-55 -41q-9 19 -18 26.5t-25 7.5q-12 0 -20.5 -8t-8.5 -19q0 -12 6.5 -22.5t22.5 -10.5h96v-70zM745 118q20 -20 20 -48q0 -30 -20.5 -50t-49.5 -20h-36q-37 0 -71.5 13.5t-61.5 37.5
q-54 -51 -125 -51h-287q-32 0 -52.5 19.5t-20.5 49.5t20.5 49.5t52.5 19.5h76v434h139v-434h56q26 0 44.5 19t18.5 45v497h139v-498q5 -26 25.5 -44.5t46.5 -18.5h37q29 0 49 -20z" />
    <glyph glyph-name="uniFEF9" unicode="&#xfedf;&#xfe88;" horiz-adv-x="643" arabic-form="isolated" 
d="M587 699v-526q0 -47 -23.5 -86.5t-63 -63t-86.5 -23.5h-372v138h148v436h139v-436h84q14 0 24.5 10.5t10.5 24.5v526h139zM230.5 -147.5q-8.5 -7.5 -8.5 -19.5q0 -11 7 -21.5t23 -10.5h96v-70h-224v70h33q-8 26 -6 40q5 38 33 64t68 26q33 0 58.5 -16.5t38.5 -47.5
l-54 -40q-10 19 -18.5 26t-24.5 7q-13 0 -21.5 -7.5z" />
    <glyph glyph-name="uniFEFA" unicode="&#xfee0;&#xfe88;" horiz-adv-x="694" arabic-form="final" 
d="M745 118q20 -20 20 -48q0 -30 -20.5 -50t-49.5 -20h-36q-37 0 -71.5 13.5t-61.5 37.5q-54 -51 -125 -51h-359v138h148v434h139v-434h56q26 0 44.5 19t18.5 45v497h139v-498q5 -26 25.5 -44.5t46.5 -18.5h37q29 0 49 -20zM232 -147q-9 -8 -9 -19t7 -22t23 -11h96v-70h-224
v70h34q-8 22 -7 40q5 38 33.5 64t67.5 26q34 0 59.5 -16.5t37.5 -46.5l-54 -41q-9 19 -18 26.5t-25 7.5q-12 0 -21 -8z" />
    <glyph glyph-name="uniFEFB" unicode="&#xfedf;&#xfe8e;" horiz-adv-x="643" arabic-form="isolated" 
d="M587 699v-526q0 -47 -23.5 -86.5t-63 -63t-86.5 -23.5h-372v138h148v436h139v-436h84q14 0 24.5 10.5t10.5 24.5v526h139z" />
    <glyph glyph-name="uniFEFC" unicode="&#xfee0;&#xfe8e;" horiz-adv-x="694" arabic-form="final" 
d="M745 118q20 -20 20 -48q0 -30 -20.5 -50t-49.5 -20h-36q-37 0 -71.5 13.5t-61.5 37.5q-54 -51 -125 -51h-359v138h148v434h139v-434h56q26 0 44.5 19t18.5 45v497h139v-498q5 -26 25.5 -44.5t46.5 -18.5h37q29 0 49 -20z" />
    <glyph glyph-name="uniFEDFFB51" unicode="&#xfedf;&#xfb51;" horiz-adv-x="643" 
d="M587 699v-526q0 -47 -23.5 -86.5t-63 -63t-86.5 -23.5h-372v138h148v436h139v-436h84q14 0 24.5 10.5t10.5 24.5v526h139z" />
    <glyph glyph-name="uniFEE0FB51" unicode="&#xfee0;&#xfb51;" horiz-adv-x="694" 
d="M745 118q20 -20 20 -48q0 -30 -20.5 -50t-49.5 -20h-36q-37 0 -71.5 13.5t-61.5 37.5q-54 -51 -125 -51h-359v138h148v434h139v-434h56q26 0 44.5 19t18.5 45v497h139v-498q5 -26 25.5 -44.5t46.5 -18.5h37q29 0 49 -20z" />
    <glyph glyph-name="uni066E.init" unicode="&#x66e;" horiz-adv-x="294" 
d="M-50.5 21q-20.5 21 -20.5 49q0 29 20.5 48.5t49.5 19.5h75q16 0 26 11t10 26v317h139v-317q0 -47 -23.5 -87.5t-64 -64t-88.5 -23.5h-74q-29 0 -49.5 21z" />
    <glyph glyph-name="uni066E.medi" unicode="&#x66e;" horiz-adv-x="369" 
d="M420 118q20 -20 20 -48q0 -30 -20.5 -50t-49.5 -20h-36q-37 0 -71.5 13.5t-61.5 37.5q-54 -51 -125 -51h-75q-31 0 -51.5 19.5t-20.5 49.5t20.5 49.5t51.5 19.5h59q26 0 44.5 19t18.5 45v191h139v-192q5 -26 25.5 -44.5t46.5 -18.5h37q29 0 49 -20z" />
    <glyph glyph-name="uni066E.fina" unicode="&#x66e;" horiz-adv-x="921" 
d="M972 118q20 -20 20 -48q0 -30 -20.5 -50t-49.5 -20h-31q-75 0 -133 51q-26 -24 -58 -37.5t-68 -13.5h-377q-60 0 -110.5 29.5t-80.5 80t-30 110.5v171h140v-171q0 -34 23.5 -58t57.5 -24h361q26 0 45 19t19 45v289h139v-290q4 -26 24.5 -44.5t47.5 -18.5h32q29 0 49 -20z
" />
    <glyph glyph-name="uni066F.fina" unicode="&#x66f;" horiz-adv-x="851" 
d="M749 0v-59q0 -41 -20.5 -76.5t-55.5 -56t-77 -20.5h-274q-76 0 -140 37.5t-101.5 101.5t-37.5 140v150h138v-147q0 -38 19 -71t51.5 -52t70.5 -19h255q14 0 24 10t10 24v38h-96q-67 0 -123.5 32t-89.5 86.5t-33 118.5v20q0 69 32.5 126t88.5 90.5t125 33.5q62 0 116 -32
t86 -86.5t32 -119.5v-131h112v-138h-112zM582 338.5q-29 28.5 -67 28.5q-47 0 -78 -32t-31 -78v-18q0 -41 32.5 -71t76.5 -30h96v131q0 41 -29 69.5z" />
    <glyph glyph-name="uni06A1.init" unicode="&#x6a1;" horiz-adv-x="581" 
d="M527 93q0 -38 -27 -65.5t-65 -27.5h-445v138h88q-30 45 -30 108v18q0 64 33 116t89 82.5t121 30.5h236v-400zM292 362q-44 0 -76 -31.5t-32 -76.5v-13q2 -43 33.5 -73t74.5 -30h82q7 0 11.5 5t4.5 12v207h-98z" />
    <glyph glyph-name="uni06A1.medi" unicode="&#x6a1;" horiz-adv-x="606" 
d="M615 0h-624v138h100q-30 45 -30 108v18q0 64 33.5 118.5t89 86t120.5 31.5q64 0 118 -32t86 -86t32 -118v-84q0 -22 -5.5 -31.5t-5.5 -10.5h86v-138zM398 143q5 5 5 12v109q0 40 -29 69t-69 29q-44 0 -76 -31.5t-32 -77.5v-12q2 -43 33.5 -73t74.5 -30h82q6 0 11 5z" />
    <glyph glyph-name="uni06A1.fina" unicode="&#x6a1;" horiz-adv-x="1073" 
d="M269 0q-61 0 -113 30.5t-82.5 83t-30.5 113.5v123h137v-123q0 -37 26 -62.5t63 -25.5h253q-32 44 -32 111v14q0 64 33 118.5t89 86t120 31.5t118 -31.5t86 -86t32 -118.5v-126h114v-138h-813zM802 333q-29 29 -69 29q-44 0 -76 -31.5t-32 -76.5v-9q0 -43 32.5 -74
t76.5 -32l97 -1v126q0 40 -29 69z" />
    <glyph glyph-name="uni06C2.fina" unicode="&#x6c2;" horiz-adv-x="631" 
d="M255 564v70h33q-9 23 -6 40q5 38 33 64t67 26q34 0 59.5 -16.5t38.5 -47.5l-55 -40q-9 18 -18 25.5t-25 7.5q-12 0 -20.5 -8t-8.5 -19t6.5 -21.5t22.5 -10.5h96v-70h-223zM288 0q-65 0 -121.5 31.5t-90 86t-33.5 118.5v20q0 70 31.5 124t87.5 83.5t126 29.5h248l1 -314
q0 -21 9.5 -31t31.5 -10h55q29 0 49 -19.5t21 -48.5q0 -28 -20 -48.5t-49 -21.5h-56q-51 0 -84.5 5t-64.5 37.5t-31 104.5v207h-110q-44 0 -76.5 -26t-32.5 -72v-14q0 -43 32.5 -73.5t76.5 -30.5q17 0 26.5 2t20.5 9l8 -140q-25 -9 -55 -9z" />
    <glyph glyph-name="uni06C3.fina" unicode="&#x6c3;" horiz-adv-x="631" 
d="M288 0q-65 0 -121.5 31.5t-90 86t-33.5 118.5v20q0 70 31.5 124t87.5 83.5t126 29.5h248l1 -314q0 -21 9.5 -31t31.5 -10h55q29 0 49 -19.5t21 -48.5q0 -28 -20 -48.5t-49 -21.5h-56q-51 0 -84.5 5t-64.5 37.5t-31 104.5v207h-110q-44 0 -76.5 -26t-32.5 -72v-14
q0 -43 32.5 -73.5t76.5 -30.5q17 0 26.5 2t20.5 9l8 -140q-25 -9 -55 -9z" />
    <glyph glyph-name="uniFB51" unicode="&#x671;" horiz-adv-x="280" arabic-form="final" 
d="M158.5 23.5q-39.5 23.5 -62.5 63t-23 86.5v527h138v-527q0 -14 10.5 -24.5t24.5 -10.5h44v-138h-45q-47 0 -86.5 23.5z" />
    <glyph glyph-name="uniFB57" unicode="&#x67e;" horiz-adv-x="921" arabic-form="final" 
d="M972 118q20 -20 20 -48q0 -30 -20.5 -50t-49.5 -20h-31q-75 0 -133 51q-26 -24 -58 -37.5t-68 -13.5h-377q-60 0 -110.5 29.5t-80.5 80t-30 110.5v171h140v-171q0 -34 23.5 -58t57.5 -24h361q26 0 45 19t19 45v289h139v-290q4 -26 24.5 -44.5t47.5 -18.5h32q29 0 49 -20z
M300 -217q-23 23 -23 55q0 33 23 56t56 23q32 0 55.5 -23t23.5 -56q0 -32 -23.5 -55t-55.5 -23q-33 0 -56 23zM500.5 -217q-23.5 23 -23.5 55q0 33 23.5 56t55.5 23q33 0 56 -23t23 -56q0 -32 -23 -55t-56 -23q-32 0 -55.5 23zM398.5 -402q-23.5 23 -23.5 55t23.5 55.5
t55.5 23.5q33 0 56 -23.5t23 -55.5t-23 -55t-56 -23q-32 0 -55.5 23z" />
    <glyph glyph-name="uniFB58" unicode="&#x67e;" horiz-adv-x="390" arabic-form="initial" 
d="M-50.5 21q-20.5 21 -20.5 49q0 29 20.5 48.5t49.5 19.5h171q16 0 26 11t10 26v317h139v-317q0 -47 -23.5 -87.5t-64 -64t-88.5 -23.5h-170q-29 0 -49.5 21zM29 -217q-23 23 -23 55q0 33 23 56t56 23q32 0 55.5 -23t23.5 -56q0 -32 -23.5 -55t-55.5 -23q-33 0 -56 23z
M229.5 -217q-23.5 23 -23.5 55q0 33 23.5 56t55.5 23q33 0 56 -23t23 -56q0 -32 -23 -55t-56 -23q-32 0 -55.5 23zM127.5 -402q-23.5 23 -23.5 55t23.5 55.5t55.5 23.5q33 0 56 -23.5t23 -55.5t-23 -55t-56 -23q-32 0 -55.5 23z" />
    <glyph glyph-name="uniFB59" unicode="&#x67e;" horiz-adv-x="369" arabic-form="medial" 
d="M420 118q20 -20 20 -48q0 -30 -20.5 -50t-49.5 -20h-36q-37 0 -71.5 13.5t-61.5 37.5q-54 -51 -125 -51h-75q-31 0 -51.5 19.5t-20.5 49.5t20.5 49.5t51.5 19.5h59q26 0 44.5 19t18.5 45v191h139v-192q5 -26 25.5 -44.5t46.5 -18.5h37q29 0 49 -20zM25.5 -217
q-23.5 23 -23.5 55q0 33 23.5 56t55.5 23q33 0 56 -23t23 -56q0 -32 -23 -55t-56 -23q-32 0 -55.5 23zM226 -217q-23 23 -23 55q0 33 23 56t55 23q33 0 56.5 -23t23.5 -56q0 -32 -23.5 -55t-56.5 -23q-32 0 -55 23zM124 -402q-23 23 -23 55t23 55.5t56 23.5q32 0 55.5 -23.5
t23.5 -55.5t-23.5 -55t-55.5 -23q-33 0 -56 23z" />
    <glyph glyph-name="uniFB67" unicode="&#x679;" horiz-adv-x="921" arabic-form="final" 
d="M972 118q20 -20 20 -48q0 -30 -20.5 -50t-49.5 -20h-31q-75 0 -133 51q-26 -24 -58 -37.5t-68 -13.5h-377q-60 0 -110.5 29.5t-80.5 80t-30 110.5v171h140v-171q0 -34 23.5 -58t57.5 -24h361q26 0 45 19t19 45v289h139v-290q4 -26 24.5 -44.5t47.5 -18.5h32q29 0 49 -20z
M533.5 621.5q22.5 -26.5 22.5 -76.5v-61h-262v60h43v176h60v-106q34 34 73 34q41 0 63.5 -26.5zM497 546q0 20 -9.5 31t-25.5 11q-34 0 -65 -37v-7h100v2z" />
    <glyph glyph-name="uniFB68" unicode="&#x679;" horiz-adv-x="294" arabic-form="initial" 
d="M-51.5 21q-20.5 21 -20.5 49q0 29 20.5 48.5t49.5 19.5h75q16 0 26 11t10 26v317h139v-317q0 -47 -23.5 -87.5t-64 -64t-88.5 -23.5h-74q-29 0 -49.5 21zM286.5 708.5q22.5 -26.5 22.5 -76.5v-61h-262v60h43v176h60v-106q34 34 73 34q41 0 63.5 -26.5zM250 633
q0 20 -9.5 31t-25.5 11q-34 0 -65 -37v-7h100v2z" />
    <glyph glyph-name="uniFB69" unicode="&#x679;" horiz-adv-x="369" arabic-form="medial" 
d="M419 118q20 -20 20 -48q0 -30 -20.5 -50t-49.5 -20h-36q-37 0 -71.5 13.5t-61.5 37.5q-54 -51 -125 -51h-75q-31 0 -51.5 19.5t-20.5 49.5t20.5 49.5t51.5 19.5h59q26 0 44.5 19t18.5 45v191h139v-192q5 -26 25.5 -44.5t46.5 -18.5h37q29 0 49 -20zM305.5 642.5
q22.5 -26.5 22.5 -76.5v-61h-262v60h43v176h60v-106q34 34 73 34q41 0 63.5 -26.5zM269 567q0 20 -9.5 31t-25.5 11q-34 0 -65 -37v-7h100v2z" />
    <glyph glyph-name="uniFB6B" unicode="&#x6a4;" horiz-adv-x="1038" arabic-form="final" 
d="M795.5 875q23.5 -23 23.5 -55t-23.5 -55.5t-56.5 -23.5q-32 0 -55 23.5t-23 55.5t23 55t55 23q33 0 56.5 -23zM697 690q23 -23 23 -55q0 -33 -23 -56t-56 -23q-32 0 -55.5 23t-23.5 56q0 32 23.5 55t55.5 23q33 0 56 -23zM897 690q23 -23 23 -55q0 -33 -23 -56t-56 -23
q-32 0 -55.5 23t-23.5 56q0 32 23.5 55t55.5 23q33 0 56 -23zM269 0q-61 0 -113 30.5t-82.5 83t-30.5 113.5v158h137v-158q0 -37 26 -62.5t63 -25.5h253q-32 44 -32 104v14q0 64 33 118.5t89 86t120 31.5t118 -31.5t86 -86t32 -118.5v-119h79v-138h-778zM802 326
q-29 29 -69 29q-44 0 -76 -31.5t-32 -76.5v-9q0 -43 32.5 -70.5t76.5 -28.5l97 -1v119q0 40 -29 69z" />
    <glyph glyph-name="uniFB6C" unicode="&#x6a4;" horiz-adv-x="581" arabic-form="initial" 
d="M401.5 875q23.5 -23 23.5 -55t-23.5 -55.5t-55.5 -23.5q-33 0 -56 23.5t-23 55.5t23 55t56 23q32 0 55.5 -23zM303 690q23 -23 23 -55q0 -33 -23 -56t-56 -23q-32 0 -55.5 23t-23.5 56q0 32 23.5 55t55.5 23q33 0 56 -23zM503.5 690q23.5 -23 23.5 -55q0 -33 -23.5 -56
t-56.5 -23q-32 0 -55 23t-23 56q0 32 23 55t55 23q33 0 56.5 -23zM527 93q0 -38 -27 -65.5t-65 -27.5h-445v138h88q-30 45 -30 108v18q0 64 33 116t89 82.5t121 30.5h236v-400zM292 362q-44 0 -76 -31.5t-32 -76.5v-13q2 -43 33.5 -73t74.5 -30h82q7 0 11.5 5t4.5 12v207
h-98z" />
    <glyph glyph-name="uniFB6D" unicode="&#x6a4;" horiz-adv-x="606" arabic-form="medial" 
d="M367.5 875q23.5 -23 23.5 -55t-23.5 -55.5t-56.5 -23.5q-32 0 -55 23.5t-23 55.5t23 55t55 23q33 0 56.5 -23zM269 690q23 -23 23 -55q0 -33 -23 -56t-56 -23q-32 0 -55.5 23t-23.5 56q0 32 23.5 55t55.5 23q33 0 56 -23zM469 690q23 -23 23 -55q0 -33 -23 -56t-56 -23
q-32 0 -55.5 23t-23.5 56q0 32 23.5 55t55.5 23q33 0 56 -23zM615 0h-624v138h100q-30 45 -30 100v18q0 64 33 118.5t89 86.5t121 32q64 0 118 -32t86 -86.5t32 -118.5v-76q0 -22 -5.5 -31.5t-5.5 -10.5h86v-138zM398 143q5 5 5 12v101q0 40 -29 69t-69 29q-44 0 -76 -31.5
t-32 -76.5v-13q0 -42 32 -68.5t76 -26.5h82q6 0 11 5z" />
    <glyph glyph-name="uniFB7B" unicode="&#x686;" horiz-adv-x="718" arabic-form="final" 
d="M213.5 -31q-30.5 -31 -30.5 -74q0 -44 30.5 -75t73.5 -31h199v-138h-200q-66 0 -122 33t-88.5 89t-32.5 122t32.5 122t88.5 88.5t122 32.5h249q-5 3 -11 15.5t-6 25.5v17q-1 85 -52 123q-43 35 -116 35q-64 0 -136 -25l-61 123q113 42 202 42q111 0 195 -62
q43 -34 73 -92t33 -145v-17q0 -14 6 -27t21 -13h93v-138h-489q-43 0 -73.5 -31zM262 -95q-10 10 -10 24q0 15 10 25t24 10t24.5 -10t10.5 -25q0 -14 -10.5 -24t-24.5 -10t-24 10zM351 -95q-10 10 -10 24q0 15 10 25t24 10t24.5 -10t10.5 -25q0 -14 -10.5 -24t-24.5 -10
t-24 10zM306 -177.5q-10 10.5 -10 24.5t10 24t24 10t24.5 -10t10.5 -24t-10.5 -24.5t-24.5 -10.5t-24 10.5z" />
    <glyph glyph-name="uniFB7C" unicode="&#x686;" horiz-adv-x="619" arabic-form="initial" 
d="M-50.5 20.5q-20.5 20.5 -20.5 48.5t20.5 48.5t49.5 20.5h413q-9 6 -14.5 16t-5.5 22v16q0 89 -54 130q-45 34 -112 34q-61 0 -143 -28l-56 125q107 41 197 41q112 0 197 -63q44 -32 74.5 -89.5t30.5 -141.5v-23q0 -18 9.5 -28.5t25.5 -10.5h21v-138h-583
q-29 0 -49.5 20.5zM143 -217q-23 23 -23 55q0 33 23 56t56 23q32 0 55.5 -23t23.5 -56q0 -32 -23.5 -55t-55.5 -23q-33 0 -56 23zM343 -217q-23 23 -23 55q0 33 23 56t56 23q32 0 55.5 -23t23.5 -56q0 -32 -23.5 -55t-55.5 -23q-33 0 -56 23zM241.5 -402q-23.5 23 -23.5 55
t23.5 55.5t55.5 23.5q33 0 56 -23.5t23 -55.5t-23 -55t-56 -23q-32 0 -55.5 23z" />
    <glyph glyph-name="uniFB7D" unicode="&#x686;" horiz-adv-x="613" arabic-form="medial" 
d="M-50.5 20.5q-20.5 20.5 -20.5 48.5t20.5 48.5t49.5 20.5h411q-9 6 -15 16t-6 22v15q0 90 -54 130q-44 34 -113 34q-59 0 -134 -25l-50 124q90 39 180 39q116 0 201 -63q44 -33 74.5 -89.5t30.5 -141.5v-22q0 -18 9 -28.5t25 -10.5h76v-138h-635q-29 0 -49.5 20.5z
M134.5 -217q-23.5 23 -23.5 55q0 33 23.5 56t55.5 23q33 0 56 -23t23 -56q0 -32 -23 -55t-56 -23q-32 0 -55.5 23zM335 -217q-23 23 -23 55q0 33 23 56t56 23q32 0 55.5 -23t23.5 -56q0 -32 -23.5 -55t-55.5 -23q-33 0 -56 23zM233 -402q-23 23 -23 55t23 55.5t56 23.5
q32 0 55.5 -23.5t23.5 -55.5t-23.5 -55t-55.5 -23q-33 0 -56 23z" />
    <glyph glyph-name="uniFB89" unicode="&#x688;" horiz-adv-x="629" arabic-form="final" 
d="M680.5 117.5q19.5 -20.5 19.5 -49.5q0 -28 -19.5 -48t-49.5 -20h-27q-44 0 -84 14.5t-72 40.5q-28 -26 -63 -40.5t-72 -14.5h-283v138h283q15 0 24.5 6t13.5 13q14 12 14 31q0 4 -2 12l-81 292l131 37l84 -296q2 -6 2 -10l1 -3q10 -37 38 -59.5t66 -22.5h27
q30 0 49.5 -20.5zM458.5 722.5q22.5 -26.5 22.5 -76.5v-61h-262v60h43v176h60v-106q34 34 73 34q41 0 63.5 -26.5zM422 647q0 20 -9.5 31t-25.5 11q-34 0 -65 -37v-7h100v2z" />
    <glyph glyph-name="uniFB8B" unicode="&#x698;" horiz-adv-x="378" arabic-form="final" 
d="M264.5 895q23.5 -23 23.5 -55t-23.5 -55.5t-56.5 -23.5q-32 0 -55 23.5t-23 55.5t23 55t55 23q33 0 56.5 -23zM166 710q23 -23 23 -55t-23 -55.5t-56 -23.5q-32 0 -55.5 23.5t-23.5 55.5t23.5 55t55.5 23q33 0 56 -23zM366 710q23 -23 23 -55t-23 -55.5t-56 -23.5
q-32 0 -55.5 23.5t-23.5 55.5t23.5 55t55.5 23q33 0 56 -23zM429 118q20 -20 20 -49t-20 -49t-49 -20h-28q-41 0 -76 20l-1 -22q-9 -97 -70.5 -157t-167.5 -80l-51 131q76 14 114.5 44t38.5 94v462h137v-278q0 -31 22.5 -53.5t53.5 -22.5h28q29 0 49 -20z" />
    <glyph glyph-name="uniFB8D" unicode="&#x691;" horiz-adv-x="378" arabic-form="final" 
d="M429 118q20 -20 20 -49t-20 -49t-49 -20h-28q-41 0 -76 20l-1 -22q-9 -97 -70.5 -157t-167.5 -80l-51 131q76 14 114.5 44t38.5 94v462h137v-278q0 -31 22.5 -53.5t53.5 -22.5h28q29 0 49 -20zM319.5 719.5q22.5 -26.5 22.5 -76.5v-61h-262v60h43v176h60v-106
q34 34 73 34q41 0 63.5 -26.5zM283 644q0 20 -9.5 31t-25.5 11q-34 0 -65 -37v-7h100v2z" />
    <glyph glyph-name="uniFB8F" unicode="&#x6a9;" horiz-adv-x="1057" arabic-form="final" 
d="M1067 138v-137h-405v-1h-392q-60 0 -111 29.5t-80.5 80t-29.5 110.5v170h140v-170q0 -34 23.5 -58t57.5 -24h551v78q0 38 -19 70.5t-51 51t-70 18.5h-225l-77 152l209 290l113 -81l-160 -221h149q73 0 135 -36t98 -98.5t36 -136.5v-87h108z" />
    <glyph glyph-name="uniFB90" unicode="&#x6a9;" horiz-adv-x="717" arabic-form="initial" 
d="M528 460q62 -36 98.5 -98.5t36.5 -136.5v-141q0 -35 -24.5 -59.5t-58.5 -24.5h-590v138h508q11 0 19 8.5t8 18.5v51q0 38 -19 70.5t-51 51t-70 18.5h-225l-102 152l200 280l114 -81l-152 -211h173q73 0 135 -36z" />
    <glyph glyph-name="uniFB91" unicode="&#x6a9;" horiz-adv-x="715" arabic-form="medial" 
d="M725 138v-137l-735 -1v138h488v78q0 38 -19 70.5t-51 51t-70 18.5h-224l-77 152l208 290l114 -81l-161 -221h149q73 0 135 -36t98.5 -98.5t36.5 -136.5v-87h108z" />
    <glyph glyph-name="uniFB93" unicode="&#x6af;" horiz-adv-x="1057" arabic-form="final" 
d="M530 822l-197 -263l-44 41l193 258zM1067 138v-137h-405v-1h-392q-60 0 -111 29.5t-80.5 80t-29.5 110.5v170h140v-170q0 -34 23.5 -58t57.5 -24h551v78q0 38 -19 70.5t-51 51t-70 18.5h-225l-77 152l209 290l113 -81l-160 -221h149q73 0 135 -36t98 -98.5t36 -136.5v-87
h108z" />
    <glyph glyph-name="uniFB94" unicode="&#x6af;" horiz-adv-x="717" arabic-form="initial" 
d="M166 845l48 -36l-197 -263l-45 40zM528 460q62 -36 98.5 -98.5t36.5 -136.5v-225h-673v138h535v78q0 38 -19 70.5t-51 51t-70 18.5h-225l-102 152l200 280l114 -81l-152 -211h173q73 0 135 -36z" />
    <glyph glyph-name="uniFB95" unicode="&#x6af;" horiz-adv-x="715" arabic-form="medial" 
d="M197 819l-197 -263l-44 41l194 258zM725 138v-137l-735 -1v138h488v78q0 38 -19 70.5t-51 51t-70 18.5h-224l-77 152l208 290l114 -81l-161 -221h149q73 0 135 -36t98.5 -98.5t36.5 -136.5v-87h108z" />
    <glyph glyph-name="uniFB9F" unicode="&#x6ba;" horiz-adv-x="743" arabic-form="final" 
d="M793.5 118q20.5 -20 20.5 -49t-20.5 -49t-49.5 -20h-58q-22 0 -37 12v-102q0 -43 -29.5 -73.5t-72.5 -30.5h-228q-76 0 -139 37.5t-100 101t-37 138.5v179h137v-179q0 -37 18.5 -69t50.5 -51t70 -19h153q17 0 28 11t11 28v506h138v-318q2 -14 12.5 -23.5t24.5 -9.5h58
q29 0 49.5 -20z" />
    <glyph glyph-name="uniFBA7" unicode="&#x6c1;" horiz-adv-x="631" arabic-form="final" 
d="M288 0q-65 0 -121.5 31.5t-90 86t-33.5 118.5v20q0 70 31.5 124t87.5 83.5t126 29.5h248l1 -314q0 -21 9.5 -31t31.5 -10h55q29 0 49 -19.5t21 -48.5q0 -28 -20 -48.5t-49 -21.5h-56q-51 0 -84.5 5t-64.5 37.5t-31 104.5v207h-110q-44 0 -76.5 -26t-32.5 -72v-14
q0 -43 32.5 -73.5t76.5 -30.5q17 0 26.5 2t20.5 9l8 -140q-25 -9 -55 -9z" />
    <glyph glyph-name="uniFBA8" unicode="&#x6c1;" horiz-adv-x="294" arabic-form="initial" 
d="M-50.5 21q-20.5 21 -20.5 49q0 29 20.5 48.5t49.5 19.5h75q16 0 26 11t10 26v317h139v-317q0 -47 -23.5 -87.5t-64 -64t-88.5 -23.5h-74q-29 0 -49.5 21z" />
    <glyph glyph-name="uniFBA9" unicode="&#x6c1;" horiz-adv-x="677" arabic-form="medial" 
d="M687 138v-138h-87v-12q0 -97 -66 -153t-183 -56q-62 0 -116.5 27t-91.5 74.5t-50 107.5l-1 12h-102v138h95v87q0 72 35 134t94.5 98.5t128.5 36.5q50 0 95.5 -18t83.5 -53q38 -36 58.5 -85t20.5 -101q0 -53 -22 -99h108zM224 138h88q57 0 105 21.5t48 78.5
q0 25 -9.5 47.5t-28.5 38.5q-31 31 -83 31q-32 0 -59.5 -17.5t-44 -47.5t-16.5 -65v-87zM431.5 -55.5q30.5 29.5 30.5 73.5v11q-66 -29 -150 -29h-78l3 -8q13 -34 44 -55.5t70 -21.5q50 0 80.5 29.5z" />
    <glyph glyph-name="uniFBAB" unicode="&#x6be;" horiz-adv-x="732" arabic-form="final" 
d="M742 138v-138h-87v-12q0 -97 -66 -153t-183 -56q-62 0 -116.5 27t-91.5 74.5t-50 107.5l-1 12h-102v138h95v87q0 72 35 134t94.5 98.5t128.5 36.5q50 0 95.5 -18t83.5 -53q38 -36 58.5 -85t20.5 -101q0 -53 -22 -99h108zM279 138h88q57 0 105 21.5t48 78.5
q0 25 -9.5 47.5t-28.5 38.5q-31 31 -83 31q-32 0 -59.5 -17.5t-44 -47.5t-16.5 -65v-87zM486.5 -55.5q30.5 29.5 30.5 73.5v11q-66 -29 -150 -29h-78l3 -8q13 -34 44 -55.5t70 -21.5q50 0 80.5 29.5z" />
    <glyph glyph-name="uniFBAC" unicode="&#x6be;" horiz-adv-x="784" arabic-form="initial" 
d="M558 554q80 -59 126 -152t46 -207v-62q0 -36 -18 -66.5t-48.5 -48.5t-65.5 -18h-608v138h110q-14 21 -23 51t-9 58q0 60 31.5 106.5t85 72.5t116.5 26q66 0 120.5 -33t85.5 -90t31 -124v-19q0 -25 -6 -48h41q8 0 14 5.5t6 13.5v38q0 78 -29.5 142t-82.5 105.5t-123 53.5
q-59 10 -150 10v136h25q61 -1 82 -2.5t64 -8.5q99 -18 179 -77zM235.5 290.5q-29.5 -23.5 -29.5 -62.5q0 -26 12 -46.5t30.5 -32t36.5 -11.5h89q11 0 19 7.5t8 18.5v54q0 21 -13 43.5t-36 37.5t-51 15q-36 0 -65.5 -23.5z" />
    <glyph glyph-name="uniFBAD" unicode="&#x6be;" horiz-adv-x="677" arabic-form="medial" 
d="M687 138v-138h-87v-12q0 -97 -66 -153t-183 -56q-62 0 -116.5 27t-91.5 74.5t-50 107.5l-1 12h-102v138h95v87q0 72 35 134t94.5 98.5t128.5 36.5q50 0 95.5 -18t83.5 -53q38 -36 58.5 -85t20.5 -101q0 -53 -22 -99h108zM224 138h88q57 0 105 21.5t48 78.5
q0 25 -9.5 47.5t-28.5 38.5q-31 31 -83 31q-32 0 -59.5 -17.5t-44 -47.5t-16.5 -65v-87zM431.5 -55.5q30.5 29.5 30.5 73.5v11q-66 -29 -150 -29h-78l3 -8q13 -34 44 -55.5t70 -21.5q50 0 80.5 29.5z" />
    <glyph glyph-name="uniFBAF" unicode="&#x6d2;" horiz-adv-x="664" arabic-form="final" 
d="M674 -1h-441q-23 0 -40 -19q-11 -15 -11 -31q0 -3 2 -11l50 -178l-133 -38l-51 180q-5 27 -5 46q0 66 41 119q27 33 65.5 51.5t81.5 18.5h441v-138z" />
    <glyph glyph-name="uniFBB1" unicode="&#x6d3;" horiz-adv-x="664" arabic-form="final" 
d="M112 205v70h34q-8 22 -7 41q5 38 33.5 64t67.5 26q34 0 59.5 -16.5t37.5 -47.5l-54 -41q-9 19 -18 26.5t-25 7.5q-12 0 -21 -8t-9 -19t7 -22t23 -11h96v-70h-224zM674 -1h-441q-23 0 -40 -19q-11 -15 -11 -31q0 -3 2 -11l50 -178l-133 -38l-51 180q-5 27 -5 46
q0 66 41 119q27 33 65.5 51.5t81.5 18.5h441v-138z" />
    <glyph glyph-name="uniFBFD" unicode="&#x6cc;" horiz-adv-x="879" arabic-form="final" 
d="M929 119q21 -19 21 -48t-21 -50t-50 -21q-22 0 -57 5q9 -17 9 -39q0 -56 -28 -103t-75.5 -74.5t-102.5 -27.5h-303q-76 0 -140.5 38t-102.5 102.5t-38 140.5v191h139v-191q0 -39 19 -72t52 -52t71 -19h303q27 0 47 20t20 47q0 24 -14.5 44t-39.5 27l-166 68l61 126
q57 -23 115 -49l19 -8q101 -36 212 -36q29 0 50 -19z" />
    <glyph glyph-name="uniFBFE" unicode="&#x6cc;" horiz-adv-x="401" arabic-form="initial" 
d="M-50.5 21q-20.5 21 -20.5 49q0 29 20.5 48.5t49.5 19.5h182q16 0 26.5 11t10.5 26v317h138v-317q0 -47 -23.5 -87.5t-64 -64t-88.5 -23.5h-181q-29 0 -49.5 21zM131 -98q23 -23 23 -55q0 -33 -23 -56t-56 -23q-32 0 -55.5 23t-23.5 56q0 32 23.5 55t55.5 23q33 0 56 -23z
M332 -98q23 -23 23 -55q0 -33 -23 -56t-56 -23q-32 0 -55.5 23t-23.5 56q0 32 23.5 55t55.5 23q33 0 56 -23z" />
    <glyph glyph-name="uniFBFF" unicode="&#x6cc;" horiz-adv-x="432" arabic-form="medial" 
d="M483.5 118q20.5 -20 20.5 -48q0 -30 -20.5 -50t-49.5 -20h-80q-37 0 -71.5 13.5t-61.5 37.5q-54 -51 -125 -51h-95q-31 0 -51.5 19.5t-20.5 49.5t20.5 49.5t51.5 19.5h79q26 0 44.5 19t18.5 45v208h139v-209q5 -26 25.5 -44.5t46.5 -18.5h80q29 0 49.5 -20zM161.5 -98
q23.5 -23 23.5 -55q0 -33 -23.5 -56t-55.5 -23q-33 0 -56 23t-23 56q0 32 23 55t56 23q32 0 55.5 -23zM362.5 -98q23.5 -23 23.5 -55q0 -33 -23.5 -56t-55.5 -23q-33 0 -56 23t-23 56q0 32 23 55t56 23q32 0 55.5 -23z" />
    <glyph glyph-name="uniFE82" unicode="&#x622;" horiz-adv-x="290" arabic-form="final" 
d="M168.5 23.5q-39.5 23.5 -62.5 63t-23 86.5v526h138v-526q0 -14 10.5 -24.5t24.5 -10.5h44v-138h-45q-47 0 -86.5 23.5zM72 901q7 5 15 5q11 0 19 -8q31 -31 100 -31q23 0 83 21l24 -66q-23 -10 -55 -19t-52 -9q-34 0 -61.5 10t-53.5 32q-3 3 -7 3q-3 0 -8 -3l-41 -26
l-37 42z" />
    <glyph glyph-name="uniFE84" unicode="&#x623;" horiz-adv-x="281" arabic-form="final" 
d="M35 755v70h33q-8 20 -6 40q5 38 33 64t67 26q34 0 59.5 -16.5t38.5 -47.5l-55 -40q-9 18 -18 25.5t-25 7.5q-12 0 -20.5 -8t-8.5 -19t6.5 -21.5t22.5 -10.5h96v-70h-223zM158.5 23.5q-39.5 23.5 -62.5 63t-23 86.5v527h138v-527q0 -14 10.5 -24.5t24.5 -10.5h44v-138h-45
q-47 0 -86.5 23.5z" />
    <glyph glyph-name="uniFE86" unicode="&#x624;" horiz-adv-x="613" arabic-form="final" 
d="M441 579h-224v70h33q-8 26 -6 40q5 38 33 64t68 26q33 0 59 -17t38 -47l-54 -40q-9 18 -18 25.5t-25 7.5q-12 0 -21 -7.5t-9 -19.5q0 -11 7 -21.5t23 -10.5h96v-70zM608 0h-86q-9 -93 -76 -155q-39 -37 -83 -55.5t-105 -25t-163 -5.5l1 137q115 0 168.5 9t89.5 41
q16 15 24 45l2 9h-91q-67 0 -123.5 33.5t-89.5 91t-33 125.5q0 66 33 122t89.5 88.5t123.5 32.5h234v-355h85v-138zM384 354h-95q-45 0 -77 -30t-32 -74q0 -47 32 -79.5t77 -32.5h95v216z" />
    <glyph glyph-name="uniFE88" unicode="&#x625;" horiz-adv-x="288" arabic-form="final" 
d="M158.5 23.5q-39.5 23.5 -62.5 63t-23 86.5v526h138v-526q0 -14 10.5 -24.5t24.5 -10.5h44q29 0 49 -20t20 -49q0 -28 -20 -48.5t-49 -20.5h-45q-47 0 -86.5 23.5zM36 -265v70h34q-8 22 -7 41q5 38 33.5 64t67.5 26q34 0 59.5 -16.5t37.5 -47.5l-54 -40q-9 18 -18 25.5
t-25 7.5q-12 0 -21 -8t-9 -19t7 -22t23 -11h96v-70h-224z" />
    <glyph glyph-name="uniFE8A" unicode="&#x626;" horiz-adv-x="879" arabic-form="final" 
d="M3 292v70h33q-8 26 -6 40q5 38 33 64t68 26q33 0 59 -17t38 -47l-54 -40q-9 18 -18 25.5t-25 7.5q-12 0 -21 -8t-9 -19t7 -21.5t23 -10.5h96v-70h-224zM929 119q21 -19 21 -48t-21 -50t-50 -21q-22 0 -57 5q9 -17 9 -39q0 -56 -28 -103t-75.5 -74.5t-102.5 -27.5h-303
q-76 0 -140.5 38t-102.5 102.5t-38 140.5v191h139v-191q0 -39 19 -72t52 -52t71 -19h303q27 0 47 20t20 47q0 24 -14.5 44t-39.5 27l-166 68l61 126q57 -23 115 -49l19 -8q101 -36 212 -36q29 0 50 -19z" />
    <glyph glyph-name="uniFE8B" unicode="&#x626;" horiz-adv-x="324" arabic-form="initial" 
d="M94 560v70h33q-9 23 -6 40q5 38 33 64t68 26q33 0 58.5 -16.5t38.5 -47.5l-54 -40q-10 19 -18.5 26t-24.5 7q-13 0 -21.5 -7.5t-8.5 -19.5q0 -11 7 -21.5t23 -10.5h96v-70h-224zM-50.5 21q-20.5 21 -20.5 49q0 29 20.5 48.5t49.5 19.5h101q16 0 26 11t10 26v317h139v-317
q0 -47 -23.5 -87.5t-64 -64t-88.5 -23.5h-100q-29 0 -49.5 21z" />
    <glyph glyph-name="uniFE8C" unicode="&#x626;" horiz-adv-x="369" arabic-form="medial" 
d="M82 493v69h34q-8 22 -7 41q5 38 33.5 64t67.5 26q34 0 59.5 -16.5t37.5 -47.5l-54 -40q-9 18 -18 25.5t-25 7.5q-12 0 -21 -8t-9 -19t7 -22t23 -11h96v-69h-224zM420 118q20 -20 20 -48q0 -30 -20.5 -50t-49.5 -20h-36q-37 0 -71.5 13.5t-61.5 37.5q-54 -51 -125 -51h-75
q-31 0 -51.5 19.5t-20.5 49.5t20.5 49.5t51.5 19.5h59q26 0 44.5 19t18.5 45v208h139v-209q5 -26 25.5 -44.5t46.5 -18.5h37q29 0 49 -20z" />
    <glyph glyph-name="uniFE8E" unicode="&#x627;" horiz-adv-x="290" arabic-form="final" 
d="M168.5 23.5q-39.5 23.5 -62.5 63t-23 86.5v526h138v-526q0 -14 10.5 -24.5t24.5 -10.5h44v-138h-45q-47 0 -86.5 23.5z" />
    <glyph glyph-name="uniFE90" unicode="&#x628;" horiz-adv-x="929" arabic-form="final" 
d="M980 118q20 -20 20 -48q0 -30 -20.5 -50t-49.5 -20h-39q-75 0 -133 51q-26 -24 -58 -37.5t-68 -13.5h-377q-60 0 -110.5 29.5t-80.5 80t-30 110.5v174h140v-174q0 -34 23.5 -58t57.5 -24h361q26 0 45 19t19 45v291h139v-292q4 -26 24.5 -44.5t47.5 -18.5h40q29 0 49 -20z
M511 -98q23 -23 23 -55q0 -33 -23 -56t-56 -23q-32 0 -55.5 23t-23.5 56q0 32 23.5 55t55.5 23q33 0 56 -23z" />
    <glyph glyph-name="uniFE91" unicode="&#x628;" horiz-adv-x="319" arabic-form="initial" 
d="M-50.5 21q-20.5 21 -20.5 49q0 29 20.5 48.5t49.5 19.5h101q16 0 26 11t10 26v318h139v-318q0 -47 -23.5 -87.5t-64 -64t-88.5 -23.5h-100q-29 0 -49.5 21zM68 -98q23 23 56 23q32 0 55.5 -23t23.5 -55q0 -33 -23.5 -56t-55.5 -23q-33 0 -56 23t-23 56q0 32 23 55z" />
    <glyph glyph-name="uniFE92" unicode="&#x628;" horiz-adv-x="341" arabic-form="medial" 
d="M392.5 118q20.5 -20 20.5 -48q0 -30 -20.5 -50t-49.5 -20h-30q-37 0 -71.5 13.5t-61.5 37.5q-54 -51 -125 -51h-54q-31 0 -51.5 19.5t-20.5 49.5t20.5 49.5t51.5 19.5h38q26 0 44.5 19t18.5 45v192h139v-193q5 -26 25.5 -44.5t46.5 -18.5h30q29 0 49.5 -20zM114.5 -98
q23.5 23 55.5 23q33 0 56 -23t23 -55q0 -33 -23 -56t-56 -23q-32 0 -55.5 23t-23.5 56q0 32 23.5 55z" />
    <glyph glyph-name="uniFE94" unicode="&#x629;" horiz-adv-x="630" arabic-form="final" 
d="M298 713q23 -23 23 -55q0 -33 -23 -56t-56 -23q-32 0 -55.5 23t-23.5 56q0 32 23.5 55t55.5 23q33 0 56 -23zM498 713q23 -23 23 -55q0 -33 -23 -56t-56 -23q-32 0 -55.5 23t-23.5 56q0 32 23.5 55t55.5 23q33 0 56 -23zM682 118.5q20 -19.5 21 -48.5q0 -28 -20 -48.5
t-49 -21.5h-56q-38 0 -72.5 16.5t-59.5 45.5q-31 -29 -72 -45.5t-86 -16.5q-65 0 -121.5 31.5t-90 86t-33.5 118.5v20q0 70 31.5 124t87.5 83.5t126 29.5h248l1 -314q0 -21 9.5 -31t31.5 -10h55q29 0 49 -19.5zM366 170.5q32 32.5 32 78.5v103l-110 2q-44 1 -76.5 -25.5
t-32.5 -72.5v-14q0 -43 32.5 -73.5t76.5 -30.5q46 0 78 32.5z" />
    <glyph glyph-name="uniFE96" unicode="&#x62a;" horiz-adv-x="920" arabic-form="final" 
d="M387 634q23 -23 23 -55t-23 -55.5t-56 -23.5q-32 0 -55.5 23.5t-23.5 55.5t23.5 55t55.5 23q33 0 56 -23zM587.5 634q23.5 -23 23.5 -55t-23.5 -55.5t-56.5 -23.5q-32 0 -55 23.5t-23 55.5t23 55t55 23q33 0 56.5 -23zM971 118q20 -20 20 -48q0 -30 -20.5 -50t-49.5 -20
h-30q-75 0 -133 51q-26 -24 -58 -37.5t-68 -13.5h-377q-60 0 -110.5 29.5t-80.5 80t-30 110.5v174h140v-174q0 -34 23.5 -58t57.5 -24h361q26 0 45 19t19 45v291h139v-292q4 -26 24.5 -44.5t47.5 -18.5h31q29 0 49 -20z" />
    <glyph glyph-name="uniFE97" unicode="&#x62a;" horiz-adv-x="431" arabic-form="initial" 
d="M171.5 714q23.5 -23 23.5 -55q0 -33 -23.5 -56t-55.5 -23q-33 0 -56 23t-23 56q0 32 23 55t56 23q32 0 55.5 -23zM371.5 714q23.5 -23 23.5 -55q0 -33 -23.5 -56t-55.5 -23q-33 0 -56 23t-23 56q0 32 23 55t56 23q32 0 55.5 -23zM-50.5 21q-20.5 21 -20.5 49
q0 29 20.5 48.5t49.5 19.5h139q16 0 26 11t10 26v318h138v-318q0 -47 -23.5 -87.5t-63.5 -64t-88 -23.5h-138q-29 0 -49.5 21z" />
    <glyph glyph-name="uniFE98" unicode="&#x62a;" horiz-adv-x="397" arabic-form="medial" 
d="M159 629q23 -23 23 -55t-23 -55.5t-56 -23.5q-32 0 -55.5 23.5t-23.5 55.5t23.5 55t55.5 23q33 0 56 -23zM359.5 629q23.5 -23 23.5 -55t-23.5 -55.5t-55.5 -23.5q-33 0 -56 23.5t-23 55.5t23 55t56 23q32 0 55.5 -23zM448.5 118q20.5 -20 20.5 -48q0 -30 -20.5 -50
t-49.5 -20h-49q-75 0 -133 51q-26 -24 -58 -37.5t-68 -13.5h-90q-31 0 -51.5 19.5t-20.5 49.5t20.5 49.5t51.5 19.5h75q26 0 44.5 19t18.5 45v192h139v-193q4 -26 24.5 -44.5t47.5 -18.5h49q29 0 49.5 -20z" />
    <glyph glyph-name="uniFE9A" unicode="&#x62b;" horiz-adv-x="937" arabic-form="final" 
d="M468.5 820q23.5 -23 23.5 -55q0 -33 -23.5 -56t-56.5 -23q-32 0 -55 23t-23 56q0 32 23 55t55 23q33 0 56.5 -23zM370 634q23 -23 23 -55t-23 -55.5t-56 -23.5q-32 0 -55.5 23.5t-23.5 55.5t23.5 55t55.5 23q33 0 56 -23zM570 634q23 -23 23 -55t-23 -55.5t-56 -23.5
q-32 0 -55.5 23.5t-23.5 55.5t23.5 55t55.5 23q33 0 56 -23zM989.5 118q20.5 -20 20.5 -48q0 -30 -20.5 -50t-50.5 -20h-48q-75 0 -133 51q-26 -24 -58 -37.5t-68 -13.5h-377q-60 0 -110.5 29.5t-80.5 80t-30 110.5v171h140v-171q0 -34 23.5 -58t57.5 -24h361q26 0 45 19
t19 45v290h139v-291q4 -26 24.5 -44.5t47.5 -18.5h49q29 0 49.5 -20z" />
    <glyph glyph-name="uniFE9B" unicode="&#x62b;" horiz-adv-x="423" arabic-form="initial" 
d="M261.5 898q23.5 -23 23.5 -55q0 -33 -23.5 -56t-55.5 -23q-33 0 -56 23t-23 56q0 32 23 55t56 23q32 0 55.5 -23zM163.5 713q23.5 -23 23.5 -55q0 -33 -23.5 -56t-56.5 -23q-32 0 -55 23t-23 56q0 32 23 55t55 23q33 0 56.5 -23zM363.5 713q23.5 -23 23.5 -55
q0 -33 -23.5 -56t-55.5 -23q-33 0 -56 23t-23 56q0 32 23 55t56 23q32 0 55.5 -23zM-50.5 21q-20.5 21 -20.5 49q0 29 20.5 48.5t49.5 19.5h129q16 0 26 11t10 26v318h139v-318q0 -47 -23.5 -87.5t-64 -64t-88.5 -23.5h-128q-29 0 -49.5 21z" />
    <glyph glyph-name="uniFE9C" unicode="&#x62b;" horiz-adv-x="413" arabic-form="medial" 
d="M260 814q23 -23 23 -55t-23 -55.5t-56 -23.5q-32 0 -55.5 23.5t-23.5 55.5t23.5 55t55.5 23q33 0 56 -23zM161.5 629q23.5 -23 23.5 -55q0 -33 -23.5 -56t-55.5 -23q-33 0 -56 23t-23 56q0 32 23 55t56 23q32 0 55.5 -23zM361.5 629q23.5 -23 23.5 -55q0 -33 -23.5 -56
t-55.5 -23q-33 0 -56 23t-23 56q0 32 23 55t56 23q32 0 55.5 -23zM464 118q20 -20 20 -48q0 -30 -20.5 -50t-49.5 -20h-49q-75 0 -133 51q-26 -24 -58 -37.5t-68 -13.5h-105q-31 0 -51.5 19.5t-20.5 49.5t20.5 49.5t51.5 19.5h89q26 0 45 19t19 45v192h139v-193
q4 -26 24.5 -44.5t47.5 -18.5h50q29 0 49 -20z" />
    <glyph glyph-name="uniFE9E" unicode="&#x62c;" horiz-adv-x="718" arabic-form="final" 
d="M213.5 -31q-30.5 -31 -30.5 -74q0 -44 30.5 -75t73.5 -31h199v-138h-200q-66 0 -122 33t-88.5 89t-32.5 122t32.5 122t88.5 88.5t122 32.5h249q-5 3 -11 15.5t-6 25.5v16q-1 87 -52 123q-43 35 -116 35q-64 0 -136 -25l-61 123q110 42 203 42q112 0 194 -62
q43 -34 73 -92t33 -145v-16q0 -14 6 -27t21 -13h93v-138h-489q-43 0 -73.5 -31zM369.5 -57.5q21.5 -21.5 21.5 -50.5q0 -30 -21.5 -51.5t-51.5 -21.5t-51.5 21.5t-21.5 51.5q0 29 21.5 50.5t51.5 21.5t51.5 -21.5z" />
    <glyph glyph-name="uniFE9F" unicode="&#x62c;" horiz-adv-x="619" arabic-form="initial" 
d="M-50.5 20.5q-20.5 20.5 -20.5 48.5t20.5 48.5t49.5 20.5h413q-9 6 -14.5 16t-5.5 22v14q0 89 -54 130q-45 35 -112 35q-58 0 -143 -29l-56 125q107 41 197 41q112 0 197 -63q44 -33 74.5 -89.5t30.5 -141.5v-21q0 -18 9.5 -28.5t25.5 -10.5h21v-138h-583
q-29 0 -49.5 20.5zM347 -97q23 -23 23 -55t-23 -55.5t-56 -23.5q-32 0 -55.5 23.5t-23.5 55.5t23.5 55t55.5 23q33 0 56 -23z" />
    <glyph glyph-name="uniFEA0" unicode="&#x62c;" horiz-adv-x="613" arabic-form="medial" 
d="M-50.5 20.5q-20.5 20.5 -20.5 48.5t20.5 48.5t49.5 20.5h411q-9 6 -15 16t-6 22v14q0 89 -54 129q-43 35 -114 35q-60 0 -133 -26l-50 124q90 39 181 39q116 0 200 -62q44 -33 74.5 -90t30.5 -142v-20q0 -18 9 -28.5t25 -10.5h76v-138h-635q-29 0 -49.5 20.5zM360.5 -97
q23.5 -23 23.5 -55t-23.5 -55.5t-55.5 -23.5q-33 0 -56 23.5t-23 55.5t23 55t56 23q32 0 55.5 -23z" />
    <glyph glyph-name="uniFEA2" unicode="&#x62d;" horiz-adv-x="756" arabic-form="final" 
d="M202.5 -21.5q-21.5 -21.5 -21.5 -51.5q0 -31 21.5 -52.5t51.5 -21.5h234v-138h-234q-57 0 -105.5 28t-77 77t-28.5 107t28.5 106.5t77 76.5t105.5 28h281q-5 3 -11 15.5t-6 25.5v15q-1 44 -14 73.5t-38 49.5q-43 35 -117 35q-63 0 -135 -25l-61 124q115 43 207 43
q111 0 190 -63q100 -81 106 -238v-15q0 -14 6 -27t21 -13h93v-138h-522q-30 0 -51.5 -21.5z" />
    <glyph glyph-name="uniFEA3" unicode="&#x62d;" horiz-adv-x="619" arabic-form="initial" 
d="M-50.5 20.5q-20.5 20.5 -20.5 48.5t20.5 48.5t49.5 20.5h413q-9 6 -14.5 16t-5.5 22v16q0 89 -54 130q-45 34 -112 34q-61 0 -143 -28l-56 125q107 41 197 41q112 0 197 -63q44 -32 74.5 -89.5t30.5 -141.5v-23q0 -18 9.5 -28.5t25.5 -10.5h21v-138h-583
q-29 0 -49.5 20.5z" />
    <glyph glyph-name="uniFEA4" unicode="&#x62d;" horiz-adv-x="613" arabic-form="medial" 
d="M-50.5 20.5q-20.5 20.5 -20.5 48.5t20.5 48.5t49.5 20.5h411q-9 6 -15 16t-6 22v17q0 90 -54 130q-44 34 -113 34q-61 0 -134 -26l-50 125q92 40 183 40q115 0 198 -64q44 -32 74.5 -89.5t30.5 -141.5v-24q0 -18 9 -28.5t25 -10.5h76v-138h-635q-29 0 -49.5 20.5z" />
    <glyph glyph-name="uniFEA6" unicode="&#x62e;" horiz-adv-x="755" arabic-form="final" 
d="M438.5 714q23.5 -23 23.5 -55q0 -33 -23.5 -56t-55.5 -23q-33 0 -56 23t-23 56q0 32 23 55t56 23q32 0 55.5 -23zM202.5 -21.5q-21.5 -21.5 -21.5 -51.5q0 -31 21.5 -52.5t51.5 -21.5h234v-138h-234q-57 0 -105.5 28t-77 77t-28.5 107t28.5 106.5t77 76.5t105.5 28h281
q-5 3 -11 15.5t-6 25.5v14q-1 44 -14 73.5t-38 49.5q-43 35 -117 35q-63 0 -135 -25l-61 124q115 43 207 43q111 0 190 -63q100 -81 106 -238v-14q0 -14 6 -27t21 -13h93v-138h-522q-30 0 -51.5 -21.5z" />
    <glyph glyph-name="uniFEA7" unicode="&#x62e;" horiz-adv-x="619" arabic-form="initial" 
d="M195.5 714q23.5 23 55.5 23q33 0 56 -23t23 -55q0 -33 -23 -56t-56 -23q-32 0 -55.5 23t-23.5 56q0 32 23.5 55zM-50.5 20.5q-20.5 20.5 -20.5 48.5t20.5 48.5t49.5 20.5h413q-9 6 -14.5 16t-5.5 22v16q0 89 -54 130q-45 34 -112 34q-61 0 -143 -28l-56 125
q107 41 197 41q112 0 197 -63q44 -32 74.5 -89.5t30.5 -141.5v-23q0 -18 9.5 -28.5t25.5 -10.5h21v-138h-583q-29 0 -49.5 20.5z" />
    <glyph glyph-name="uniFEA8" unicode="&#x62e;" horiz-adv-x="613" arabic-form="medial" 
d="M193 714q23 23 56 23q32 0 55.5 -23t23.5 -55q0 -33 -23.5 -56t-55.5 -23q-33 0 -56 23t-23 56q0 32 23 55zM-50.5 20.5q-20.5 20.5 -20.5 48.5t20.5 48.5t49.5 20.5h411q-9 6 -15 16t-6 22v16q0 90 -54 130q-44 34 -113 34q-59 0 -134 -25l-50 124q89 39 180 39
q114 0 201 -63q44 -32 74.5 -89.5t30.5 -141.5v-23q0 -18 9 -28.5t25 -10.5h76v-138h-635q-29 0 -49.5 20.5z" />
    <glyph glyph-name="uniFEAA" unicode="&#x62f;" horiz-adv-x="629" arabic-form="final" 
d="M680.5 117.5q19.5 -20.5 19.5 -49.5q0 -28 -19.5 -48t-49.5 -20h-27q-44 0 -84 14.5t-72 40.5q-28 -26 -63 -40.5t-72 -14.5h-283v138h283q15 0 24.5 6t13.5 13q14 12 14 31q0 4 -2 12l-81 292l131 37l84 -296q2 -6 2 -10l1 -3q10 -37 38 -59.5t66 -22.5h27
q30 0 49.5 -20.5z" />
    <glyph glyph-name="uniFEAC" unicode="&#x630;" horiz-adv-x="630" arabic-form="final" 
d="M261.5 586q-23.5 23 -23.5 56q0 32 23.5 55t55.5 23q33 0 56 -23t23 -55q0 -33 -23 -56t-56 -23q-32 0 -55.5 23zM684.5 117.5q19.5 -20.5 19.5 -49.5q0 -28 -19.5 -48t-49.5 -20h-31q-44 0 -84 14.5t-72 40.5q-28 -26 -62.5 -40.5t-72.5 -14.5h-283v138h283q15 0 24.5 6
t13.5 13q14 12 14 31q0 4 -2 12l-81 292l131 37l84 -296q2 -6 2 -10l1 -3q10 -37 38 -59.5t66 -22.5h31q30 0 49.5 -20.5z" />
    <glyph glyph-name="uniFEAE" unicode="&#x631;" horiz-adv-x="378" arabic-form="final" 
d="M429 118q20 -20 20 -49t-20 -49t-49 -20h-28q-41 0 -76 20l-1 -22q-9 -97 -70.5 -157t-167.5 -80l-51 131q76 14 114.5 44t38.5 94v462h137v-278q0 -31 22.5 -53.5t53.5 -22.5h28q29 0 49 -20z" />
    <glyph glyph-name="uniFEB0" unicode="&#x632;" horiz-adv-x="382" arabic-form="final" 
d="M261.5 714q23.5 -23 23.5 -55q0 -33 -23.5 -56t-55.5 -23q-33 0 -56 23t-23 56q0 32 23 55t56 23q32 0 55.5 -23zM428.5 118q20.5 -20 20.5 -49t-20.5 -49t-49.5 -20h-27q-44 0 -76 20l-1 -22q-9 -97 -70.5 -157t-167.5 -80l-51 131q59 11 91 25.5t47 41t15 71.5v462h137
v-278q0 -31 22.5 -53.5t53.5 -22.5h27q29 0 49.5 -20z" />
    <glyph glyph-name="uniFEB2" unicode="&#x633;" horiz-adv-x="1332" arabic-form="final" 
d="M1384 118q20 -20 20 -49q0 -28 -20.5 -48.5t-49.5 -20.5h-32q-34 0 -64.5 13.5t-52.5 36.5q-59 -50 -141 -50q-92 0 -154 62q-27 -29 -65.5 -45.5t-81.5 -16.5q-29 0 -51 5t-43 15v-83q0 -40 -19.5 -73.5t-53 -53t-72.5 -19.5h-186q-74 0 -137.5 37t-100.5 100.5
t-37 137.5v195h139v-195q0 -37 18.5 -68t49.5 -49.5t68 -18.5h153q17 0 28.5 11.5t11.5 28.5v425h138v-180q0 -34 23.5 -55.5t61.5 -21.5q41 0 65 23t24 57v172h138v-175q0 -36 25 -56.5t64 -20.5q32 0 55.5 23.5t23.5 56.5v274h139v-319q0 -14 10 -24.5t24 -10.5h33
q29 0 49 -20z" />
    <glyph glyph-name="uniFEB3" unicode="&#x633;" horiz-adv-x="893" arabic-form="initial" 
d="M809 106.5q-30 -49.5 -81 -78t-112 -28.5q-95 0 -152 62q-33 -33 -72.5 -47.5t-91.5 -14.5q-37 0 -70.5 12.5t-60.5 36.5q-23 -23 -52.5 -36t-62.5 -13h-56q-29 0 -49 20.5t-20 48.5t20.5 48.5t48.5 20.5h56q14 0 23.5 9.5t9.5 23.5v222h137v-180q0 -33 23.5 -54
t60.5 -21q41 0 64.5 22t22.5 57v176h138v-180q0 -34 22.5 -54.5t60.5 -20.5q40 0 63 22t23 57v275h137v-275q0 -61 -30 -110.5z" />
    <glyph glyph-name="uniFEB4" unicode="&#x633;" horiz-adv-x="927" arabic-form="medial" 
d="M977 117.5q21 -20.5 21 -48.5t-21 -48.5t-48 -20.5h-53q-34 0 -65 13.5t-53 37.5q-28 -24 -64.5 -37.5t-76.5 -13.5q-96 0 -152 63q-34 -33 -73.5 -48t-91.5 -15q-37 0 -71.5 12.5t-61.5 36.5q-22 -23 -52 -36t-63 -13h-54q-29 0 -49 20.5t-20 48.5t20.5 48.5t48.5 20.5
h54q14 0 24 10t10 24v221h136v-179q0 -34 24 -55t62 -21q41 0 64 22t23 58v175h139v-179q0 -34 22 -55t61 -21q41 0 64 22t23 58v274h137v-320q0 -14 10 -24t25 -10h53q27 0 48 -20.5z" />
    <glyph glyph-name="uniFEB6" unicode="&#x634;" horiz-adv-x="1342" arabic-form="final" 
d="M931 811q23 -23 23 -55q0 -33 -23 -56t-56 -23q-32 0 -55.5 23t-23.5 56q0 32 23.5 55t55.5 23q33 0 56 -23zM831.5 624q23.5 -23 23.5 -55q0 -33 -23.5 -56t-56.5 -23q-32 0 -55 23t-23 56q0 32 23 55t55 23q33 0 56.5 -23zM1034.5 624q23.5 -23 23.5 -55
q0 -33 -23.5 -56t-55.5 -23q-33 0 -56 23t-23 56q0 32 23 55t56 23q32 0 55.5 -23zM1393 118q20 -20 20 -49q0 -28 -20.5 -48.5t-49.5 -20.5h-41q-34 0 -64.5 13.5t-52.5 36.5q-59 -50 -141 -50q-92 0 -154 62q-27 -29 -65.5 -45.5t-81.5 -16.5q-29 0 -51 5t-43 15v-83
q0 -40 -19.5 -73.5t-53 -53t-72.5 -19.5h-186q-74 0 -137.5 37t-100.5 100.5t-37 137.5v195h139v-195q0 -37 18.5 -68t49.5 -49.5t68 -18.5h153q17 0 28.5 11.5t11.5 28.5v426h138v-181q0 -34 23.5 -55.5t61.5 -21.5q41 0 65 23t24 57v172h138v-175q0 -36 25 -56.5t64 -20.5
q32 0 55.5 23.5t23.5 56.5v274h139v-319q0 -14 10 -24.5t24 -10.5h42q29 0 49 -20z" />
    <glyph glyph-name="uniFEB7" unicode="&#x634;" horiz-adv-x="897" arabic-form="initial" 
d="M496 821q23 -23 23 -55q0 -33 -23 -56t-56 -23q-32 0 -55.5 23t-23.5 56q0 32 23.5 55t55.5 23q33 0 56 -23zM396 634q23 -23 23 -55t-23 -55.5t-56 -23.5q-32 0 -55.5 23.5t-23.5 55.5t23.5 55t55.5 23q33 0 56 -23zM599.5 634q23.5 -23 23.5 -55t-23.5 -55.5
t-55.5 -23.5q-33 0 -56 23.5t-23 55.5t23 55t56 23q32 0 55.5 -23zM813.5 106.5q-30.5 -49.5 -81.5 -78t-111 -28.5q-95 0 -152 62q-34 -33 -73.5 -47.5t-90.5 -14.5q-77 0 -132 49q-22 -23 -52 -36t-63 -13h-60q-29 0 -49 20.5t-20 48.5t20.5 48.5t48.5 20.5h60q14 0 24 10
t10 24v221h136v-180q0 -33 23.5 -54t60.5 -21q41 0 64.5 22t23.5 57v176h138v-180q0 -34 22 -54.5t61 -20.5q40 0 62.5 22t22.5 57v275h138v-275q0 -61 -30.5 -110.5z" />
    <glyph glyph-name="uniFEB8" unicode="&#x634;" horiz-adv-x="901" arabic-form="medial" 
d="M479 821q23 -23 23 -55q0 -33 -23 -56t-56 -23q-32 0 -55.5 23t-23.5 56q0 32 23.5 55t55.5 23q33 0 56 -23zM379.5 634q23.5 -23 23.5 -55t-23.5 -55.5t-55.5 -23.5q-33 0 -56 23.5t-23 55.5t23 55t56 23q32 0 55.5 -23zM582.5 634q23.5 -23 23.5 -55t-23.5 -55.5
t-55.5 -23.5q-33 0 -56 23.5t-23 55.5t23 55t56 23q32 0 55.5 -23zM951 117.5q21 -20.5 21 -48.5t-21 -48.5t-48 -20.5h-43q-34 0 -65 13.5t-53 37.5q-28 -24 -64.5 -37.5t-76.5 -13.5q-94 0 -152 63q-34 -33 -73.5 -48t-91.5 -15q-36 0 -71 12.5t-62 36.5q-22 -23 -52 -36
t-63 -13h-38q-29 0 -49 20.5t-20 48.5t20.5 48.5t48.5 20.5h38q14 0 24 10t10 24v221h137v-179q0 -34 23.5 -55t61.5 -21q41 0 64.5 22.5t23.5 57.5v175h138v-179q0 -34 22.5 -55t60.5 -21q41 0 64 22t23 58v274h137l1 -320q0 -14 9.5 -24t24.5 -10h43q27 0 48 -20.5z" />
    <glyph glyph-name="uniFEBA" unicode="&#x635;" horiz-adv-x="1359" arabic-form="final" 
d="M1369 138v-138h-720v-76q0 -36 -18.5 -67t-49.5 -49t-67 -18h-195q-75 0 -138.5 37t-100.5 100.5t-37 138.5v152h137v-152q0 -37 19 -69t51 -50.5t69 -18.5h162q12 0 21 9t9 21v534h138v-86l237 72q40 13 84 13q72 0 135 -34.5t98 -94.5q38 -64 38 -139v-85h128z
M1096.5 145q6.5 7 6.5 18v60q0 39 -19 70q-16 29 -46 44.5t-67 15.5q-22 0 -45 -6l-277 -84v-125h431q10 0 16.5 7z" />
    <glyph glyph-name="uniFEBB" unicode="&#x635;" horiz-adv-x="893" arabic-form="initial" 
d="M848 223v-111q0 -46 -32.5 -79t-78.5 -33h-747v138h128v354h137v-86l237 72q40 13 85 13q72 0 135 -34.5t98 -94.5q38 -64 38 -139zM691 293q-16 29 -46 44.5t-67 15.5q-22 0 -45 -6l-278 -84v-125h431q10 0 17 7t7 18v60q0 39 -19 70z" />
    <glyph glyph-name="uniFEBC" unicode="&#x635;" horiz-adv-x="910" arabic-form="medial" 
d="M920 138v-138h-930v138h100v354h137v-86l237 72q40 13 85 13q72 0 135 -34.5t98 -94.5q38 -64 38 -139v-85h100zM675 145q7 7 7 18v60q0 39 -19 70q-16 29 -46 44.5t-67 15.5q-22 0 -45 -6l-278 -84v-125h431q10 0 17 7z" />
    <glyph glyph-name="uniFEBE" unicode="&#x636;" horiz-adv-x="1359" arabic-form="final" 
d="M874 603q-23 23 -23 56q0 32 23 55t56 23q32 0 55.5 -23t23.5 -55q0 -33 -23.5 -56t-55.5 -23q-33 0 -56 23zM1369 138v-138h-720v-76q0 -36 -18.5 -67t-49.5 -49t-67 -18h-195q-75 0 -138.5 37t-100.5 100.5t-37 138.5v196h137v-196q0 -37 19 -69t51 -50.5t69 -18.5h162
q12 0 21 9t9 21v534h138v-86l237 72q40 13 84 13q72 0 135 -34.5t98 -94.5q38 -64 38 -139v-85h128zM1096.5 145q6.5 7 6.5 18v60q0 39 -19 70q-16 29 -46 44.5t-67 15.5q-22 0 -45 -6l-277 -84v-125h431q10 0 16.5 7z" />
    <glyph glyph-name="uniFEBF" unicode="&#x636;" horiz-adv-x="866" arabic-form="initial" 
d="M545 714q23 -23 23 -55q0 -33 -23 -56t-56 -23q-32 0 -55.5 23t-23.5 56q0 32 23.5 55t55.5 23q33 0 56 -23zM821 223v-111q0 -46 -32.5 -79t-78.5 -33h-720v138h101v354h137v-86l237 72q40 13 84 13q73 0 136 -34.5t98 -94.5q38 -64 38 -139zM664 293q-16 29 -46 44.5
t-67 15.5q-22 0 -45 -6l-278 -84v-125h431q10 0 17 7t7 18v60q0 39 -19 70z" />
    <glyph glyph-name="uniFEC0" unicode="&#x636;" horiz-adv-x="932" arabic-form="medial" 
d="M435.5 603q-23.5 23 -23.5 56q0 32 23.5 55t55.5 23q33 0 56 -23t23 -55q0 -33 -23 -56t-56 -23q-32 0 -55.5 23zM942 138v-138h-952v138h114v354h137v-86l237 72q40 13 85 13q72 0 135 -34.5t98 -94.5q38 -64 38 -139v-85h108zM689 145q7 7 7 18v60q0 39 -19 70
q-16 29 -46 44.5t-67 15.5q-22 0 -45 -6l-278 -84v-125h431q10 0 17 7z" />
    <glyph glyph-name="uniFEC2" unicode="&#x637;" horiz-adv-x="1005" arabic-form="final" 
d="M1015 138v-138h-963v146h105v553h138v-292l237 72q40 13 84 13q72 0 135 -34.5t98 -94.5q38 -61 38 -139v-86h128zM743 145.5q7 7.5 7 17.5v61q0 38 -20 70q-16 28 -46.5 44t-66.5 16q-21 0 -44 -6l-278 -84v-126h431q10 0 17 7.5z" />
    <glyph glyph-name="uniFEC3" unicode="&#x637;" horiz-adv-x="881" arabic-form="initial" 
d="M836 224v-112q0 -46 -32.5 -79t-77.5 -33h-736v138h117v561h137v-292l237 72q40 13 84 13q73 0 136 -34.5t98 -94.5q37 -62 37 -139zM680 294q-16 28 -47 44t-67 16q-21 0 -44 -6l-278 -84v-126h431q10 0 17 7.5t7 17.5v61q0 39 -19 70z" />
    <glyph glyph-name="uniFEC4" unicode="&#x637;" horiz-adv-x="937" arabic-form="medial" 
d="M947 138v-138h-957v138h118v561h137v-292l237 72q40 13 84 13q72 0 135 -34.5t99 -94.5q37 -62 37 -139v-86h110zM693 145.5q7 7.5 7 17.5v61q0 37 -19 70q-16 28 -47 44t-67 16q-21 0 -44 -6l-278 -84v-126h431q10 0 17 7.5z" />
    <glyph glyph-name="uniFEC6" unicode="&#x638;" horiz-adv-x="990" arabic-form="final" 
d="M495.5 603q-23.5 23 -23.5 56q0 32 23.5 55t55.5 23q33 0 56 -23t23 -55q0 -33 -23 -56t-56 -23q-32 0 -55.5 23zM1000 138v-138h-957v146h100v553h137v-292l237 72q40 13 84 13q72 0 135 -34.5t99 -94.5q37 -62 37 -139v-86h128zM728 145.5q7 7.5 7 17.5v61q0 37 -19 70
q-16 28 -47 44t-67 16q-21 0 -44 -6l-278 -84v-126h431q10 0 17 7.5z" />
    <glyph glyph-name="uniFEC7" unicode="&#x638;" horiz-adv-x="880" arabic-form="initial" 
d="M571 714q23 -23 23 -55q0 -33 -23 -56t-56 -23q-32 0 -55.5 23t-23.5 56q0 32 23.5 55t55.5 23q33 0 56 -23zM836 224v-112q0 -46 -32.5 -79t-77.5 -33h-736v138h117v561h137v-292l237 72q40 13 84 13q73 0 136 -34.5t98 -94.5q37 -62 37 -139zM680 294q-16 28 -47 44
t-67 16q-21 0 -44 -6l-278 -84v-126h431q10 0 17 7.5t7 17.5v61q0 39 -19 70z" />
    <glyph glyph-name="uniFEC8" unicode="&#x638;" horiz-adv-x="941" arabic-form="medial" 
d="M473 603q-23 23 -23 56q0 32 23 55t56 23q32 0 55.5 -23t23.5 -55q0 -33 -23.5 -56t-55.5 -23q-33 0 -56 23zM951 138v-138h-961v138h123v561h137v-292l237 72q40 13 84 13q73 0 136 -34.5t98 -94.5q37 -62 37 -139v-86h109zM698 145.5q7 7.5 7 17.5v61q0 39 -19 70
q-16 28 -47 44t-67 16q-21 0 -44 -6l-278 -84v-126h431q10 0 17 7.5z" />
    <glyph glyph-name="uniFECA" unicode="&#x639;" horiz-adv-x="697" arabic-form="final" 
d="M265 0q-31 0 -53.5 -22.5t-22.5 -53.5q0 -30 22.5 -52.5t53.5 -22.5h248v-139h-248q-58 0 -107.5 29t-78 78t-28.5 107q0 65 24 111.5t62 71.5t80 29l16 1l-86 198l33 95q121 68 227 68q32 0 63 -6q50 -9 89.5 -39t61.5 -73t22 -91q0 -39 -14 -79.5t-41 -71.5h120v-138
h-443zM386 146q63 15 89 59t29 78q3 25 -14.5 46.5t-44.5 26.5q-17 3 -32 3q-48 0 -110 -23l-4 -14z" />
    <glyph glyph-name="uniFECB" unicode="&#x639;" horiz-adv-x="605" arabic-form="initial" 
d="M-10 0v138h86q-15 15 -23.5 39t-8.5 53l1 27q4 65 38 119t89.5 85.5t119.5 31.5q68 0 129.5 -36t84.5 -93l-101 -92q-15 34 -43.5 57.5t-69.5 23.5q-43 0 -73.5 -28.5t-34.5 -70.5l-1 -22q0 -44 31 -69t78 -25h258v-138h-560z" />
    <glyph glyph-name="uniFECC" unicode="&#x639;" horiz-adv-x="584" arabic-form="medial" 
d="M126 138l-89 197l34 95q121 68 227 68q30 0 62 -6q50 -9 89.5 -39t61.5 -73t22 -91q0 -39 -14 -79.5t-41 -71.5l110 1v-139h-595v138h133zM365 205q26 44 29 78q3 25 -14 46.5t-45 26.5q-16 3 -32 3q-48 0 -110 -23l-4 -14l87 -176q63 15 89 59z" />
    <glyph glyph-name="uniFECE" unicode="&#x63a;" horiz-adv-x="697" arabic-form="final" 
d="M327 603q-23 23 -23 56q0 32 23 55t55 23q33 0 56.5 -23t23.5 -55q0 -33 -23.5 -56t-56.5 -23q-32 0 -55 23zM265 0q-31 0 -53.5 -22.5t-22.5 -53.5q0 -30 22.5 -52.5t53.5 -22.5h248v-139h-248q-58 0 -107.5 29t-78 78t-28.5 107q0 65 24 111.5t62 71.5t80 29l16 1
l-86 198l33 95q121 68 227 68q32 0 63 -6q50 -9 89.5 -39t61.5 -73t22 -91q0 -39 -14 -79.5t-41 -71.5h120v-138h-443zM386 146q63 15 89 59t29 78q3 25 -14.5 46.5t-44.5 26.5q-17 3 -32 3q-48 0 -110 -23l-4 -14z" />
    <glyph glyph-name="uniFECF" unicode="&#x63a;" horiz-adv-x="605" arabic-form="initial" 
d="M342.5 714q23.5 -23 23.5 -55q0 -33 -23.5 -56t-56.5 -23q-32 0 -55 23t-23 56q0 32 23 55t55 23q33 0 56.5 -23zM-10 0v138h86q-32 50 -32 102l1 19q4 65 38 118.5t89.5 85t119.5 31.5q68 0 129.5 -35.5t84.5 -92.5l-101 -92q-15 34 -43.5 57.5t-69.5 23.5
q-43 0 -73.5 -28.5t-34.5 -70.5l-1 -14q0 -45 31.5 -74.5t77.5 -29.5h259v-138h-561z" />
    <glyph glyph-name="uniFED0" unicode="&#x63a;" horiz-adv-x="585" arabic-form="medial" 
d="M347 714q23 -23 23 -55q0 -33 -23 -56t-56 -23q-32 0 -55.5 23t-23.5 56q0 32 23.5 55t55.5 23q33 0 56 -23zM126 138l-89 197l34 95q121 68 227 68q30 0 62 -6q50 -9 89.5 -39t61.5 -73t22 -91q0 -39 -14 -79.5t-41 -71.5l110 1v-139h-595v138h133zM365 205q26 44 29 78
q3 25 -14 46.5t-45 26.5q-16 3 -32 3q-48 0 -110 -23l-4 -14l87 -176q63 15 89 59z" />
    <glyph glyph-name="uniFED2" unicode="&#x641;" horiz-adv-x="1044" arabic-form="final" 
d="M793.5 714q23.5 -23 23.5 -55t-23.5 -55.5t-55.5 -23.5q-33 0 -56 23.5t-23 55.5t23 55t56 23q32 0 55.5 -23zM269 0q-61 0 -113 30.5t-82.5 83t-30.5 113.5v158h137v-158q0 -37 26 -62.5t63 -25.5h253q-17 23 -24.5 47t-7.5 54v16q0 64 33 118.5t89 86.5t120 32t118 -32
t86 -86.5t32 -118.5v-118h85v-138h-784zM802 325q-29 29 -69 29q-44 0 -76 -31.5t-32 -76.5v-6q0 -43 32.5 -71.5t76.5 -29.5l97 -1v118q0 40 -29 69z" />
    <glyph glyph-name="uniFED3" unicode="&#x641;" horiz-adv-x="581" arabic-form="initial" 
d="M350.5 714q23.5 -23 23.5 -55t-23.5 -55.5t-55.5 -23.5q-33 0 -56 23.5t-23 55.5t23 55t56 23q32 0 55.5 -23zM527 93q0 -38 -27 -65.5t-65 -27.5h-445v138h88q-30 45 -30 108v18q0 64 33 116t89 82.5t121 30.5h236v-400zM292 362q-44 0 -76 -31.5t-32 -76.5v-13
q2 -43 33.5 -73t74.5 -30h82q7 0 11.5 5t4.5 12v207h-98z" />
    <glyph glyph-name="uniFED4" unicode="&#x641;" horiz-adv-x="609" arabic-form="medial" 
d="M246 603.5q-23 23.5 -23 55.5t23 55t56 23q32 0 55.5 -23t23.5 -55t-23.5 -55.5t-55.5 -23.5q-33 0 -56 23.5zM618 0h-627v138h96q-29 44 -29 105v15q0 64 33 118t89 86t120 32t118.5 -32t86.5 -86t32 -118v-88q0 -11 -3.5 -21t-8.5 -11h93v-138zM394.5 143q4.5 5 4.5 12
v103q0 40 -29 69t-69 29q-44 0 -76 -30.5t-32 -74.5v-13q0 -42 32 -71t76 -29h83q6 0 10.5 5z" />
    <glyph glyph-name="uniFED6" unicode="&#x642;" horiz-adv-x="829" arabic-form="final" 
d="M476.5 714q23.5 -23 23.5 -55t-23.5 -55.5t-55.5 -23.5q-33 0 -56 23.5t-23 55.5t23 55t56 23q32 0 55.5 -23zM677.5 714q23.5 -23 23.5 -55t-23.5 -55.5t-55.5 -23.5q-33 0 -56 23.5t-23 55.5t23 55t56 23q32 0 55.5 -23zM749 0v-59q0 -41 -20.5 -76.5t-55.5 -56
t-77 -20.5h-274q-76 0 -140 37.5t-101.5 101.5t-37.5 140v195h138v-192q0 -38 19 -71t51.5 -52t70.5 -19h255q14 0 24 10t10 24v38h-96q-67 0 -123.5 30t-89.5 82.5t-33 116.5v17q0 68 32.5 125t88.5 90.5t125 33.5q62 0 116 -32t86 -86.5t32 -118.5v-120h90v-138h-90z
M582 327q-29 29 -67 29q-47 0 -78 -32t-31 -78v-15q0 -40 32 -66.5t77 -26.5h96v120q0 40 -29 69z" />
    <glyph glyph-name="uniFED7" unicode="&#x642;" horiz-adv-x="592" arabic-form="initial" 
d="M297 714q23 -23 23 -55t-23 -55.5t-56 -23.5q-32 0 -55.5 23.5t-23.5 55.5t23.5 55t55.5 23q33 0 56 -23zM498 714q23 -23 23 -55t-23 -55.5t-56 -23.5q-32 0 -55.5 23.5t-23.5 55.5t23.5 55t55.5 23q33 0 56 -23zM539 93q0 -38 -27.5 -65.5t-65.5 -27.5h-456v138h99
q-29 44 -29 108v18q0 64 33 116t88.5 82.5t120.5 30.5h237v-400zM303 362q-44 0 -76 -31.5t-32 -76.5v-13q2 -43 33.5 -73t74.5 -30h83q6 0 10.5 5t4.5 12v207h-98z" />
    <glyph glyph-name="uniFED8" unicode="&#x642;" horiz-adv-x="606" arabic-form="medial" 
d="M152 603.5q-23 23.5 -23 55.5t23 55t56 23q32 0 55.5 -23t23.5 -55t-23.5 -55.5t-55.5 -23.5q-33 0 -56 23.5zM352.5 603.5q-23.5 23.5 -23.5 55.5t23.5 55t55.5 23q33 0 56 -23t23 -55t-23 -55.5t-56 -23.5q-32 0 -55.5 23.5zM615 0h-624v138h100q-30 45 -30 103v18
q0 64 33 118t89 86t121 32q64 0 118 -32t86 -86t32 -118v-79q0 -22 -5.5 -31.5t-5.5 -10.5h86v-138zM398 143q5 5 5 12v104q0 40 -29 69t-69 29q-44 0 -76 -32t-32 -77v-12q0 -42 32 -70t76 -28h82q6 0 11 5z" />
    <glyph glyph-name="uniFEDA" unicode="&#x643;" horiz-adv-x="926" arabic-form="final" 
d="M936 138v-138h-660q-61 0 -112.5 30.5t-82 81.5t-30.5 112v166h138v-166q0 -36 25.5 -61t61.5 -25h372q15 0 26 10.5t11 25.5v525h138v-561h113zM552 435h-224v70h34q-8 22 -7 40q5 38 33.5 64t67.5 26q34 0 59.5 -16.5t37.5 -47.5l-54 -40q-9 18 -18 25.5t-25 7.5
q-12 0 -21 -8t-9 -19t7 -21.5t23 -10.5h96v-70z" />
    <glyph glyph-name="uniFEDB" unicode="&#x643;" horiz-adv-x="717" arabic-form="initial" 
d="M528 460q62 -36 98.5 -98.5t36.5 -136.5v-141q0 -35 -24.5 -59.5t-58.5 -24.5h-590v138h508q11 0 19 8.5t8 18.5v51q0 38 -19 70.5t-51 51t-70 18.5h-225l-102 152l200 280l114 -81l-152 -211h173q73 0 135 -36z" />
    <glyph glyph-name="uniFEDC" unicode="&#x643;" horiz-adv-x="715" arabic-form="medial" 
d="M725 138v-137l-735 -1v138h488v78q0 38 -19 70.5t-51 51t-70 18.5h-224l-77 152l208 290l114 -81l-161 -221h149q73 0 135 -36t98.5 -98.5t36.5 -136.5v-87h108z" />
    <glyph glyph-name="uniFEDE" unicode="&#x644;" horiz-adv-x="749" arabic-form="final" 
d="M799.5 118q20.5 -20 20.5 -50q0 -28 -20.5 -48t-48.5 -20h-61q-23 0 -38 12v-105q0 -42 -30 -71.5t-72 -29.5h-230q-75 0 -139 37t-101 100.5t-37 138.5v180h139v-180q0 -37 18.5 -69t50.5 -50.5t69 -18.5h169q25 0 25 36v719h138v-519q0 -17 11.5 -29.5t26.5 -12.5h61
q28 0 48.5 -20z" />
    <glyph glyph-name="uniFEDF" unicode="&#x644;" horiz-adv-x="302" arabic-form="initial" 
d="M-51 20.5q-20 20.5 -20 48.5q0 29 20 49t49 20h48q14 0 24.5 10.5t10.5 24.5v526h138v-526q0 -47 -23.5 -86.5t-63 -63t-86.5 -23.5h-48q-29 0 -49 20.5z" />
    <glyph glyph-name="uniFEE0" unicode="&#x644;" horiz-adv-x="317" arabic-form="medial" 
d="M368 118q20 -20 20 -48q0 -30 -20.5 -50t-49.5 -20h-20q-37 0 -71.5 13.5t-61.5 37.5q-54 -51 -125 -51h-39q-31 0 -51.5 19.5t-20.5 49.5t20.5 49.5t51.5 19.5h23q26 0 44.5 19t18.5 45v497h139v-498q5 -26 25.5 -44.5t46.5 -18.5h21q29 0 49 -20z" />
    <glyph glyph-name="uniFEE2" unicode="&#x645;" horiz-adv-x="670" arabic-form="final" 
d="M614 0q-38 0 -71 16t-54 43q-67 -59 -155 -59q-55 0 -104 28l-2 -20q-11 -89 -69 -145t-150 -74l-26 134q111 22 111 130v440h240q66 0 121.5 -33t88 -89t32.5 -122v-75q0 -15 11 -25.5t27 -10.5h67v-138h-67zM407 166.5q30 28.5 32 69.5v13q0 43 -30 73t-75 30h-103
v-117q0 -42 31 -69.5t72 -27.5q43 0 73 28.5z" />
    <glyph glyph-name="uniFEE3" unicode="&#x645;" horiz-adv-x="615" arabic-form="initial" 
d="M-57 118.5q-20 -19.5 -21 -48.5q0 -28 20 -48.5t49 -21.5h31q37 0 71.5 16.5t59.5 45.5q32 -29 73 -45.5t86 -16.5q64 0 120 31t90 84t35 116v12q0 70 -32 127t-88 90t-125 33h-250v-314q0 -21 -9 -31t-31 -10h-30q-29 0 -49 -19.5zM235 164.5q-32 26.5 -33 69.5v121h105
q48 0 80.5 -30t32.5 -76v-11q-1 -41 -33 -70t-75 -30q-45 0 -77 26.5z" />
    <glyph glyph-name="uniFEE4" unicode="&#x645;" horiz-adv-x="615" arabic-form="medial" 
d="M676 118q20 -20 20 -49q0 -28 -20 -48.5t-49 -20.5h-32q-38 0 -71.5 16t-54.5 44q-31 -28 -70.5 -44t-82.5 -16q-52 0 -92 15t-74 46q-24 -29 -58 -45t-72 -16h-37q-29 1 -49 21.5t-20 48.5t20.5 48t48.5 20h37q19 0 29.5 11t10.5 31v313h256q64 0 119 -31.5t88.5 -85
t34.5 -116.5v-84q0 -16 11 -27t26 -11h32q29 0 49 -20zM386 327.5q-31 26.5 -82 26.5h-104v-116q0 -41 31 -70.5t73 -29.5q53 1 84 30.5t31 74.5v14q-2 44 -33 70.5z" />
    <glyph glyph-name="uniFEE6" unicode="&#x646;" horiz-adv-x="743" arabic-form="final" 
d="M793.5 118q20.5 -20 20.5 -49t-20.5 -49t-49.5 -20h-58q-22 0 -37 12v-102q0 -43 -29.5 -73.5t-72.5 -30.5h-228q-76 0 -139 37.5t-100 101t-37 138.5v179h137v-179q0 -37 18.5 -69t50.5 -51t70 -19h153q17 0 28 11t11 28v506h138v-318q2 -14 12.5 -23.5t24.5 -9.5h58
q29 0 49.5 -20zM382.5 458q23.5 -23 23.5 -55t-23.5 -55.5t-56.5 -23.5q-32 0 -55 23.5t-23 55.5t23 55t55 23q33 0 56.5 -23z" />
    <glyph glyph-name="uniFEE7" unicode="&#x646;" horiz-adv-x="296" arabic-form="initial" 
d="M228 714q23 -23 23 -55q0 -33 -23 -56t-56 -23q-32 0 -55.5 23t-23.5 56q0 32 23.5 55t55.5 23q33 0 56 -23zM-50.5 21q-20.5 21 -20.5 49q0 29 20.5 48.5t49.5 19.5h71q16 0 26.5 11t10.5 26v317h138v-317q0 -47 -23.5 -87.5t-64 -64t-88.5 -23.5h-70q-29 0 -49.5 21z
" />
    <glyph glyph-name="uniFEE8" unicode="&#x646;" horiz-adv-x="345" arabic-form="medial" 
d="M226 630q23 -23 23 -55t-23 -55.5t-56 -23.5q-32 0 -55.5 23.5t-23.5 55.5t23.5 55t55.5 23q33 0 56 -23zM396 118q20 -20 20 -48q0 -30 -20.5 -50t-49.5 -20h-35q-75 0 -134 51q-25 -24 -57 -37.5t-68 -13.5h-51q-31 0 -51.5 19.5t-20.5 49.5t20.5 49.5t51.5 19.5h35
q26 0 44.5 19t18.5 45v191h140v-192q4 -26 24.5 -44.5t47.5 -18.5h36q29 0 49 -20z" />
    <glyph glyph-name="uniFEEA" unicode="&#x647;" horiz-adv-x="631" arabic-form="final" 
d="M682 118.5q20 -19.5 21 -48.5q0 -28 -20 -48.5t-49 -21.5h-56q-38 0 -72.5 16.5t-59.5 45.5q-31 -29 -72 -45.5t-86 -16.5q-65 0 -121.5 31.5t-90 86t-33.5 118.5v20q0 70 31.5 124t87.5 83.5t126 29.5h248l1 -314q0 -21 9.5 -31t31.5 -10h55q29 0 49 -19.5zM366 170.5
q32 32.5 32 78.5v105h-110q-44 0 -76.5 -26t-32.5 -72v-14q0 -43 32.5 -73.5t76.5 -30.5q46 0 78 32.5z" />
    <glyph glyph-name="uniFEEB" unicode="&#x647;" horiz-adv-x="784" arabic-form="initial" 
d="M558 554q80 -59 126 -152t46 -207v-62q0 -36 -18 -66.5t-48.5 -48.5t-65.5 -18h-608v138h110q-14 21 -23 51t-9 58q0 60 31.5 106.5t85 72.5t116.5 26q66 0 120.5 -33t85.5 -90t31 -124v-19q0 -25 -6 -48h41q8 0 14 5.5t6 13.5v38q0 78 -29.5 142t-82.5 105.5t-123 53.5
q-59 10 -150 10v136h25q61 -1 82 -2.5t64 -8.5q99 -18 179 -77zM235.5 290.5q-29.5 -23.5 -29.5 -62.5q0 -26 12 -46.5t30.5 -32t36.5 -11.5h89q11 0 19 7.5t8 18.5v54q0 21 -13 43.5t-36 37.5t-51 15q-36 0 -65.5 -23.5z" />
    <glyph glyph-name="uniFEEC" unicode="&#x647;" horiz-adv-x="677" arabic-form="medial" 
d="M687 138v-138h-87v-12q0 -97 -66 -153t-183 -56q-62 0 -116.5 27t-91.5 74.5t-50 107.5l-1 12h-102v138h95v87q0 72 35 134t94.5 98.5t128.5 36.5q50 0 95.5 -18t83.5 -53q38 -36 58.5 -85t20.5 -101q0 -53 -22 -99h108zM224 138h88q57 0 105 21.5t48 78.5
q0 25 -9.5 47.5t-28.5 38.5q-31 31 -83 31q-32 0 -59.5 -17.5t-44 -47.5t-16.5 -65v-87zM431.5 -55.5q30.5 29.5 30.5 73.5v11q-66 -29 -150 -29h-78l3 -8q13 -34 44 -55.5t70 -21.5q50 0 80.5 29.5z" />
    <glyph glyph-name="uniFEEE" unicode="&#x648;" horiz-adv-x="598" arabic-form="final" 
d="M608 0h-86q-9 -93 -76 -155q-39 -37 -83 -55.5t-105 -25t-163 -5.5l1 137q115 0 168.5 9t89.5 41q16 15 24 45l2 9h-91q-67 0 -123.5 33.5t-89.5 91t-33 125.5q0 66 33 122t89.5 88.5t123.5 32.5h234v-355h85v-138zM384 354h-95q-45 0 -77 -30t-32 -74q0 -47 32 -79.5
t77 -32.5h95v216z" />
    <glyph glyph-name="uniFEF0" unicode="&#x649;" horiz-adv-x="879" arabic-form="final" 
d="M929 119q21 -19 21 -48t-21 -50t-50 -21q-22 0 -57 5q9 -17 9 -39q0 -56 -28 -103t-75.5 -74.5t-102.5 -27.5h-303q-76 0 -140.5 38t-102.5 102.5t-38 140.5v191h139v-191q0 -39 19 -72t52 -52t71 -19h303q27 0 47 20t20 47q0 24 -14.5 44t-39.5 27l-166 68l61 126
q57 -23 115 -49l19 -8q101 -36 212 -36q29 0 50 -19z" />
    <glyph glyph-name="uniFEF2" unicode="&#x64a;" horiz-adv-x="879" arabic-form="final" 
d="M929 119q21 -19 21 -48t-21 -50t-50 -21q-22 0 -57 5q9 -17 9 -39q0 -56 -28 -103t-75.5 -74.5t-102.5 -27.5h-303q-76 0 -140.5 38t-102.5 102.5t-38 140.5v191h139v-191q0 -39 19 -72t52 -52t71 -19h303q27 0 47 20t20 47q0 24 -14.5 44t-39.5 27l-166 68l61 126
q57 -23 115 -49l19 -8q101 -36 212 -36q29 0 50 -19zM419.5 -324q23.5 -23 23.5 -55t-23.5 -55.5t-56.5 -23.5q-32 0 -55 23.5t-23 55.5t23 55t55 23q33 0 56.5 -23zM620.5 -324q23.5 -23 23.5 -55t-23.5 -55.5t-55.5 -23.5q-33 0 -56 23.5t-23 55.5t23 55t56 23
q32 0 55.5 -23z" />
    <glyph glyph-name="uniFEF3" unicode="&#x64a;" horiz-adv-x="401" arabic-form="initial" 
d="M-50.5 21q-20.5 21 -20.5 49q0 29 20.5 48.5t49.5 19.5h182q16 0 26.5 11t10.5 26v317h138v-317q0 -47 -23.5 -87.5t-64 -64t-88.5 -23.5h-181q-29 0 -49.5 21zM131 -98q23 -23 23 -55q0 -33 -23 -56t-56 -23q-32 0 -55.5 23t-23.5 56q0 32 23.5 55t55.5 23q33 0 56 -23z
M332 -98q23 -23 23 -55q0 -33 -23 -56t-56 -23q-32 0 -55.5 23t-23.5 56q0 32 23.5 55t55.5 23q33 0 56 -23z" />
    <glyph glyph-name="uniFEF4" unicode="&#x64a;" horiz-adv-x="432" arabic-form="medial" 
d="M483.5 118q20.5 -20 20.5 -48q0 -30 -20.5 -50t-49.5 -20h-80q-37 0 -71.5 13.5t-61.5 37.5q-54 -51 -125 -51h-95q-31 0 -51.5 19.5t-20.5 49.5t20.5 49.5t51.5 19.5h79q26 0 44.5 19t18.5 45v208h139v-209q5 -26 25.5 -44.5t46.5 -18.5h80q29 0 49.5 -20zM161.5 -98
q23.5 -23 23.5 -55q0 -33 -23.5 -56t-55.5 -23q-33 0 -56 23t-23 56q0 32 23 55t56 23q32 0 55.5 -23zM362.5 -98q23.5 -23 23.5 -55q0 -33 -23.5 -56t-55.5 -23q-33 0 -56 23t-23 56q0 32 23 55t56 23q32 0 55.5 -23z" />
    <glyph glyph-name=".notdef" horiz-adv-x="475" 
d="M390 -250h-302v950h302v-950zM160 636v-31h61v-35h-62v-31h157v31h-62v35h62v31h-156zM159 514v-99h157v32h-62v67h-95zM221 447h-31v35h31v-35zM159 389v-31h62v-35h-62v-31h95v66h62v31h-157zM285 332v-62h-126v-33h157v95h-31zM221 216v-53h33v22h31v-45h-95v76h-31
v-107h157v107h-95zM159 52v-107h157v107h-157zM285 -24h-95v45h95v-45zM159 -77v-31h66l-66 -45v-31h157v31h-97l67 45h30v31h-157z" />
    <glyph glyph-name=".null" horiz-adv-x="525" 
 />
    <glyph glyph-name="nonmarkingreturn" unicode="&#xd;" horiz-adv-x="224" 
 />
    <glyph glyph-name="space" unicode=" " horiz-adv-x="206" 
 />
    <glyph glyph-name="exclam" unicode="!" horiz-adv-x="316" 
d="M238 700l-12 -459h-135l-13 459h160zM90.5 153q25.5 25 67.5 25q44 0 69 -25t25 -68t-25 -69t-68 -26t-68.5 26t-25.5 70q0 42 25.5 67z" />
    <glyph glyph-name="quotedbl" unicode="&#x22;" horiz-adv-x="456" 
d="M198 714l-20 -287h-114l-20 287h154zM413 714l-21 -287h-114l-20 287h155z" />
    <glyph glyph-name="numbersign" unicode="#" horiz-adv-x="717" 
d="M535 290h100v-107h-121l-33 -168h-121l33 168h-135l-33 -168h-121l33 168h-98v107h118l25 121h-101v107h121l34 167h121l-33 -167h135l33 167h121l-33 -167h97v-107h-118zM303 411l-24 -121h135l24 121h-135z" />
    <glyph glyph-name="dollar" unicode="$" horiz-adv-x="603" 
d="M507.5 77q-61.5 -55 -170.5 -61v-66h-57v66q-85 6 -149.5 43t-96.5 98l98 80q25 -37 63 -59.5t85 -28.5v146l-47 11q-91 22 -137 69t-46 117q0 84 61.5 136t168.5 56v66h57v-67q75 -6 131 -36.5t85 -80.5l-98 -79q-45 57 -118 66v-135l57 -14q88 -22 131.5 -67.5
t43.5 -116.5q0 -88 -61.5 -143zM219 537.5q-21 -15.5 -21 -41.5q0 -23 17.5 -36.5t64.5 -27.5v124q-40 -3 -61 -18.5zM400.5 167.5q21.5 17.5 21.5 46.5q0 26 -19 41t-66 26v-134q42 3 63.5 20.5z" />
    <glyph glyph-name="percent" unicode="%" horiz-adv-x="900" 
d="M115 368.5q-43 23.5 -67.5 66t-24.5 95.5t24.5 95t67.5 65.5t97 23.5q53 0 96 -23.5t67.5 -65.5t24.5 -95t-24.5 -95.5t-67.5 -66t-96 -23.5q-54 0 -97 23.5zM750 700l-470 -700h-130l470 700h130zM267 471q21 22 21 59q0 36 -21 58t-55 22t-55 -22t-21 -58q0 -37 21 -59
t55 -22t55 22zM592 9.5q-43 23.5 -67.5 66t-24.5 95.5t24.5 95t67.5 65.5t96 23.5q54 0 97 -23.5t67.5 -65.5t24.5 -95t-24.5 -95.5t-67.5 -66t-97 -23.5q-53 0 -96 23.5zM743 112q21 22 21 59q0 36 -21 58t-55 22t-55 -22t-21 -58q0 -37 21 -59t55 -22t55 22z" />
    <glyph glyph-name="ampersand" unicode="&#x26;" horiz-adv-x="707" 
d="M292 -14q-74 0 -129.5 25.5t-85.5 70.5t-30 101q0 60 35 109t108 93q-73 85 -73 159q0 47 24.5 86t69.5 61.5t105 22.5q89 0 142.5 -45.5t53.5 -118.5q0 -55 -33 -102t-103 -88l101 -115q20 48 24 107h134q-15 -126 -66 -212l122 -140h-155l-45 52q-82 -66 -199 -66z
M264 494q12 -21 39 -50q40 23 58 45t18 47q0 26 -18 42.5t-46 16.5t-45.5 -16t-17.5 -42q0 -22 12 -43zM399 146l-131 149q-34 -20 -52 -45.5t-18 -54.5q0 -36 28 -57.5t77 -21.5q57 0 96 30z" />
    <glyph glyph-name="quotesingle" unicode="'" horiz-adv-x="242" 
d="M198 714l-20 -287h-114l-20 287h154z" />
    <glyph glyph-name="parenleft" unicode="(" horiz-adv-x="354" 
d="M101 78.5q-42 117.5 -42 233.5t42.5 234t115.5 205l116 -68q-59 -74 -92.5 -173t-33.5 -198t33 -198t93 -173l-116 -68q-74 88 -116 205.5z" />
    <glyph glyph-name="parenright" unicode=")" horiz-adv-x="354" 
d="M252.5 78q-42.5 -117 -116.5 -205l-115 68q59 75 92.5 174.5t33.5 196.5t-34 197.5t-92 173.5l115 68q74 -88 116.5 -206t42.5 -233q0 -117 -42.5 -234z" />
    <glyph glyph-name="asterisk" unicode="*" horiz-adv-x="468" 
d="M400 367l-87 -63l-80 121l-80 -120l-87 62l92 114l-140 38l33 102l135 -51l-6 145h107l-7 -146l137 51l33 -102l-141 -38z" />
    <glyph glyph-name="plus" unicode="+" horiz-adv-x="710" 
d="M425 250v-170h-140v170h-157v134h157v170h140v-170h158v-134h-158z" />
    <glyph glyph-name="comma" unicode="," horiz-adv-x="266" 
d="M227 144l-82 -302h-121l53 302h150z" />
    <glyph glyph-name="hyphen" unicode="-" horiz-adv-x="366" 
d="M332 351v-128h-298v128h298z" />
    <glyph glyph-name="period" unicode="." horiz-adv-x="284" 
d="M73 152.5q25 25.5 69 25.5t68.5 -25.5t24.5 -70.5q0 -42 -25 -67t-68 -25q-42 0 -68 25.5t-26 67.5q0 44 25 69.5z" />
    <glyph glyph-name="slash" unicode="/" horiz-adv-x="517" 
d="M515 740l-370 -834h-142l370 834h142z" />
    <glyph glyph-name="zero" unicode="0" horiz-adv-x="698" 
d="M195.5 31.5q-66.5 45.5 -103 128t-36.5 190.5t36.5 190.5t103 128t153.5 45.5t153.5 -45.5t103 -128t36.5 -190.5t-36.5 -190.5t-103 -128t-153.5 -45.5t-153.5 45.5zM447.5 187q37.5 62 37.5 163t-37.5 163t-98.5 62t-98.5 -62t-37.5 -163t37.5 -163t98.5 -62t98.5 62z
" />
    <glyph glyph-name="one" unicode="1" horiz-adv-x="424" 
d="M348 0h-151v543h-164v157h315v-700z" />
    <glyph glyph-name="two" unicode="2" horiz-adv-x="585" 
d="M35 0v112l253 237q56 51 78 84.5t22 64.5q0 35 -24 56t-64 21q-46 0 -85.5 -29t-66.5 -86l-121 71q35 87 106.5 135t165.5 48q72 0 127 -27t85.5 -74.5t30.5 -106.5q0 -55 -27 -104t-86 -104l-170 -159h290v-139h-514z" />
    <glyph glyph-name="three" unicode="3" horiz-adv-x="571" 
d="M503.5 293.5q33.5 -42.5 33.5 -103.5q0 -59 -31.5 -105.5t-90.5 -72.5t-138 -26q-80 0 -146 27t-112 80l85 102q70 -72 165 -72q54 0 85 23t31 62q0 37 -36.5 57.5t-108.5 20.5h-54v135h74q56 0 85.5 20.5t29.5 56.5q0 37 -26 58t-73 21q-88 0 -153 -79l-101 95
q44 58 110.5 89.5t148.5 31.5q114 0 180.5 -54t66.5 -144q0 -61 -31 -102.5t-91 -58.5q64 -19 97.5 -61.5z" />
    <glyph glyph-name="four" unicode="4" horiz-adv-x="615" 
d="M372 263v197h147v-197h83v-125h-83v-138h-147v138h-343v125l345 437l93 -68l-290 -369h195z" />
    <glyph glyph-name="five" unicode="5" horiz-adv-x="589" 
d="M499.5 391q61.5 -60 61.5 -164q0 -114 -73.5 -177.5t-202.5 -63.5q-76 0 -139 26t-117 80l84 104q76 -73 170 -73q57 0 91.5 27t34.5 74q0 46 -31.5 73.5t-83.5 27.5q-63 0 -115 -40h-109v415h447v-134h-307v-145q53 30 123 30q105 0 166.5 -60z" />
    <glyph glyph-name="six" unicode="6" horiz-adv-x="596" 
d="M443.5 451q61.5 -30 95.5 -84.5t34 -126.5q0 -75 -34.5 -131.5t-96.5 -87.5t-143 -31t-143.5 31t-96.5 87.5t-34 131.5q0 53 18.5 110t70.5 143l128 207h168l-153 -226q20 7 45 7q80 0 141.5 -30zM387.5 144q33.5 35 33.5 93q0 57 -33 92t-86 35q-56 0 -91 -35t-35 -92
q0 -58 34 -93t89 -35t88.5 35z" />
    <glyph glyph-name="seven" unicode="7" horiz-adv-x="533" 
d="M517 576l-275 -576h-169l277 561h-334v139h501v-124z" />
    <glyph glyph-name="eight" unicode="8" horiz-adv-x="621" 
d="M549 294q37 -47 37 -104q0 -60 -34.5 -106.5t-97 -72t-144.5 -25.5t-144 25.5t-96.5 72t-34.5 106.5q0 57 37 103.5t98 66.5q-52 19 -83 62t-31 95q0 58 32 103t89.5 69.5t132.5 24.5q76 0 133.5 -24.5t89.5 -69.5t32 -103q0 -52 -31 -95t-83 -62q61 -19 98 -66z
M232.5 438q29.5 -24 77.5 -24q49 0 78.5 24t29.5 64t-29.5 64.5t-78.5 24.5q-48 0 -77.5 -24.5t-29.5 -64.5t29.5 -64zM397 139.5q33 25.5 33 66.5t-33 66.5t-87 25.5q-53 0 -86 -25.5t-33 -66.5t33 -66.5t86 -25.5q54 0 87 25.5z" />
    <glyph glyph-name="nine" unicode="9" horiz-adv-x="602" 
d="M152.5 253q-61.5 30 -95.5 84.5t-34 126.5q0 75 34.5 131.5t96.5 87.5t143 31t143 -31t96.5 -87.5t34.5 -131.5q0 -53 -18.5 -111t-70.5 -142l-131 -207h-168l156 226q-20 -7 -46 -7q-79 0 -140.5 30zM208 559q-34 -35 -34 -92t33 -92t87 -35q57 0 91.5 35t34.5 92
q0 58 -33.5 92.5t-89.5 34.5q-55 0 -89 -35z" />
    <glyph glyph-name="colon" unicode=":" horiz-adv-x="289" 
d="M77 343q-26 26 -26 70q0 46 26 71.5t70 25.5q45 0 70.5 -25.5t25.5 -71.5q0 -44 -25.5 -70t-70.5 -26q-44 0 -70 26zM77 14q-26 26 -26 70q0 45 26 70.5t70 25.5q45 0 70.5 -25.5t25.5 -70.5q0 -44 -25.5 -70t-70.5 -26q-44 0 -70 26z" />
    <glyph glyph-name="semicolon" unicode=";" horiz-adv-x="283" 
d="M80 482.5q26 24.5 70 24.5q43 0 67 -25.5t24 -70.5q0 -42 -25.5 -66.5t-69.5 -24.5q-42 0 -67 26t-25 70q0 42 26 66.5zM227 144l-82 -302h-121l53 302h150z" />
    <glyph glyph-name="less" unicode="&#x3c;" horiz-adv-x="710" 
d="M326 317l257 -94v-140l-455 170v128l455 170v-140z" />
    <glyph glyph-name="equal" unicode="=" horiz-adv-x="710" 
d="M583 494v-134h-455v134h455zM583 274v-134h-455v134h455z" />
    <glyph glyph-name="greater" unicode="&#x3e;" horiz-adv-x="710" 
d="M583 253l-455 -170v140l256 94l-256 94v140l455 -170v-128z" />
    <glyph glyph-name="question" unicode="?" horiz-adv-x="471" 
d="M156 349q5 19 19.5 36t52.5 49l44 37q37 32 37 62q0 24 -17 37.5t-47 13.5q-75 0 -126 -87l-106 72q34 68 95 106.5t140 38.5q59 0 105.5 -22t73 -61.5t26.5 -92.5q0 -42 -19.5 -77.5t-66.5 -74.5l-39 -32q-26 -22 -32.5 -34t-6.5 -38v-41h-140v50q2 39 7 58zM151.5 153
q25.5 25 67.5 25q44 0 69 -25t25 -68t-25 -69t-68 -26t-68.5 26t-25.5 70q0 42 25.5 67z" />
    <glyph glyph-name="at" unicode="@" horiz-adv-x="977" 
d="M724 621.5q101 -51.5 159.5 -143.5t57.5 -206q0 -76 -25.5 -136t-71.5 -93.5t-103 -33.5q-51 0 -91.5 25.5t-54.5 67.5q-21 -46 -55.5 -67.5t-88.5 -21.5q-95 0 -149.5 57.5t-54.5 155.5q0 63 25.5 111.5t72.5 75.5t108 27q44 0 79 -18.5t47 -47.5v56h111v-257
q3 -27 16 -41t33 -14q33 0 54.5 37t21.5 104q0 89 -40 155t-111 101t-161 35q-97 0 -172 -41t-117 -115t-42 -169t42 -167.5t117.5 -112.5t174.5 -40q52 0 99 11t81 30l54 -107q-44 -26 -105.5 -40.5t-130.5 -14.5q-131 -1 -236.5 55.5t-165 157t-58.5 226.5
q-1 127 60 230.5t167 162t232 56.5q120 1 221 -50.5zM542 150.5q28 30.5 28 80.5q0 49 -28 79.5t-71 30.5q-44 0 -71 -31t-27 -79q0 -50 27 -80.5t71 -30.5q43 0 71 30.5z" />
    <glyph glyph-name="A" unicode="A" horiz-adv-x="714" 
d="M217 123l-45 -123h-164l263 700h163l272 -700h-164l-46 123h-279zM357 550l-92 -293h184z" />
    <glyph glyph-name="B" unicode="B" horiz-adv-x="677" 
d="M641 203q0 -102 -77 -152.5t-194 -50.5h-295v700h302q114 0 175 -45t61 -132q0 -115 -104 -153q132 -38 132 -167zM371 418q35 0 57.5 22.5t22.5 53.5t-23 54t-57 23h-143v-152zM451 151q26 22 26 63q0 40 -26.5 62t-75.5 22h-147v-169h147q50 0 76 22z" />
    <glyph glyph-name="C" unicode="C" horiz-adv-x="734" 
d="M213 34q-83 48 -125.5 130.5t-42.5 184.5t43.5 185t126.5 131t197 48q98 0 176 -46t125 -131l-126 -74q-25 48 -72 77t-103 29q-63 0 -110 -29t-71.5 -78.5t-24.5 -111.5t24 -111.5t70.5 -78.5t111.5 -29q57 0 104 29.5t73 78.5l124 -78q-43 -86 -121.5 -130t-179.5 -44
q-116 0 -199 48z" />
    <glyph glyph-name="D" unicode="D" horiz-adv-x="728" 
d="M524 653.5q76 -46.5 118.5 -126.5t42.5 -177t-42.5 -177t-118.5 -126.5t-172 -46.5h-277v700h277q96 0 172 -46.5zM433 170q43 27 66.5 74.5t23.5 105.5t-23.5 105.5t-66.5 74.5t-100 27h-104v-414h104q57 0 100 27z" />
    <glyph glyph-name="E" unicode="E" horiz-adv-x="618" 
d="M564 0h-489v700h479v-139h-325v-140h301v-138h-301v-143h335v-140z" />
    <glyph glyph-name="F" unicode="F" horiz-adv-x="575" 
d="M230 386h286v-142h-286v-244h-155v700h461v-139h-306v-175z" />
    <glyph glyph-name="G" unicode="G" horiz-adv-x="765" 
d="M584 25q-79 -39 -173 -39q-117 0 -199.5 48t-124.5 130t-42 184q0 103 43.5 186t126.5 131t196 48q87 0 162 -37.5t126 -102.5l-126 -89q-28 40 -70 62t-92 22q-63 0 -110 -29t-71.5 -79t-24.5 -112q0 -61 24 -110.5t70.5 -78.5t111.5 -29q107 0 163 65v81h-146v126h288
l-1 -268q-52 -70 -131 -109z" />
    <glyph glyph-name="H" unicode="H" horiz-adv-x="748" 
d="M673 0h-154v263h-289v-263h-155v700h155v-294h289v294h154v-700z" />
    <glyph glyph-name="I" unicode="I" horiz-adv-x="309" 
d="M232 700v-700h-155v700h155z" />
    <glyph glyph-name="J" unicode="J" horiz-adv-x="595" 
d="M153 15q-57 31 -93 83t-40 112l152 48v-21q0 -42 29.5 -72t72.5 -30q42 0 71.5 30t29.5 72v463h155v-459q0 -70 -34.5 -129t-93.5 -93.5t-128 -34.5q-64 0 -121 31z" />
    <glyph glyph-name="K" unicode="K" horiz-adv-x="687" 
d="M383 349l300 -349h-191l-205 244l-57 -60v-184h-155v700h155v-318l267 318h187z" />
    <glyph glyph-name="L" unicode="L" horiz-adv-x="576" 
d="M551 0h-476v700h155v-557h321v-143z" />
    <glyph glyph-name="M" unicode="M" horiz-adv-x="934" 
d="M859 0h-153v484l-185 -484h-116l-177 484v-484h-153v700h200l188 -524l201 524h195v-700z" />
    <glyph glyph-name="N" unicode="N" horiz-adv-x="773" 
d="M698 0h-145l-325 448v-448h-153v700h145l326 -449v449h152v-700z" />
    <glyph glyph-name="O" unicode="O" horiz-adv-x="826" 
d="M221.5 32q-83.5 46 -130 128.5t-46.5 189.5t46.5 189.5t130 128.5t191.5 46t191.5 -46t130 -128.5t46.5 -189.5t-46.5 -189.5t-130 -128.5t-191.5 -46t-191.5 46zM521 158.5q47 27.5 73.5 77.5t26.5 114t-26.5 114t-73.5 77.5t-108 27.5t-108 -27.5t-73.5 -77.5
t-26.5 -114t26.5 -114t73.5 -77.5t108 -27.5t108 27.5z" />
    <glyph glyph-name="P" unicode="P" horiz-adv-x="652" 
d="M505.5 669q53.5 -31 83 -86.5t29.5 -127.5t-29.5 -127.5t-83 -86.5t-122.5 -31h-153v-210h-155v700h308q69 0 122.5 -31zM432 376.5q26 26.5 26 78.5q0 46 -27 76t-69 30h-132v-211h132q44 0 70 26.5z" />
    <glyph glyph-name="Q" unicode="Q" horiz-adv-x="824" 
d="M752 208.5q-29 -66.5 -81 -116.5l62 -77l-102 -81l-68 84q-72 -32 -151 -32q-116 0 -199.5 48t-126.5 130.5t-43 185.5q0 101 44.5 184t128 131.5t196.5 48.5q100 0 185 -49t134.5 -132.5t49.5 -182.5q0 -75 -29 -141.5zM465 141l-65 81l101 81l72 -89q22 28 34.5 63
t12.5 73q0 60 -28 110t-75.5 79.5t-104.5 29.5q-63 0 -110 -29t-72 -79t-25 -111t24.5 -111t71.5 -79.5t111 -29.5q26 0 53 11z" />
    <glyph glyph-name="R" unicode="R" horiz-adv-x="657" 
d="M228 1h-155v699h322q63 0 116 -31t84 -84t31 -116q0 -76 -43.5 -135t-112.5 -81l-16 -4l172 -248l-185 -1l-155 238h-58v-237zM439 404q27 27 27 65t-27 65t-65 27h-146v-184h146q38 0 65 27z" />
    <glyph glyph-name="S" unicode="S" horiz-adv-x="636" 
d="M140 26.5q-75 40.5 -114 114.5l105 84q69 -100 193 -100q58 0 92 20t34 56q0 27 -22 44t-75 30l-110 27q-198 48 -198 203q0 62 32 109.5t92.5 73.5t143.5 26q93 0 165.5 -37.5t110.5 -99.5l-105 -85q-69 84 -172 84q-54 0 -82.5 -18t-28.5 -50q0 -24 22.5 -41t78.5 -30
l114 -27q190 -47 190 -201q0 -66 -35.5 -116.5t-101 -78.5t-150.5 -28q-104 0 -179 40.5z" />
    <glyph glyph-name="T" unicode="T" horiz-adv-x="607" 
d="M20 557v143h568v-143h-207v-557h-154v557h-207z" />
    <glyph glyph-name="U" unicode="U" horiz-adv-x="728" 
d="M208 26.5q-68 38.5 -105 106.5t-37 152v415h156v-424q0 -65 36.5 -104t106.5 -39q74 0 108.5 38.5t34.5 104.5v424h155v-415q0 -85 -35.5 -152.5t-103 -106t-159.5 -38.5q-89 0 -157 38.5z" />
    <glyph glyph-name="V" unicode="V" horiz-adv-x="690" 
d="M435 0h-180l-247 700h166l171 -518l170 518h166z" />
    <glyph glyph-name="W" unicode="W" horiz-adv-x="1064" 
d="M1047 700l-206 -700h-171l-130 401l-146 -401h-170l-207 700h165l136 -482l183 482h77l168 -483l135 483h166z" />
    <glyph glyph-name="X" unicode="X" horiz-adv-x="649" 
d="M327 229l-139 -229h-179l223 355l-206 345h174l127 -225l129 225h174l-209 -346l219 -354h-178z" />
    <glyph glyph-name="Y" unicode="Y" horiz-adv-x="647" 
d="M401 274v-274h-156v274l-250 426h177l151 -278l152 278h177z" />
    <glyph glyph-name="Z" unicode="Z" horiz-adv-x="611" 
d="M571 0h-531v116l324 445h-318v139h521v-116l-325 -445h329v-139z" />
    <glyph glyph-name="bracketleft" unicode="[" horiz-adv-x="386" 
d="M221 16h134v-132h-280v856h280v-131h-134v-593z" />
    <glyph glyph-name="backslash" unicode="\" horiz-adv-x="517" 
d="M3 740h142l370 -834h-142z" />
    <glyph glyph-name="bracketright" unicode="]" horiz-adv-x="386" 
d="M311 -116h-280v132h135v593h-135v131h280v-856z" />
    <glyph glyph-name="asciicircum" unicode="^" horiz-adv-x="600" 
d="M301 543l-118 -194h-160l210 327h134l211 -327h-160z" />
    <glyph glyph-name="underscore" unicode="_" horiz-adv-x="439" 
d="M439 -45v-107h-439v107h439z" />
    <glyph glyph-name="grave" unicode="`" horiz-adv-x="620" 
d="M89 750h173l115 -169h-143z" />
    <glyph glyph-name="a" unicode="a" horiz-adv-x="568" 
d="M386 75q-19 -41 -61.5 -64t-103.5 -23q-89 0 -137 45.5t-48 120.5q0 78 60.5 117t163.5 39q51 0 106 -9l-1 22q0 36 -27.5 54t-66.5 18q-35 0 -68.5 -15t-58.5 -41l-78 85q44 44 100 66t117 22q65 0 117 -27.5t82 -76t30 -108.5v-300h-126v75zM286 228q-105 0 -105 -65
q0 -67 78 -67q51 0 79.5 27t28.5 75v22q-48 8 -81 8z" />
    <glyph glyph-name="b" unicode="b" horiz-adv-x="638" 
d="M545 441q61 -70 61 -187q0 -123 -59 -193.5t-171 -70.5q-58 0 -107.5 25t-69.5 68v-83h-134v700h146v-280q5 19 26.5 40t57 36t79.5 15q110 0 171 -70zM421.5 157q33.5 37 33.5 97q0 59 -32.5 95.5t-85.5 36.5q-56 0 -91 -36.5t-35 -95.5t33.5 -96.5t88.5 -37.5t88.5 37z
" />
    <glyph glyph-name="c" unicode="c" horiz-adv-x="547" 
d="M163.5 20q-60.5 34 -94 95.5t-33.5 139.5t33.5 139.5t94.5 95.5t139 34q76 0 136 -32t92 -89l-109 -77q-43 63 -114 63q-55 0 -88 -36.5t-33 -97.5t33 -97.5t88 -36.5q71 0 114 64l110 -77q-32 -58 -92.5 -90t-136.5 -32q-79 0 -139.5 34z" />
    <glyph glyph-name="d" unicode="d" horiz-adv-x="638" 
d="M440 0v83q-20 -43 -69 -68t-107 -25q-113 0 -171.5 70t-58.5 194q0 117 61 187t171 70q40 0 75.5 -15t59 -36.5t28.5 -39.5v280h146v-700h-135zM394.5 157.5q34.5 37.5 34.5 96.5t-35 95.5t-92 36.5q-52 0 -84.5 -36.5t-32.5 -95.5q0 -61 33.5 -97.5t88.5 -36.5
q53 0 87.5 37.5z" />
    <glyph glyph-name="e" unicode="e" horiz-adv-x="603" 
d="M224 139.5q39 -28.5 92 -28.5q47 0 88 14.5t64 38.5l81 -88q-32 -40 -97 -63t-142 -23q-82 0 -144.5 33t-97 92.5t-34.5 137.5q0 75 34.5 133.5t96 91t139.5 32.5q124 0 194 -66.5t70 -187.5q0 -28 -2 -43h-381q0 -45 39 -73.5zM243.5 386.5q-27.5 -14.5 -43.5 -37
t-17 -45.5h237q-1 41 -32 69t-84 28q-33 0 -60.5 -14.5z" />
    <glyph glyph-name="f" unicode="f" horiz-adv-x="411" 
d="M20 500h96v59q0 71 45 106t110 35h124v-130h-113q-9 0 -13 -6t-4 -16v-48h130v-131h-130v-369h-149v369h-96v131z" />
    <glyph glyph-name="g" unicode="g" horiz-adv-x="641" 
d="M542.5 -85.5q-35.5 -61.5 -99.5 -95.5t-147 -34q-72 0 -138.5 24t-106.5 63l65 107q33 -29 79 -46.5t90 -17.5q66 0 109 36.5t43 118.5v30q-21 -42 -60.5 -67t-95.5 -25q-76 0 -131.5 32t-84.5 90.5t-29 135.5q0 112 60 179t170 67q57 0 96 -18.5t58 -40t23 -33.5v80h135
v-445q0 -79 -35.5 -140.5zM396 162.5q35 34.5 35 92.5q0 67 -36.5 98.5t-85.5 31.5q-55 0 -88.5 -36t-33.5 -94q0 -55 32 -91t86 -36q56 0 91 34.5z" />
    <glyph glyph-name="h" unicode="h" horiz-adv-x="606" 
d="M498 461q49 -49 49 -127v-334h-150v296q0 41 -24.5 67t-63.5 26q-42 0 -69.5 -29t-27.5 -75v-285h-149v700h149v-258q18 31 61 49.5t97 18.5q79 0 128 -49z" />
    <glyph glyph-name="i" unicode="i" horiz-adv-x="278" 
d="M75.5 608q-26.5 26 -26.5 63t26.5 63t63.5 26q36 0 62 -26t26 -63t-26 -63t-62 -26q-37 0 -63.5 26zM213 500v-500h-149v500h149z" />
    <glyph glyph-name="j" unicode="j" horiz-adv-x="278" 
d="M72.5 606q-25.5 24 -25.5 64t25.5 63.5t66.5 23.5t66.5 -23.5t25.5 -63.5t-25.5 -64t-66.5 -24t-66.5 24zM52 -57q12 12 12 37v520h149v-548q0 -74 -41.5 -113t-122.5 -39h-93v131h59q25 0 37 12z" />
    <glyph glyph-name="k" unicode="k" horiz-adv-x="570" 
d="M249 172l-37 -43v-129h-149v700h149v-400l184 200h172l-207 -232l208 -268h-176z" />
    <glyph glyph-name="l" unicode="l" horiz-adv-x="269" 
d="M59 700h149v-700h-149v700z" />
    <glyph glyph-name="m" unicode="m" horiz-adv-x="916" 
d="M774 487q39 -25 61 -68.5t22 -97.5v-321h-149v280q0 43 -24 71t-60 28q-40 0 -64.5 -28.5t-24.5 -70.5v-280h-149v280q0 43 -25 71t-62 28q-39 0 -62.5 -28.5t-23.5 -70.5v-280h-149v500h145v-72q21 37 63.5 60.5t92.5 23.5q52 0 94 -26.5t58 -68.5q20 42 66 68.5
t102 26.5q50 0 89 -25z" />
    <glyph glyph-name="n" unicode="n" horiz-adv-x="605" 
d="M458 488.5q41 -23.5 64.5 -63.5t23.5 -88v-337h-149v286q0 38 -27 65t-65 28q-39 0 -66 -27.5t-27 -65.5l1 -286h-150v500h146v-74q21 39 65 62.5t95 23.5q48 0 89 -23.5z" />
    <glyph glyph-name="o" unicode="o" horiz-adv-x="618" 
d="M165.5 21.5q-62.5 33.5 -97 94t-34.5 139.5q0 75 35 133.5t98.5 91t145.5 32.5q80 0 141.5 -32.5t95.5 -91t34 -133.5q0 -78 -34.5 -139t-97 -94.5t-143.5 -33.5t-143.5 33.5zM398.5 153.5q34.5 37.5 34.5 98.5q0 60 -33.5 98t-86.5 38q-57 0 -92.5 -37.5t-35.5 -98.5
t34.5 -98.5t89.5 -37.5t89.5 37.5z" />
    <glyph glyph-name="p" unicode="p" horiz-adv-x="640" 
d="M545.5 440q58.5 -70 58.5 -194q0 -116 -61 -186t-171 -70q-44 0 -79 15t-56.5 36t-27.5 39v-254h-146v674h135v-83q20 43 69 68t107 25q113 0 171.5 -70zM420.5 150.5q32.5 36.5 32.5 95.5q0 61 -33.5 98t-88.5 37q-54 0 -88 -37.5t-34 -97.5q0 -59 34.5 -95.5
t91.5 -36.5q53 0 85.5 36.5z" />
    <glyph glyph-name="q" unicode="q" horiz-adv-x="640" 
d="M431 -197v277q-5 -18 -26.5 -39t-57 -36t-79.5 -15q-110 0 -171 70t-61 186q0 124 58.5 194t171.5 70q58 0 107.5 -25t69.5 -68v83h134v-697h-146zM396.5 150.5q34.5 36.5 34.5 95.5q0 60 -34 97.5t-88 37.5q-55 0 -88.5 -37t-33.5 -98q0 -59 33 -95.5t85 -36.5
q57 0 91.5 36.5z" />
    <glyph glyph-name="r" unicode="r" horiz-adv-x="423" 
d="M402 506l-1 -141q-23 1 -70 1q-60 0 -89.5 -31t-29.5 -96v-239h-149v500h146v-82q20 43 60 68.5t90 25.5q22 0 43 -6z" />
    <glyph glyph-name="s" unicode="s" horiz-adv-x="516" 
d="M126 8.5q-62 22.5 -100 62.5l64 102q33 -29 80 -47t93 -18q35 0 53.5 11t18.5 29q0 16 -13.5 25.5t-43.5 17.5l-90 22q-74 18 -108.5 53.5t-34.5 90.5q0 77 58 122t158 45q66 0 123.5 -20t92.5 -55l-66 -101q-77 54 -150 54q-33 0 -50.5 -10.5t-17.5 -28.5q0 -14 13 -23
t42 -16l90 -22q77 -19 112 -54.5t35 -91.5q0 -79 -59.5 -124.5t-164.5 -45.5q-73 0 -135 22.5z" />
    <glyph glyph-name="t" unicode="t" horiz-adv-x="429" 
d="M176.5 18q-30.5 18 -48.5 49t-18 67l1 235h-92v131h92v161h149v-161h133v-131h-133v-223q0 -5 3.5 -9t8.5 -4h123v-133h-152q-36 0 -66.5 18z" />
    <glyph glyph-name="u" unicode="u" horiz-adv-x="602" 
d="M393 0v74q-22 -40 -66 -64t-95 -24q-48 0 -88.5 23.5t-64 64.5t-23.5 89v337h149v-286q0 -38 27 -65t65 -28q38 0 65.5 27.5t27.5 65.5l-1 286h149v-500h-145z" />
    <glyph glyph-name="v" unicode="v" horiz-adv-x="561" 
d="M362 0h-163l-191 500h160l113 -320l112 320h160z" />
    <glyph glyph-name="w" unicode="w" horiz-adv-x="862" 
d="M694 0h-166l-97 316l-97 -316h-166l-156 511h153l94 -335l104 335h136l104 -335l94 335h153z" />
    <glyph glyph-name="x" unicode="x" horiz-adv-x="560" 
d="M280 160l-103 -160h-167l174 261l-164 239h166l94 -139l94 139h165l-164 -240l174 -260h-167z" />
    <glyph glyph-name="y" unicode="y" horiz-adv-x="562" 
d="M261.5 -168.5q-48.5 -31.5 -130.5 -31.5h-112v133h86q45 0 66 11t31 40l9 23l-201 504h160l116 -332l108 332h160l-218 -577q-26 -71 -74.5 -102.5z" />
    <glyph glyph-name="z" unicode="z" horiz-adv-x="500" 
d="M463 0h-428v98l232 286h-224v127h418v-98l-233 -287h235v-126z" />
    <glyph glyph-name="braceleft" unicode="{" horiz-adv-x="384" 
d="M224 354.5q-23 -31.5 -71 -42.5q48 -11 71 -42.5t23 -88.5v-102q0 -35 13.5 -49t48.5 -14h44v-132h-94q-86 0 -122 34.5t-36 116.5v146q0 35 -15.5 50t-50.5 15h-6v132h6q35 0 50.5 15.5t15.5 49.5v146q0 82 36 116.5t122 34.5h94v-131h-44q-34 0 -48 -14.5t-14 -49.5
v-102q0 -57 -23 -88.5z" />
    <glyph glyph-name="bar" unicode="|" horiz-adv-x="315" 
d="M220 765v-865h-125v865h125z" />
    <glyph glyph-name="braceright" unicode="}" horiz-adv-x="384" 
d="M349 246q-35 0 -50.5 -15t-15.5 -50v-146q0 -82 -36 -116.5t-122 -34.5h-94v132h44q35 0 48.5 14t13.5 49v102q0 57 23 88.5t71 42.5q-48 11 -71 42.5t-23 88.5v102q0 35 -14 49.5t-48 14.5h-44v131h94q86 0 122 -34.5t36 -116.5v-146q0 -34 15.5 -49.5t50.5 -15.5h6
v-132h-6z" />
    <glyph glyph-name="asciitilde" unicode="~" horiz-adv-x="710" 
d="M191 265.5q-28 -10.5 -63 -34.5v133q59 44 125 44q24 0 49.5 -7t58.5 -20q35 -12 56 -18t41 -6q69 0 125 46v-133q-32 -23 -61 -34t-63 -11q-23 0 -46 6.5t-57 19.5q-40 14 -60.5 19.5t-43.5 5.5q-33 0 -61 -10.5z" />
    <glyph glyph-name="uni00A0" unicode="&#xa0;" horiz-adv-x="224" 
 />
    <glyph glyph-name="exclamdown" unicode="&#xa1;" horiz-adv-x="316" 
d="M226.5 358q-25.5 -25 -69.5 -25q-42 0 -67 26t-25 70q0 43 26 67t70 24q42 0 66.5 -25t24.5 -68q0 -44 -25.5 -69zM238 -190h-160l13 459h135z" />
    <glyph glyph-name="cent" unicode="&#xa2;" horiz-adv-x="547" 
d="M454 26.5q-49 -31.5 -113 -38.5v-119h-52v117q-75 3 -132.5 38t-89 95t-31.5 136t31.5 135.5t89 95t132.5 38.5v90h52v-92q63 -7 112 -38t78 -81l-109 -77q-32 47 -81 59v-260q50 12 81 60l110 -77q-29 -50 -78 -81.5zM214.5 164.5q27.5 -35.5 74.5 -42.5v266
q-47 -7 -74.5 -42.5t-27.5 -90.5t27.5 -90.5z" />
    <glyph glyph-name="sterling" unicode="&#xa3;" horiz-adv-x="546" 
d="M518 0h-492v133h70v158h-66v107h66v101q0 103 54.5 159t157.5 56q148 0 216 -118l-113 -79q-20 29 -41.5 42t-49.5 13q-73 0 -73 -84v-90h216v-107h-216v-158h271v-133z" />
    <glyph glyph-name="currency" unicode="&#xa4;" horiz-adv-x="554" 
d="M457 236l63 -62l-66 -67l-67 66q-47 -26 -109 -26t-110 27l-67 -67l-67 67l63 62q-32 52 -32 113t32 113l-62 62l66 68l67 -67q49 26 110 26q62 0 109 -26l67 67l66 -68l-62 -62q31 -49 31 -113t-32 -113zM334.5 291.5q21.5 22.5 21.5 57.5q0 36 -21.5 58t-56.5 22
q-37 0 -58.5 -22t-21.5 -58t22 -58t58 -22q35 0 56.5 22.5z" />
    <glyph glyph-name="yen" unicode="&#xa5;" horiz-adv-x="608" 
d="M551 371v-87h-171v-74h171v-88h-171v-122h-152v122h-170v88h170v74h-170v87h139l-188 329h160l135 -248l135 248h160l-188 -329h140z" />
    <glyph glyph-name="brokenbar" unicode="&#xa6;" horiz-adv-x="315" 
d="M220 765v-361h-125v361h125zM220 253v-353h-125v353h125z" />
    <glyph glyph-name="section" unicode="&#xa7;" horiz-adv-x="556" 
d="M514 45q0 -82 -60.5 -128.5t-171.5 -46.5q-76 0 -140 22t-103 62l65 102q33 -29 80.5 -45.5t100.5 -16.5q41 0 59.5 11.5t18.5 34.5q0 21 -15 34.5t-49 20.5l-89 22q-158 38 -158 151q0 47 25.5 83t71.5 52q-47 21 -69 54t-22 81q0 82 60 129t168 47q70 0 127.5 -20
t92.5 -56l-66 -100q-74 51 -154 51q-77 0 -77 -47q0 -20 14 -32t46 -19l90 -22q81 -19 119.5 -56.5t38.5 -95.5q0 -48 -25 -83.5t-70 -52.5q92 -42 92 -136zM213 250q17 -17 56 -25l28 -4q36 -2 56 17.5t20 52.5q0 28 -17 43.5t-57 26.5l-27 3q-36 3 -56 -17t-20 -52
q0 -28 17 -45z" />
    <glyph glyph-name="dieresis" unicode="&#xa8;" horiz-adv-x="620" 
d="M123.5 606.5q-24.5 24.5 -24.5 63.5q0 38 24.5 62.5t64.5 24.5t64.5 -24.5t24.5 -62.5q0 -39 -24.5 -63.5t-64.5 -24.5t-64.5 24.5zM367.5 606.5q-24.5 24.5 -24.5 63.5q0 38 24.5 62.5t64.5 24.5t64.5 -24.5t24.5 -62.5q0 -39 -24.5 -63.5t-64.5 -24.5t-64.5 24.5z" />
    <glyph glyph-name="copyright" unicode="&#xa9;" horiz-adv-x="815" 
d="M224.5 34q-84.5 49 -133.5 133.5t-48 182.5q-1 98 48 182.5t133.5 133.5t182.5 48q98 1 182.5 -48t134 -133.5t48.5 -182.5q1 -98 -48.5 -182.5t-134 -133.5t-182.5 -48q-98 -1 -182.5 48zM552 96q67 40 105 108t37 146q1 78 -37 146t-105 107.5t-145 39.5t-144.5 -39.5
t-105 -107.5t-37.5 -146q-1 -78 37.5 -146t105 -108t144.5 -39q78 -1 145 39zM308.5 165q-47.5 27 -74 75.5t-26.5 110.5t26.5 110.5t74 75.5t110.5 27q61 0 108.5 -25t72.5 -71l-88 -61q-32 49 -89 49q-43 0 -69 -28.5t-26 -76.5t26 -76.5t69 -28.5q57 0 89 49l88 -62
q-26 -45 -73 -70t-108 -25q-63 0 -110.5 27z" />
    <glyph glyph-name="guillemotleft" unicode="&#xab;" horiz-adv-x="616" 
d="M330 34h-156l-155 221l155 222h156l-155 -222zM592 34h-156l-155 221l155 222h156l-155 -222z" />
    <glyph glyph-name="logicalnot" unicode="&#xac;" horiz-adv-x="710" 
d="M583 151h-139v99h-316v134h455v-233z" />
    <glyph glyph-name="registered" unicode="&#xae;" horiz-adv-x="533" 
d="M378.5 685q51.5 -30 81.5 -81t30 -111q0 -61 -30 -112t-81.5 -81t-112.5 -30q-60 0 -111.5 30t-81.5 81.5t-30 111.5t30 111t81.5 81t111.5 30q61 0 112.5 -30zM349.5 347q37.5 23 59.5 61.5t22 84.5q0 45 -22 84t-59.5 61.5t-83.5 22.5t-83.5 -22.5t-59 -61.5t-21.5 -84
q0 -46 21.5 -85t59 -61.5t83.5 -22.5t83.5 23zM308 464l64 -84h-62l-56 81h-22v-81h-54v231h103q41 0 63 -19t22 -56q0 -62 -58 -72zM310 535q0 28 -33 28h-45v-57h45q33 0 33 29z" />
    <glyph glyph-name="macron" unicode="&#xaf;" horiz-adv-x="727" 
d="M533 661v-116h-339v116h339z" />
    <glyph glyph-name="degree" unicode="&#xb0;" horiz-adv-x="386" 
d="M105.5 407.5q-38.5 21.5 -60 58.5t-21.5 84q0 46 21.5 83.5t60 59t87.5 21.5t87.5 -21.5t60.5 -59t22 -83.5t-22 -83.5t-60.5 -59t-87.5 -21.5t-87.5 21.5zM241 501q18 19 18 49t-18 48.5t-48 18.5q-29 0 -47.5 -18.5t-18.5 -48.5t18.5 -49t47.5 -19q30 0 48 19z" />
    <glyph glyph-name="plusminus" unicode="&#xb1;" horiz-adv-x="710" 
d="M583 333h-158v-142h-140v142h-157v133h157v142h140v-142h158v-133zM583 133v-133h-455v133h455z" />
    <glyph glyph-name="acute" unicode="&#xb4;" horiz-adv-x="620" 
d="M533 750l-145 -169h-143l115 169h173z" />
    <glyph glyph-name="uni00B5" unicode="&#xb5;" horiz-adv-x="610" 
d="M415 0v67q-16 -38 -47 -59.5t-73 -21.5q-53 0 -83 35v-241h-149v731h149v-296q0 -94 86 -94q49 0 74 30t25 94v266h149v-511h-131z" />
    <glyph glyph-name="paragraph" unicode="&#xb6;" horiz-adv-x="665" 
d="M86.5 428.5q-47.5 43.5 -47.5 114.5q0 72 51 114.5t144 42.5h120v-830h-128v515h-11q-81 0 -128.5 43.5zM570 700v-830h-128v830h128z" />
    <glyph glyph-name="cedilla" unicode="&#xb8;" horiz-adv-x="620" 
d="M379 14l-58 -214h-152l83 214h127z" />
    <glyph glyph-name="guillemotright" unicode="&#xbb;" horiz-adv-x="616" 
d="M24 477h156l155 -222l-155 -221h-156l155 221zM442 34h-156l155 221l-155 222h156l155 -222z" />
    <glyph glyph-name="questiondown" unicode="&#xbf;" horiz-adv-x="471" 
d="M319.5 357.5q-25.5 -24.5 -69.5 -24.5q-42 0 -67 26t-25 70q0 43 26 67t70 24q43 0 67 -25.5t24 -70.5q0 -42 -25.5 -66.5zM315 162q-5 -19 -19.5 -36.5t-52.5 -49.5l-44 -36q-37 -32 -37 -63q0 -24 17 -37t47 -13q75 0 125 86l107 -72q-34 -67 -95 -105.5t-140 -38.5
q-59 0 -105.5 22t-73 61.5t-26.5 92.5q0 42 19.5 77.5t66.5 73.5l38 32q26 22 32.5 34.5t6.5 38.5v40h141v-50q-2 -38 -7 -57z" />
    <glyph glyph-name="Agrave" unicode="&#xc0;" horiz-adv-x="716" 
d="M168 939h147l111 -169h-143zM217 123l-45 -123h-164l263 700h163l272 -700h-164l-46 123h-279zM357 550l-92 -293h184z" />
    <glyph glyph-name="Aacute" unicode="&#xc1;" horiz-adv-x="716" 
d="M302 770l111 169h147l-115 -169h-143zM217 123l-45 -123h-164l263 700h163l272 -700h-164l-46 123h-279zM357 550l-92 -293h184z" />
    <glyph glyph-name="Acircumflex" unicode="&#xc2;" horiz-adv-x="716" 
d="M148 770l145 169h147l146 -169h-149l-70 85l-71 -85h-148zM217 123l-45 -123h-164l263 700h163l272 -700h-164l-46 123h-279zM357 550l-92 -293h184z" />
    <glyph glyph-name="Atilde" unicode="&#xc3;" horiz-adv-x="716" 
d="M315 821q-14 0 -21 -11t-7 -35h-108q0 79 26.5 119t77.5 40q22 0 41 -7t46 -22q31 -19 49 -19q14 0 20.5 11t6.5 35h108q0 -159 -104 -159q-22 0 -41 7t-46 22q-29 19 -48 19zM217 123l-45 -123h-164l263 700h163l272 -700h-164l-46 123h-279zM357 550l-92 -293h184z" />
    <glyph glyph-name="Adieresis" unicode="&#xc4;" horiz-adv-x="716" 
d="M181.5 796q-26.5 26 -26.5 63t26.5 63t63.5 26q36 0 62.5 -26t26.5 -63t-26.5 -63t-62.5 -26q-37 0 -63.5 26zM426 796q-26 26 -26 63t26.5 63t63.5 26q36 0 62 -26t26 -63t-26 -63t-62 -26q-38 0 -64 26zM217 123l-45 -123h-164l263 700h163l272 -700h-164l-46 123h-279
zM357 550l-92 -293h184z" />
    <glyph glyph-name="Aring" unicode="&#xc5;" horiz-adv-x="716" 
d="M250 958q18 28 49 45t69 17q56 0 95 -36t39 -88q0 -34 -18 -63t-49 -46t-69 -17q-56 0 -95 37t-39 90q0 33 18 61zM400 927.5q-12 13.5 -31 13.5q-23 0 -35.5 -11.5t-12.5 -30.5q0 -23 12 -36t31 -13q9 0 13 1q35 9 35 40q0 23 -12 36.5zM217 123l-45 -123h-164l263 700
h163l272 -700h-164l-46 123h-279zM357 550l-92 -293h184z" />
    <glyph glyph-name="AE" unicode="&#xc6;" horiz-adv-x="1093" 
d="M1042 0h-516v140h-255l-84 -140h-184l432 700h597v-142h-353v-133h330v-142h-330v-141h363v-142zM526 569l-181 -301h181v301z" />
    <glyph glyph-name="Ccedilla" unicode="&#xc7;" horiz-adv-x="737" 
d="M516 159.5q47 29.5 73 78.5l124 -78q-37 -76 -103.5 -119.5t-153.5 -52.5l-48 -188h-152l74 193q-91 16 -155 66.5t-97 125t-33 164.5q0 102 43.5 185t126.5 131t197 48q98 0 176 -46t125 -131l-126 -74q-26 49 -72.5 77.5t-102.5 28.5q-63 0 -110 -29t-71.5 -78.5
t-24.5 -111.5t24 -111.5t70.5 -78.5t111.5 -29q57 0 104 29.5z" />
    <glyph glyph-name="Egrave" unicode="&#xc8;" horiz-adv-x="643" 
d="M167 939h147l111 -169h-143zM591 0h-516v700h506v-139h-352v-151h328v-138h-328v-132h362v-140z" />
    <glyph glyph-name="Eacute" unicode="&#xc9;" horiz-adv-x="643" 
d="M241 770l111 169h147l-115 -169h-143zM592 0h-517v700h507v-139h-353v-148h328v-138h-328v-135h363v-140z" />
    <glyph glyph-name="Ecircumflex" unicode="&#xca;" horiz-adv-x="643" 
d="M323 855l-70 -85h-148l145 169h147l145 -169h-148zM591 0h-516v700h506v-139h-352v-151h328v-138h-328v-132h362v-140z" />
    <glyph glyph-name="Edieresis" unicode="&#xcb;" horiz-adv-x="643" 
d="M137.5 924q26.5 26 63.5 26q36 0 62.5 -26t26.5 -63t-26.5 -63t-62.5 -26q-37 0 -63.5 26t-26.5 63t26.5 63zM381.5 924q26.5 26 64.5 26q36 0 62 -26t26 -63t-26 -63t-62 -26q-38 0 -64.5 26t-26.5 63t26.5 63zM591 0h-516v700h506v-139h-352v-151h328v-138h-328v-132
h362v-140z" />
    <glyph glyph-name="Igrave" unicode="&#xcc;" horiz-adv-x="309" 
d="M-33 939h174l111 -169h-144zM232 700v-700h-155v700h155z" />
    <glyph glyph-name="Iacute" unicode="&#xcd;" horiz-adv-x="309" 
d="M369 932l-141 -169h-143l111 169h173zM232 700v-700h-155v700h155z" />
    <glyph glyph-name="Icircumflex" unicode="&#xce;" horiz-adv-x="309" 
d="M225 770l-71 85l-70 -85h-149l146 169h147l145 -169h-148zM232 700v-700h-155v700h155z" />
    <glyph glyph-name="Idieresis" unicode="&#xcf;" horiz-adv-x="309" 
d="M-32.5 796.5q-24.5 24.5 -24.5 62.5q0 39 24.5 63.5t64.5 24.5t64.5 -24.5t24.5 -63.5q0 -38 -24.5 -62.5t-64.5 -24.5t-64.5 24.5zM211.5 796.5q-24.5 24.5 -24.5 62.5q0 39 25 63.5t64 24.5q40 0 65 -24.5t25 -63.5q0 -38 -25 -62.5t-65 -24.5t-64.5 24.5zM232 700
v-700h-155v700h155z" />
    <glyph glyph-name="Eth" unicode="&#xd0;" horiz-adv-x="765" 
d="M678 163q-44 -79 -122.5 -121t-180.5 -42h-272v289h-89v122h89v289h272q102 0 180.5 -42t122.5 -121t44 -187t-44 -187zM512.5 505q-47.5 52 -137.5 52h-117v-146h144v-122h-144v-146h117q90 0 137.5 52t47.5 155t-47.5 155z" />
    <glyph glyph-name="Eth" unicode="&#xf0;" horiz-adv-x="765" 
d="M678 163q-44 -79 -122.5 -121t-180.5 -42h-272v289h-89v122h89v289h272q102 0 180.5 -42t122.5 -121t44 -187t-44 -187zM512.5 505q-47.5 52 -137.5 52h-117v-146h144v-122h-144v-146h117q90 0 137.5 52t47.5 155t-47.5 155z" />
    <glyph glyph-name="Ntilde" unicode="&#xd1;" horiz-adv-x="782" 
d="M319 810q-7 -11 -7 -35h-108q0 159 104 159q22 0 41 -7t46 -22q29 -19 49 -19q14 0 20.5 11t6.5 35h108q0 -159 -104 -159q-22 0 -41 7t-46 22q-29 19 -48 19q-14 0 -21 -11zM707 0h-145l-334 448v-448h-153v700h145l335 -449v449h152v-700z" />
    <glyph glyph-name="Ograve" unicode="&#xd2;" horiz-adv-x="823" 
d="M252 939h148l111 -169h-144zM221.5 32q-83.5 46 -130 128.5t-46.5 189.5t46.5 189.5t130 128.5t191.5 46t191.5 -46t130 -128.5t46.5 -189.5t-46.5 -189.5t-130 -128.5t-191.5 -46t-191.5 46zM521 158.5q47 27.5 73.5 77.5t26.5 114t-26.5 114t-73.5 77.5t-108 27.5
t-108 -27.5t-73.5 -77.5t-26.5 -114t26.5 -114t73.5 -77.5t108 -27.5t108 27.5z" />
    <glyph glyph-name="Oacute" unicode="&#xd3;" horiz-adv-x="823" 
d="M316 770l111 169h147l-115 -169h-143zM221.5 32q-83.5 46 -130 128.5t-46.5 189.5t46.5 189.5t130 128.5t191.5 46t191.5 -46t130 -128.5t46.5 -189.5t-46.5 -189.5t-130 -128.5t-191.5 -46t-191.5 46zM521 158.5q47 27.5 73.5 77.5t26.5 114t-26.5 114t-73.5 77.5
t-108 27.5t-108 -27.5t-73.5 -77.5t-26.5 -114t26.5 -114t73.5 -77.5t108 -27.5t108 27.5z" />
    <glyph glyph-name="Ocircumflex" unicode="&#xd4;" horiz-adv-x="823" 
d="M193 770l145 169h147l145 -169h-148l-71 85l-70 -85h-148zM221.5 32q-83.5 46 -130 128.5t-46.5 189.5t46.5 189.5t130 128.5t191.5 46t191.5 -46t130 -128.5t46.5 -189.5t-46.5 -189.5t-130 -128.5t-191.5 -46t-191.5 46zM521 158.5q47 27.5 73.5 77.5t26.5 114
t-26.5 114t-73.5 77.5t-108 27.5t-108 -27.5t-73.5 -77.5t-26.5 -114t26.5 -114t73.5 -77.5t108 -27.5t108 27.5z" />
    <glyph glyph-name="Otilde" unicode="&#xd5;" horiz-adv-x="823" 
d="M454 780q-19 7 -46 22q-29 19 -49 19q-14 0 -20.5 -11t-6.5 -35h-108q0 159 104 159q22 0 41 -7t46 -22q29 -19 48 -19q14 0 21 11t7 35h108q0 -159 -104 -159q-22 0 -41 7zM222.5 32.5q-84.5 47.5 -132.5 131.5t-47 185q-1 101 47 185.5t132.5 132.5t188.5 47
q104 1 189 -47t133 -132.5t47 -185.5q1 -101 -47 -185t-133 -131.5t-189 -46.5q-104 -1 -188.5 46.5zM519 159.5q47 27.5 73 77t26 112.5t-26 113t-73 78t-108 28q-60 0 -107 -28t-73 -78t-26 -113t26 -112.5t73 -77t107 -27.5q61 0 108 27.5z" />
    <glyph glyph-name="Odieresis" unicode="&#xd6;" horiz-adv-x="823" 
d="M225.5 798q-26.5 26 -26.5 63t26.5 63t63.5 26q36 0 62.5 -26t26.5 -63t-26.5 -63t-62.5 -26q-37 0 -63.5 26zM469.5 798q-26.5 26 -26.5 63t26.5 63t64.5 26q36 0 62 -26t26 -63t-26 -63t-62 -26q-38 0 -64.5 26zM221.5 32q-83.5 46 -130 128.5t-46.5 189.5t46.5 189.5
t130 128.5t191.5 46t191.5 -46t130 -128.5t46.5 -189.5t-46.5 -189.5t-130 -128.5t-191.5 -46t-191.5 46zM521 158.5q47 27.5 73.5 77.5t26.5 114t-26.5 114t-73.5 77.5t-108 27.5t-108 -27.5t-73.5 -77.5t-26.5 -114t26.5 -114t73.5 -77.5t108 -27.5t108 27.5z" />
    <glyph glyph-name="multiply" unicode="&#xd7;" horiz-adv-x="710" 
d="M580 183l-91 -91l-134 134l-134 -134l-91 91l134 134l-134 134l91 91l134 -134l134 134l91 -91l-134 -134z" />
    <glyph glyph-name="Oslash" unicode="&#xd8;" horiz-adv-x="823" 
d="M733 164q-48 -84 -133 -131.5t-189 -46.5q-123 0 -217 66l-67 -67l-80 79l66 66q-70 91 -70 219q-1 101 47 185.5t132.5 132.5t188.5 47q125 0 219 -67l68 68l80 -79l-67 -67q69 -97 69 -220q1 -101 -47 -185zM229 243l293 293q-47 32 -111 32q-60 0 -107 -28t-73 -78
t-26 -113q0 -58 24 -106zM594 456l-293 -293q48 -31 110 -31q61 0 108 27.5t73 77t26 112.5q0 59 -24 107z" />
    <glyph glyph-name="Ugrave" unicode="&#xd9;" horiz-adv-x="728" 
d="M202 939h147l111 -169h-144zM208 25q-68 39 -105 107.5t-37 152.5v415h156v-424q0 -65 36.5 -104t106.5 -39q74 0 108.5 38.5t34.5 104.5v424h155v-415q0 -85 -35.5 -153t-103 -107t-159.5 -39q-89 0 -157 39z" />
    <glyph glyph-name="Uacute" unicode="&#xda;" horiz-adv-x="728" 
d="M267 770l111 169h147l-115 -169h-143zM208 25q-68 39 -105 107.5t-37 152.5v415h156v-424q0 -65 36.5 -104t106.5 -39q74 0 108.5 38.5t34.5 104.5v424h155v-415q0 -85 -35.5 -153t-103 -107t-159.5 -39q-89 0 -157 39z" />
    <glyph glyph-name="Ucircumflex" unicode="&#xdb;" horiz-adv-x="728" 
d="M364 855l-70 -85h-149l145 169h148l145 -169h-149zM208 25q-68 39 -105 107.5t-37 152.5v415h156v-424q0 -65 36.5 -104t106.5 -39q74 0 108.5 38.5t34.5 104.5v424h155v-415q0 -85 -35.5 -153t-103 -107t-159.5 -39q-89 0 -157 39z" />
    <glyph glyph-name="Udieresis" unicode="&#xdc;" horiz-adv-x="728" 
d="M178 798q-26 26 -26 63t26.5 63t63.5 26q36 0 62 -26t26 -63t-26 -63t-62 -26q-38 0 -64 26zM422 798q-26 26 -26 63t26.5 63t63.5 26q36 0 62 -26t26 -63t-26 -63t-62 -26q-38 0 -64 26zM208 25q-68 39 -105 107.5t-37 152.5v415h156v-424q0 -65 36.5 -104t106.5 -39
q74 0 108.5 38.5t34.5 104.5v424h155v-415q0 -85 -35.5 -153t-103 -107t-159.5 -39q-89 0 -157 39z" />
    <glyph glyph-name="Yacute" unicode="&#xdd;" horiz-adv-x="659" 
d="M233 770l111 169h147l-115 -169h-143zM408 274v-274h-156v274l-257 426h177l158 -278l159 278h177z" />
    <glyph glyph-name="Thorn" unicode="&#xde;" horiz-adv-x="667" 
d="M367 120h-137v-120h-155v700h155v-109h137q133 0 200 -59t67 -176q0 -236 -267 -236zM445.5 426.5q-27.5 22.5 -85.5 22.5h-130v-189h130q58 0 85.5 23.5t27.5 72.5q0 48 -27.5 70.5z" />
    <glyph glyph-name="germandbls" unicode="&#xdf;" horiz-adv-x="646" 
d="M572.5 320.5q44.5 -46.5 44.5 -120.5q0 -90 -62.5 -145t-173.5 -55h-96v130h70q111 0 111 85q0 41 -29 62t-90 21h-62v133h30q111 0 111 86q0 43 -27.5 66.5t-79.5 23.5q-54 0 -80.5 -27.5t-26.5 -83.5v-496h-149v503q0 112 66.5 174.5t189.5 62.5q78 0 136 -25.5
t88.5 -71.5t30.5 -106q0 -62 -32.5 -105.5t-92.5 -57.5q79 -7 123.5 -53.5z" />
    <glyph glyph-name="agrave" unicode="&#xe0;" horiz-adv-x="569" 
d="M102 750h173l111 -169h-143zM386 75q-19 -41 -61.5 -64t-103.5 -23q-55 0 -97 21.5t-65 59t-23 85.5q0 78 62.5 117t164.5 39q50 0 103 -9l-1 30q0 30 -23 47t-59 17q-35 0 -70 -15t-60 -41l-79 85q31 36 96 61t126 25q64 0 113 -25t76 -71t27 -106v-308h-126v75z
M286 228q-105 0 -105 -65q0 -30 21 -48.5t57 -18.5q51 0 79.5 27t28.5 75v22q-48 8 -81 8z" />
    <glyph glyph-name="aacute" unicode="&#xe1;" horiz-adv-x="591" 
d="M244 581l111 169h145l-113 -169h-143zM397 75q-18 -41 -61 -64t-104 -23q-55 0 -100 21.5t-70.5 59.5t-25.5 85q0 78 66 117t171 39q52 0 104 -9l-1 30q0 29 -22 46.5t-53 17.5q-39 0 -75.5 -15t-61.5 -41l-78 85q29 35 93.5 60.5t121.5 25.5q109 0 165.5 -54t56.5 -148
v-308h-126v75zM295 228q-53 0 -83.5 -16t-30.5 -49q0 -29 26 -48t63 -19q51 0 79.5 27t28.5 75v22q-48 8 -83 8z" />
    <glyph glyph-name="acircumflex" unicode="&#xe2;" horiz-adv-x="581" 
d="M304 666l-70 -85h-149l145 169h148l145 -169h-149zM386 75q-19 -41 -61.5 -64t-103.5 -23q-55 0 -97 21.5t-65 59t-23 85.5q0 78 62.5 117t164.5 39q50 0 103 -9l-1 30q0 30 -23 47t-59 17q-35 0 -70 -15t-60 -41l-79 85q31 36 96 61t126 25q64 0 113 -25t76 -71t27 -106
v-308h-126v75zM286 228q-105 0 -105 -65q0 -30 21 -48.5t57 -18.5q51 0 79.5 27t28.5 75v22q-48 8 -81 8z" />
    <glyph glyph-name="atilde" unicode="&#xe3;" horiz-adv-x="553" 
d="M271 632q-14 0 -20.5 -10.5t-6.5 -35.5h-108q0 159 104 159q22 0 41.5 -7t45.5 -22q28 -20 48 -20q14 0 21 11t7 35h107q0 -79 -26 -119t-77 -40q-23 0 -43 7t-45 22q-28 20 -48 20zM386 75q-19 -41 -61.5 -64t-103.5 -23q-55 0 -97 21.5t-65 59t-23 85.5q0 78 62.5 117
t164.5 39q50 0 103 -9l-1 30q0 30 -23 47t-59 17q-35 0 -70 -15t-60 -41l-79 85q31 36 96 61t126 25q64 0 113 -25t76 -71t27 -106v-308h-126v75zM286 228q-105 0 -105 -65q0 -30 21 -48.5t57 -18.5q51 0 79.5 27t28.5 75v22q-48 8 -81 8z" />
    <glyph glyph-name="adieresis" unicode="&#xe4;" horiz-adv-x="611" 
d="M153.5 608q-26.5 26 -26.5 63t26.5 63.5t63.5 26.5q36 0 62.5 -26.5t26.5 -63.5t-26.5 -63t-62.5 -26q-37 0 -63.5 26zM397.5 608q-26.5 26 -26.5 63t26.5 63.5t63.5 26.5q36 0 62.5 -26.5t26.5 -63.5t-26.5 -63t-62.5 -26q-37 0 -63.5 26zM386 75q-19 -41 -61.5 -64
t-103.5 -23q-55 0 -97 21.5t-65 59t-23 85.5q0 78 62.5 117t164.5 39q50 0 103 -9l-1 30q0 30 -23 47t-59 17q-35 0 -70 -15t-60 -41l-79 85q31 36 96 61t126 25q64 0 113 -25t76 -71t27 -106v-308h-126v75zM286 228q-105 0 -105 -65q0 -30 21 -48.5t57 -18.5q51 0 79.5 27
t28.5 75v22q-48 8 -81 8z" />
    <glyph glyph-name="aring" unicode="&#xe5;" horiz-adv-x="622" 
d="M225.5 587.5q-33.5 18.5 -52.5 49.5t-19 69q0 37 19 68t52.5 49.5t74.5 18.5t74.5 -18.5t53 -49.5t19.5 -68q0 -38 -19.5 -69t-53 -49.5t-74.5 -18.5t-74.5 18.5zM260.5 745.5q-14.5 -14.5 -14.5 -39.5t14.5 -39.5t39.5 -14.5q26 0 40.5 14t14.5 40q0 25 -14.5 39.5
t-40.5 14.5q-25 0 -39.5 -14.5zM386 75q-19 -41 -61.5 -64t-103.5 -23q-55 0 -97 21.5t-65 59t-23 85.5q0 78 62.5 117t164.5 39q50 0 103 -9l-1 30q0 30 -23 47t-59 17q-35 0 -70 -15t-60 -41l-79 85q31 36 96 61t126 25q64 0 113 -25t76 -71t27 -106v-308h-126v75z
M286 228q-105 0 -105 -65q0 -30 21 -48.5t57 -18.5q51 0 79.5 27t28.5 75v22q-48 8 -81 8z" />
    <glyph glyph-name="ae" unicode="&#xe6;" horiz-adv-x="932" 
d="M828 443.5q70 -66.5 70 -187.5q0 -28 -2 -43h-382q0 -45 39.5 -73.5t92.5 -28.5q47 0 88 14.5t63 38.5l82 -88q-32 -39 -97.5 -62.5t-141.5 -23.5q-69 0 -124.5 23.5t-92.5 66.5q-41 -47 -94 -69.5t-111 -22.5q-55 0 -97 21.5t-65 59t-23 85.5q0 78 62.5 117t164.5 39
q50 0 103 -9v30q0 30 -23.5 47t-58.5 17t-70.5 -15t-59.5 -41l-79 85q30 36 95.5 61t125.5 25q50 0 91 -15t70 -44q71 59 180 59q124 0 194 -66.5zM749 304q0 41 -31 69t-84 28q-33 0 -60.5 -14.5t-43.5 -37t-17 -45.5h236zM364 220q-48 8 -81 8q-104 0 -104 -65
q0 -31 20.5 -49t57.5 -18q51 0 79 27t28 74v23z" />
    <glyph glyph-name="ccedilla" unicode="&#xe7;" horiz-adv-x="547" 
d="M463.5 32.5q-43.5 -29.5 -99.5 -40.5l-52 -192h-152l76 193q-92 20 -146 90.5t-54 171.5q0 78 33.5 139.5t94.5 95.5t139 34q76 0 136 -32t92 -89l-109 -77q-43 63 -114 63q-55 0 -88 -36.5t-33 -97.5t33 -97.5t88 -36.5q71 0 114 64l110 -77q-25 -46 -68.5 -75.5z" />
    <glyph glyph-name="egrave" unicode="&#xe8;" horiz-adv-x="603" 
d="M113 750h174l111 -169h-144zM224 139.5q39 -28.5 92 -28.5q47 0 88 14.5t64 38.5l81 -88q-32 -40 -97 -63t-142 -23q-82 0 -144.5 33t-97 92.5t-34.5 137.5q0 75 34.5 133.5t96 91t139.5 32.5q124 0 194 -66.5t70 -187.5q0 -28 -2 -43h-381q0 -45 39 -73.5zM243.5 386.5
q-27.5 -14.5 -43.5 -37t-17 -45.5h237q-1 41 -32 69t-84 28q-33 0 -60.5 -14.5z" />
    <glyph glyph-name="eacute" unicode="&#xe9;" horiz-adv-x="604" 
d="M219 581l111 169h147l-115 -169h-143zM224 139.5q39 -28.5 92 -28.5q47 0 88 14.5t64 38.5l81 -88q-32 -40 -97 -63t-142 -23q-82 0 -144.5 33t-97 92.5t-34.5 137.5q0 75 34.5 133.5t96 91t139.5 32.5q124 0 194 -66.5t70 -187.5q0 -28 -2 -43h-381q0 -45 39 -73.5z
M243.5 386.5q-27.5 -14.5 -43.5 -37t-17 -45.5h237q-1 41 -32 69t-84 28q-33 0 -60.5 -14.5z" />
    <glyph glyph-name="ecircumflex" unicode="&#xea;" horiz-adv-x="603" 
d="M301 666l-70 -85h-149l145 169h148l145 -169h-149zM224 139.5q39 -28.5 92 -28.5q47 0 88 14.5t64 38.5l81 -88q-32 -40 -97 -63t-142 -23q-82 0 -144.5 33t-97 92.5t-34.5 137.5q0 75 34.5 133.5t96 91t139.5 32.5q124 0 194 -66.5t70 -187.5q0 -28 -2 -43h-381
q0 -45 39 -73.5zM243.5 386.5q-27.5 -14.5 -43.5 -37t-17 -45.5h237q-1 41 -32 69t-84 28q-33 0 -60.5 -14.5z" />
    <glyph glyph-name="edieresis" unicode="&#xeb;" horiz-adv-x="603" 
d="M113.5 608q-26.5 26 -26.5 63t26.5 63.5t63.5 26.5q36 0 62.5 -26.5t26.5 -63.5t-26.5 -63t-62.5 -26q-37 0 -63.5 26zM357.5 608q-26.5 26 -26.5 63t26.5 63.5t63.5 26.5q36 0 62.5 -26.5t26.5 -63.5t-26.5 -63t-62.5 -26q-37 0 -63.5 26zM224 139.5q39 -28.5 92 -28.5
q47 0 88 14.5t64 38.5l81 -88q-32 -40 -97 -63t-142 -23q-82 0 -144.5 33t-97 92.5t-34.5 137.5q0 75 34.5 133.5t96 91t139.5 32.5q124 0 194 -66.5t70 -187.5q0 -28 -2 -43h-381q0 -45 39 -73.5zM243.5 386.5q-27.5 -14.5 -43.5 -37t-17 -45.5h237q-1 41 -32 69t-84 28
q-33 0 -60.5 -14.5z" />
    <glyph glyph-name="igrave" unicode="&#xec;" horiz-adv-x="278" 
d="M96 750l113 -169h-143l-117 169h147zM213 500v-500h-149v500h149z" />
    <glyph glyph-name="iacute" unicode="&#xed;" horiz-adv-x="278" 
d="M65 581l111 169h147l-114 -169h-144zM213 500v-500h-149v500h149z" />
    <glyph glyph-name="icircumflex" unicode="&#xee;" horiz-adv-x="278" 
d="M190 581l-51 86l-51 -86h-132l114 169h138l114 -169h-132zM213 500v-500h-149v500h149z" />
    <glyph glyph-name="idieresis" unicode="&#xef;" horiz-adv-x="278" 
d="M-10.5 612q-20.5 21 -20.5 58q0 36 20.5 57t54.5 21q33 0 53.5 -21t20.5 -57q0 -37 -20 -58t-54 -21t-54.5 21zM180 612q-20 21 -20 58q0 36 20.5 57t53.5 21q34 0 54.5 -21t20.5 -57q0 -37 -20.5 -58t-54.5 -21t-54 21zM213 500v-500h-149v500h149z" />
    <glyph glyph-name="ntilde" unicode="&#xf1;" horiz-adv-x="605" 
d="M253 632q-14 0 -21 -11t-7 -35h-108q0 79 26.5 119t77.5 40q22 0 41 -7t46 -22q30 -20 49 -20q14 0 20.5 10.5t6.5 35.5h108q0 -159 -104 -159q-22 0 -41 7t-46 22q-28 20 -48 20zM457.5 490q40.5 -24 64.5 -64.5t24 -88.5v-337h-149v286q0 38 -27 65t-65 28
q-39 0 -66 -27.5t-27 -65.5l1 -286h-150v500h146v-74q21 40 65 64t95 24q48 0 88.5 -24z" />
    <glyph glyph-name="ograve" unicode="&#xf2;" horiz-adv-x="621" 
d="M155 750h147l111 -169h-144zM165.5 22q-62.5 36 -97 97.5t-34.5 135.5q0 75 34 136.5t97.5 97t147.5 35.5t145 -35.5t93.5 -96.5t32.5 -137q0 -75 -33 -136.5t-95.5 -97t-146.5 -35.5q-81 0 -143.5 36zM400 158.5q33 38.5 33 96.5q0 60 -31 98t-89 38q-59 0 -93.5 -38.5
t-34.5 -97.5t32.5 -97t91.5 -38q58 0 91 38.5z" />
    <glyph glyph-name="oacute" unicode="&#xf3;" horiz-adv-x="621" 
d="M215 581l111 169h147l-115 -169h-143zM165.5 22q-62.5 36 -97 97.5t-34.5 135.5q0 75 34 136.5t97.5 97t147.5 35.5t145 -35.5t93.5 -96.5t32.5 -137q0 -75 -33 -136.5t-95.5 -97t-146.5 -35.5q-81 0 -143.5 36zM400 158.5q33 38.5 33 96.5q0 60 -31 98t-89 38
q-59 0 -93.5 -38.5t-34.5 -97.5t32.5 -97t91.5 -38q58 0 91 38.5z" />
    <glyph glyph-name="ocircumflex" unicode="&#xf4;" horiz-adv-x="621" 
d="M311 666l-71 -85h-148l145 169h147l146 -169h-149zM165.5 22q-62.5 36 -97 97.5t-34.5 135.5q0 75 34 136.5t97.5 97t147.5 35.5t145 -35.5t93.5 -96.5t32.5 -137q0 -75 -33 -136.5t-95.5 -97t-146.5 -35.5q-81 0 -143.5 36zM400 158.5q33 38.5 33 96.5q0 60 -31 98
t-89 38q-59 0 -93.5 -38.5t-34.5 -97.5t32.5 -97t91.5 -38q58 0 91 38.5z" />
    <glyph glyph-name="otilde" unicode="&#xf5;" horiz-adv-x="621" 
d="M353 590q-19 7 -46 22q-28 20 -48 20q-14 0 -21 -11t-7 -35h-108q0 79 26.5 119t77.5 40q22 0 41 -7t46 -22q30 -20 49 -20q14 0 20.5 11t6.5 35h108q0 -159 -104 -159q-22 0 -41 7zM167.5 21q-62.5 35 -97 96.5t-34.5 137.5t34.5 137.5t97 96.5t143.5 35t143 -35
t96.5 -96.5t34.5 -137.5t-34.5 -137.5t-96.5 -96.5t-143 -35t-143.5 35zM400.5 156.5q33.5 36.5 33.5 98.5t-33.5 99t-89.5 37q-57 0 -90.5 -37t-33.5 -99t33.5 -98.5t90.5 -36.5q56 0 89.5 36.5z" />
    <glyph glyph-name="odieresis" unicode="&#xf6;" horiz-adv-x="621" 
d="M125 734.5q27 26.5 64 26.5q35 0 61.5 -26.5t26.5 -63.5q0 -36 -26 -62.5t-62 -26.5q-38 0 -64.5 26t-26.5 63t27 63.5zM369.5 734.5q26.5 26.5 63.5 26.5q36 0 62 -26.5t26 -63.5t-26 -63t-62 -26q-37 0 -63.5 26t-26.5 63t26.5 63.5zM165.5 22q-62.5 36 -97 97.5
t-34.5 135.5q0 75 34 136.5t97.5 97t147.5 35.5t145 -35.5t93.5 -96.5t32.5 -137q0 -75 -33 -136.5t-95.5 -97t-146.5 -35.5q-81 0 -143.5 36zM400 158.5q33 38.5 33 96.5q0 60 -31 98t-89 38q-59 0 -93.5 -38.5t-34.5 -97.5t32.5 -97t91.5 -38q58 0 91 38.5z" />
    <glyph glyph-name="divide" unicode="&#xf7;" horiz-adv-x="710" 
d="M297 460q-25 25 -25 61t25 61t61 25t60.5 -25t24.5 -61t-24.5 -61t-60.5 -25t-61 25zM583 384v-134h-455v134h455zM297 54q-25 25 -25 61t25 61.5t61 25.5t60.5 -25.5t24.5 -61.5t-24.5 -61t-60.5 -25t-61 25z" />
    <glyph glyph-name="oslash" unicode="&#xf8;" horiz-adv-x="625" 
d="M587 255q0 -76 -34.5 -137.5t-96.5 -96.5t-143 -35q-90 0 -158 44l-60 -60l-67 68l58 58q-48 68 -48 159q0 76 34.5 137.5t97 96.5t143.5 35q90 0 158 -43l59 59l68 -67l-58 -58q47 -66 47 -160zM216.5 360.5q-35.5 -39.5 -35.5 -105.5q0 -38 13 -63l189 188
q-29 20 -70 20q-61 0 -96.5 -39.5zM408.5 150q35.5 39 35.5 105q0 37 -12 64l-189 -189q28 -19 70 -19q60 0 95.5 39z" />
    <glyph glyph-name="ugrave" unicode="&#xf9;" horiz-adv-x="598" 
d="M142 750h147l111 -169h-144zM393 0v76q-21 -41 -65.5 -65.5t-97.5 -24.5q-49 0 -88.5 23t-62.5 63.5t-23 90.5v337h149v-285q0 -41 25.5 -67t64.5 -27q40 0 67.5 27.5t27.5 68.5l-1 283h149v-500h-145z" />
    <glyph glyph-name="uacute" unicode="&#xfa;" horiz-adv-x="598" 
d="M198 581l111 169h147l-115 -169h-143zM393 0v74q-22 -40 -66 -64t-95 -24q-48 0 -88.5 23.5t-64 64.5t-23.5 89v337h149v-286q0 -38 27 -65t65 -28q38 0 65.5 27.5t27.5 65.5l-1 286h149v-500h-145z" />
    <glyph glyph-name="ucircumflex" unicode="&#xfb;" horiz-adv-x="598" 
d="M79 581l145 169h148l145 -169h-149l-70 85l-70 -85h-149zM393 0v74q-22 -40 -66 -64t-95 -24q-48 0 -88.5 23.5t-64 64.5t-23.5 89v337h149v-286q0 -38 27 -65t65 -28q38 0 65.5 27.5t27.5 65.5l-1 286h149v-500h-145z" />
    <glyph glyph-name="udieresis" unicode="&#xfc;" horiz-adv-x="598" 
d="M112.5 734.5q26.5 26.5 63.5 26.5q36 0 62 -26.5t26 -63.5t-26 -63t-62 -26q-37 0 -63.5 26t-26.5 63t26.5 63.5zM356.5 734.5q26.5 26.5 63.5 26.5q36 0 62 -26.5t26 -63.5t-26 -63t-62 -26q-37 0 -63.5 26t-26.5 63t26.5 63.5zM393 0v74q-22 -40 -66 -64t-95 -24
q-48 0 -88.5 23.5t-64 64.5t-23.5 89v337h149v-286q0 -38 27 -65t65 -28q38 0 65.5 27.5t27.5 65.5l-1 286h149v-500h-145z" />
    <glyph glyph-name="yacute" unicode="&#xfd;" horiz-adv-x="560" 
d="M181 581l111 169h147l-115 -169h-143zM260 -169q-48 -31 -132 -31h-109v133h83q48 0 68 11t31 42l8 21l-200 493h160l116 -321l107 321h160l-216 -564q-28 -74 -76 -105z" />
    <glyph glyph-name="thorn" unicode="&#xfe;" horiz-adv-x="640" 
d="M545.5 440q58.5 -70 58.5 -194q0 -116 -61 -186t-171 -70q-44 0 -79 15t-56.5 36t-27.5 39v-254h-146v874h135v-283q20 43 69 68t107 25q113 0 171.5 -70zM420.5 150.5q32.5 36.5 32.5 95.5q0 61 -33.5 98t-88.5 37q-54 0 -88 -37.5t-34 -97.5q0 -59 34.5 -95.5
t91.5 -36.5q53 0 85.5 36.5z" />
    <glyph glyph-name="ydieresis" unicode="&#xff;" horiz-adv-x="560" 
d="M95.5 608q-26.5 26 -26.5 63t26.5 63.5t63.5 26.5q36 0 62 -26.5t26 -63.5t-26 -63t-62 -26q-37 0 -63.5 26zM339.5 608q-26.5 26 -26.5 63t26.5 63.5t63.5 26.5q36 0 62 -26.5t26 -63.5t-26 -63t-62 -26q-37 0 -63.5 26zM260 -169q-48 -31 -132 -31h-109v133h83
q48 0 68 11t31 42l8 21l-200 504h160l116 -332l107 332h160l-216 -575q-28 -74 -76 -105z" />
    <glyph glyph-name="Amacron" unicode="&#x100;" horiz-adv-x="716" 
d="M197 784v115h339v-115h-339zM217 123l-45 -123h-164l263 700h163l272 -700h-164l-46 123h-279zM357 550l-92 -293h184z" />
    <glyph glyph-name="amacron" unicode="&#x101;" horiz-adv-x="552" 
d="M150 594v116h338v-116h-338zM386 75q-19 -41 -61.5 -64t-103.5 -23q-55 0 -97 21.5t-65 59t-23 85.5q0 78 62.5 117t164.5 39q50 0 103 -9l-1 30q0 30 -23 47t-59 17q-35 0 -70 -15t-60 -41l-79 85q31 36 96 61t126 25q64 0 113 -25t76 -71t27 -106v-308h-126v75z
M286 228q-105 0 -105 -65q0 -30 21 -48.5t57 -18.5q51 0 79.5 27t28.5 75v22q-48 8 -81 8z" />
    <glyph glyph-name="Abreve" unicode="&#x102;" horiz-adv-x="716" 
d="M236.5 806.5q-49.5 42.5 -49.5 112.5v11h117q0 -33 17.5 -53t45.5 -20t45 20t17 53h117v-11q0 -70 -49.5 -112.5t-129.5 -42.5q-81 0 -130.5 42.5zM217 123l-45 -123h-164l263 700h163l272 -700h-164l-46 123h-279zM357 550l-92 -293h184z" />
    <glyph glyph-name="abreve" unicode="&#x103;" horiz-adv-x="611" 
d="M176.5 617.5q-49.5 42.5 -49.5 111.5v11h117q0 -32 17.5 -52t45.5 -20t45 20t17 52h117v-11q0 -69 -49.5 -111.5t-129.5 -42.5q-81 0 -130.5 42.5zM386 75q-19 -41 -61.5 -64t-103.5 -23q-55 0 -97 21.5t-65 59t-23 85.5q0 78 62.5 117t164.5 39q50 0 103 -9l-1 30
q0 30 -23 47t-59 17q-35 0 -70 -15t-60 -41l-79 85q31 36 96 61t126 25q64 0 113 -25t76 -71t27 -106v-308h-126v75zM286 228q-105 0 -105 -65q0 -30 21 -48.5t57 -18.5q51 0 79.5 27t28.5 75v22q-48 8 -81 8z" />
    <glyph glyph-name="Aogonek" unicode="&#x104;" horiz-adv-x="716" 
d="M667 -109h30v-105h-59q-69 0 -106.5 26.5t-37.5 70.5q0 33 18.5 63t54.5 54h-25l-46 123h-279l-45 -123h-164l263 700h163l272 -700h-10q-44 -28 -62.5 -47t-18.5 -35q0 -27 52 -27zM265 257h184l-92 293z" />
    <glyph glyph-name="aogonek" unicode="&#x105;" horiz-adv-x="569" 
d="M449 -48q-19 -19 -19 -34q0 -27 52 -27h30v-105h-59q-69 0 -106.5 26.5t-37.5 70.5q0 32 20 63t57 56v73q-19 -41 -61.5 -64t-103.5 -23q-55 0 -97 21.5t-65 59t-23 85.5q0 78 62.5 117t164.5 39q50 0 103 -9l-1 30q0 30 -23 47t-59 17q-35 0 -70 -15t-60 -41l-79 85
q31 36 96 61t126 25q64 0 113 -25t76 -71t27 -106v-308q-44 -29 -63 -48zM367 220q-48 8 -81 8q-105 0 -105 -65q0 -30 21 -48.5t57 -18.5q51 0 79.5 27t28.5 75v22z" />
    <glyph glyph-name="Cacute" unicode="&#x106;" horiz-adv-x="737" 
d="M326 770l111 169h147l-115 -169h-143zM213 34q-83 48 -125.5 130.5t-42.5 184.5t43.5 185t126.5 131t197 48q98 0 176 -46t125 -131l-126 -74q-26 49 -72.5 77.5t-102.5 28.5q-63 0 -110 -29t-71.5 -78.5t-24.5 -111.5t24 -111.5t70.5 -78.5t111.5 -29q57 0 104 29.5
t73 78.5l124 -78q-43 -86 -121.5 -130t-179.5 -44q-116 0 -199 48z" />
    <glyph glyph-name="cacute" unicode="&#x107;" horiz-adv-x="547" 
d="M204 581l111 169h147l-115 -169h-143zM163.5 20q-60.5 34 -94 95.5t-33.5 139.5t33.5 139.5t94.5 95.5t139 34q76 0 136 -32t92 -89l-109 -77q-43 63 -114 63q-55 0 -88 -36.5t-33 -97.5t33 -97.5t88 -36.5q71 0 114 64l110 -77q-32 -58 -92.5 -90t-136.5 -32
q-79 0 -139.5 34z" />
    <glyph glyph-name="Ccircumflex" unicode="&#x108;" horiz-adv-x="737" 
d="M184 770l145 169h148l145 -169h-149l-70 85l-70 -85h-149zM213 34q-83 48 -125.5 130.5t-42.5 184.5t43.5 185t126.5 131t197 48q98 0 176 -46t125 -131l-126 -74q-26 49 -72.5 77.5t-102.5 28.5q-63 0 -110 -29t-71.5 -78.5t-24.5 -111.5t24 -111.5t70.5 -78.5
t111.5 -29q57 0 104 29.5t73 78.5l124 -78q-43 -86 -121.5 -130t-179.5 -44q-116 0 -199 48z" />
    <glyph glyph-name="ccircumflex" unicode="&#x109;" horiz-adv-x="547" 
d="M83 581l145 169h148l145 -169h-149l-70 85l-70 -85h-149zM163.5 20q-60.5 34 -94 95.5t-33.5 139.5t33.5 139.5t94.5 95.5t139 34q76 0 136 -32t92 -89l-109 -77q-43 63 -114 63q-55 0 -88 -36.5t-33 -97.5t33 -97.5t88 -36.5q71 0 114 64l110 -77q-32 -58 -92.5 -90
t-136.5 -32q-79 0 -139.5 34z" />
    <glyph glyph-name="Cdotaccent" unicode="&#x10a;" horiz-adv-x="737" 
d="M339 798q-26 26 -26 63t26.5 63t63.5 26q36 0 62 -26t26 -63t-26 -63t-62 -26q-38 0 -64 26zM213 34q-83 48 -125.5 130.5t-42.5 184.5t43.5 185t126.5 131t197 48q98 0 176 -46t125 -131l-126 -74q-26 49 -72.5 77.5t-102.5 28.5q-63 0 -110 -29t-71.5 -78.5
t-24.5 -111.5t24 -111.5t70.5 -78.5t111.5 -29q57 0 104 29.5t73 78.5l124 -78q-43 -86 -121.5 -130t-179.5 -44q-116 0 -199 48z" />
    <glyph glyph-name="cdotaccent" unicode="&#x10b;" horiz-adv-x="547" 
d="M238.5 608q-26.5 26 -26.5 63t26.5 63.5t63.5 26.5q36 0 62.5 -26.5t26.5 -63.5t-26.5 -63t-62.5 -26q-37 0 -63.5 26zM163.5 20q-60.5 34 -94 95.5t-33.5 139.5t33.5 139.5t94.5 95.5t139 34q76 0 136 -32t92 -89l-109 -77q-43 63 -114 63q-55 0 -88 -36.5t-33 -97.5
t33 -97.5t88 -36.5q71 0 114 64l110 -77q-32 -58 -92.5 -90t-136.5 -32q-79 0 -139.5 34z" />
    <glyph glyph-name="Ccaron" unicode="&#x10c;" horiz-adv-x="737" 
d="M184 939h149l70 -85l70 85h149l-145 -169h-148zM213 34q-83 48 -125.5 130.5t-42.5 184.5t43.5 185t126.5 131t197 48q98 0 176 -46t125 -131l-126 -74q-26 49 -72.5 77.5t-102.5 28.5q-63 0 -110 -29t-71.5 -78.5t-24.5 -111.5t24 -111.5t70.5 -78.5t111.5 -29
q57 0 104 29.5t73 78.5l124 -78q-43 -86 -121.5 -130t-179.5 -44q-116 0 -199 48z" />
    <glyph glyph-name="ccaron" unicode="&#x10d;" horiz-adv-x="547" 
d="M83 750h149l70 -85l70 85h149l-145 -169h-148zM163.5 20q-60.5 34 -94 95.5t-33.5 139.5t33.5 139.5t94.5 95.5t139 34q76 0 136 -32t92 -89l-109 -77q-43 63 -114 63q-55 0 -88 -36.5t-33 -97.5t33 -97.5t88 -36.5q71 0 114 64l110 -77q-32 -58 -92.5 -90t-136.5 -32
q-79 0 -139.5 34z" />
    <glyph glyph-name="Dcaron" unicode="&#x10e;" horiz-adv-x="737" 
d="M107 939h149l70 -85l70 85h149l-145 -169h-148zM533 653.5q76 -46.5 118.5 -126.5t42.5 -177t-42.5 -177t-118.5 -126.5t-172 -46.5h-286v700h286q96 0 172 -46.5zM442 170q43 27 66.5 74.5t23.5 105.5t-23.5 105.5t-66.5 74.5t-101 27h-112v-414h112q58 0 101 27z" />
    <glyph glyph-name="dcaron" unicode="&#x10f;" horiz-adv-x="733" 
d="M753 521h-115v211h115v-211zM440 0v83q-21 -44 -61.5 -68.5t-96.5 -24.5q-76 0 -132 32t-86 91t-30 138q0 77 29 136t83.5 91.5t128.5 32.5q41 0 74.5 -15t53.5 -36t26 -40v310h146v-730h-135zM395 157.5q34 37.5 34 97.5q0 61 -34 98.5t-88 37.5q-55 0 -88.5 -37.5
t-33.5 -98.5t33.5 -98t88.5 -37q54 0 88 37.5z" />
    <glyph glyph-name="Dcroat" unicode="&#x110;" horiz-adv-x="765" 
d="M555.5 658q78.5 -42 122.5 -121t44 -187t-44 -187t-122.5 -121t-180.5 -42h-272v289h-89v122h89v289h272q102 0 180.5 -42zM512.5 195q47.5 52 47.5 155t-47.5 155t-137.5 52h-117v-146h144v-122h-144v-146h117q90 0 137.5 52z" />
    <glyph glyph-name="dcroat" unicode="&#x111;" horiz-adv-x="638" 
d="M668 545h-93v-545h-135v83q-21 -44 -61.5 -68.5t-96.5 -24.5q-76 0 -132 32t-86 91t-30 138q0 77 29 136t83.5 91.5t128.5 32.5q41 0 74.5 -15t53.5 -36t26 -40v125h-99v116h99v69h146v-69h93v-116zM395 157.5q34 37.5 34 97.5q0 61 -34 98.5t-88 37.5q-55 0 -88.5 -37.5
t-33.5 -98.5t33.5 -98t88.5 -37q54 0 88 37.5z" />
    <glyph glyph-name="Emacron" unicode="&#x112;" horiz-adv-x="643" 
d="M493 899v-115h-339v115h339zM591 0h-516v700h506v-139h-352v-151h328v-138h-328v-132h362v-140z" />
    <glyph glyph-name="emacron" unicode="&#x113;" horiz-adv-x="603" 
d="M470 710v-116h-338v116h338zM224 139.5q39 -28.5 92 -28.5q47 0 88 14.5t64 38.5l81 -88q-32 -40 -97 -63t-142 -23q-82 0 -144.5 33t-97 92.5t-34.5 137.5q0 75 34.5 133.5t96 91t139.5 32.5q124 0 194 -66.5t70 -187.5q0 -28 -2 -43h-381q0 -45 39 -73.5zM243.5 386.5
q-27.5 -14.5 -43.5 -37t-17 -45.5h237q-1 41 -32 69t-84 28q-33 0 -60.5 -14.5z" />
    <glyph glyph-name="Ebreve" unicode="&#x114;" horiz-adv-x="643" 
d="M278 877q17 -20 45 -20t45.5 20t17.5 53h117q0 -74 -49.5 -120t-130.5 -46q-80 0 -129.5 46t-49.5 120h117q0 -33 17 -53zM591 0h-516v700h506v-139h-352v-151h328v-138h-328v-132h362v-140z" />
    <glyph glyph-name="ebreve" unicode="&#x115;" horiz-adv-x="603" 
d="M255.5 688q17.5 -20 45.5 -20t45 20t17 52h117q0 -74 -49.5 -119.5t-129.5 -45.5q-81 0 -130.5 45.5t-49.5 119.5h117q0 -32 17.5 -52zM224 139.5q39 -28.5 92 -28.5q47 0 88 14.5t64 38.5l81 -88q-32 -40 -97 -63t-142 -23q-82 0 -144.5 33t-97 92.5t-34.5 137.5
q0 75 34.5 133.5t96 91t139.5 32.5q124 0 194 -66.5t70 -187.5q0 -28 -2 -43h-381q0 -45 39 -73.5zM243.5 386.5q-27.5 -14.5 -43.5 -37t-17 -45.5h237q-1 41 -32 69t-84 28q-33 0 -60.5 -14.5z" />
    <glyph glyph-name="Edotaccent" unicode="&#x116;" horiz-adv-x="643" 
d="M257 923q25 24 66 24t66.5 -24t25.5 -64t-25.5 -63.5t-66.5 -23.5t-66 23.5t-25 63.5t25 64zM591 0h-516v700h506v-139h-352v-151h328v-138h-328v-132h362v-140z" />
    <glyph glyph-name="edotaccent" unicode="&#x117;" horiz-adv-x="603" 
d="M234.5 733.5q25.5 23.5 66.5 23.5t66.5 -23.5t25.5 -63.5t-25 -64t-67 -24t-67 24t-25 64t25.5 63.5zM224 139.5q39 -28.5 92 -28.5q47 0 88 14.5t64 38.5l81 -88q-32 -40 -97 -63t-142 -23q-82 0 -144.5 33t-97 92.5t-34.5 137.5q0 75 34.5 133.5t96 91t139.5 32.5
q124 0 194 -66.5t70 -187.5q0 -28 -2 -43h-381q0 -45 39 -73.5zM243.5 386.5q-27.5 -14.5 -43.5 -37t-17 -45.5h237q-1 41 -32 69t-84 28q-33 0 -60.5 -14.5z" />
    <glyph glyph-name="Eogonek" unicode="&#x118;" horiz-adv-x="643" 
d="M528 -48q-19 -19 -19 -34q0 -16 18 -21.5t64 -5.5v-105q-74 0 -117.5 9t-64.5 30t-21 58q0 33 19 63.5t55 53.5h-387v700h506v-139h-352v-151h328v-138h-328v-132h362v-140q-44 -29 -63 -48z" />
    <glyph glyph-name="eogonek" unicode="&#x119;" horiz-adv-x="583" 
d="M404 125.5q41 14.5 64 38.5l81 -88q-21 -25 -56.5 -44.5t-81.5 -30.5q-24 -21 -24 -40q0 -27 52 -27h30v-105h-59q-69 0 -106.5 26.5t-37.5 70.5q0 34 21 66q-16 0 -34 3q-100 15 -159.5 84.5t-59.5 173.5q0 75 34.5 133.5t96 91t139.5 32.5q124 0 194 -66.5t70 -187.5
q0 -28 -2 -43h-381q0 -45 39 -73.5t92 -28.5q47 0 88 14.5zM243.5 386.5q-27.5 -14.5 -43.5 -37t-17 -45.5h237q-1 41 -32 69t-84 28q-33 0 -60.5 -14.5z" />
    <glyph glyph-name="Ecaron" unicode="&#x11a;" horiz-adv-x="643" 
d="M397 770h-147l-145 169h148l70 -85l71 85h148zM591 0h-516v700h506v-139h-352v-151h328v-138h-328v-132h362v-140z" />
    <glyph glyph-name="ecaron" unicode="&#x11b;" horiz-adv-x="603" 
d="M375 581h-148l-145 169h149l70 -85l70 85h149zM224 139.5q39 -28.5 92 -28.5q47 0 88 14.5t64 38.5l81 -88q-32 -40 -97 -63t-142 -23q-82 0 -144.5 33t-97 92.5t-34.5 137.5q0 75 34.5 133.5t96 91t139.5 32.5q124 0 194 -66.5t70 -187.5q0 -28 -2 -43h-381
q0 -45 39 -73.5zM243.5 386.5q-27.5 -14.5 -43.5 -37t-17 -45.5h237q-1 41 -32 69t-84 28q-33 0 -60.5 -14.5z" />
    <glyph glyph-name="Gcircumflex" unicode="&#x11c;" horiz-adv-x="764" 
d="M182 770l146 169h147l145 -169h-148l-71 85l-70 -85h-149zM584 25q-79 -39 -173 -39q-117 0 -199.5 48t-124.5 130t-42 184q0 103 43.5 186t126.5 131t196 48q87 0 162 -37.5t126 -102.5l-126 -89q-28 40 -70 62t-92 22q-63 0 -110 -29t-71.5 -79t-24.5 -112
q0 -61 24 -110.5t70.5 -78.5t111.5 -29q107 0 163 65v81h-146v126h288l-1 -268q-52 -70 -131 -109z" />
    <glyph glyph-name="gcircumflex" unicode="&#x11d;" horiz-adv-x="641" 
d="M104 581l146 169h147l145 -169h-148l-71 85l-70 -85h-149zM542.5 -84.5q-35.5 -61.5 -100 -95.5t-149.5 -34q-70 0 -136 22t-107 59l65 107q34 -26 80 -42t87 -16q69 0 112 36.5t43 120.5v22q-18 -39 -67.5 -63t-104.5 -24q-68 0 -120 32.5t-80.5 91t-28.5 135.5
q0 72 28.5 127t80.5 85.5t120 30.5q56 0 100.5 -19t62.5 -51v60h150v-442q0 -81 -35.5 -142.5zM399 172q34 36 34 95q0 58 -34 94t-89 36t-89 -36t-34 -94t34 -94.5t89 -36.5t89 36z" />
    <glyph glyph-name="Gbreve" unicode="&#x11e;" horiz-adv-x="764" 
d="M271.5 806.5q-49.5 42.5 -49.5 112.5v11h117q0 -33 17 -53t45 -20t45.5 20t17.5 53h117v-11q0 -70 -49.5 -112.5t-130.5 -42.5q-80 0 -129.5 42.5zM584 25q-79 -39 -173 -39q-117 0 -199.5 48t-124.5 130t-42 184q0 103 43.5 186t126.5 131t196 48q87 0 162 -37.5
t126 -102.5l-126 -89q-28 40 -70 62t-92 22q-63 0 -110 -29t-71.5 -79t-24.5 -112q0 -61 24 -110.5t70.5 -78.5t111.5 -29q107 0 163 65v81h-146v126h288l-1 -268q-52 -70 -131 -109z" />
    <glyph glyph-name="gbreve" unicode="&#x11f;" horiz-adv-x="641" 
d="M278 688q17 -20 45 -20t45.5 20t17.5 52h117v-11q0 -69 -49.5 -111.5t-130.5 -42.5q-80 0 -129.5 42.5t-49.5 111.5v11h117q0 -32 17 -52zM542.5 -85.5q-35.5 -61.5 -99.5 -95.5t-147 -34q-70 0 -137 24t-107 63l65 107q34 -29 80.5 -46.5t87.5 -17.5q66 0 109 36.5
t43 118.5v24q-19 -38 -68 -62t-104 -24q-68 0 -120 32.5t-80.5 91t-28.5 134.5q0 72 28.5 127.5t80.5 86t120 30.5q56 0 100.5 -19t62.5 -50v59h150v-445q0 -79 -35.5 -140.5zM399 172q34 36 34 94t-34 94.5t-89 36.5t-89 -36t-34 -95t34 -94.5t89 -35.5t89 36z" />
    <glyph glyph-name="Gdotaccent" unicode="&#x120;" horiz-adv-x="764" 
d="M334.5 795.5q-25.5 23.5 -25.5 63.5t25.5 64t66.5 24t66.5 -24t25.5 -64t-25.5 -63.5t-66.5 -23.5t-66.5 23.5zM584 25q-79 -39 -173 -39q-117 0 -199.5 48t-124.5 130t-42 184q0 103 43.5 186t126.5 131t196 48q87 0 162 -37.5t126 -102.5l-126 -89q-28 40 -70 62
t-92 22q-63 0 -110 -29t-71.5 -79t-24.5 -112q0 -61 24 -110.5t70.5 -78.5t111.5 -29q107 0 163 65v81h-146v126h288l-1 -268q-52 -70 -131 -109z" />
    <glyph glyph-name="gdotaccent" unicode="&#x121;" horiz-adv-x="641" 
d="M259.5 734.5q26.5 26.5 63.5 26.5q36 0 62.5 -26.5t26.5 -63.5t-26.5 -63t-62.5 -26q-37 0 -63.5 26t-26.5 63t26.5 63.5zM542.5 -85.5q-35.5 -61.5 -99.5 -95.5t-147 -34q-70 0 -137 24t-107 63l65 107q34 -29 80.5 -46.5t87.5 -17.5q66 0 109 36.5t43 118.5v24
q-19 -38 -68 -62t-104 -24q-68 0 -120 32.5t-80.5 91t-28.5 134.5q0 72 28.5 127.5t80.5 86t120 30.5q56 0 100.5 -19t62.5 -50v59h150v-445q0 -79 -35.5 -140.5zM399 172q34 36 34 94t-34 94.5t-89 36.5t-89 -36t-34 -95t34 -94.5t89 -35.5t89 36z" />
    <glyph glyph-name="uni0122" unicode="&#x122;" horiz-adv-x="764" 
d="M584 25q-79 -39 -173 -39q-117 0 -199.5 48t-124.5 130t-42 184q0 103 43.5 186t126.5 131t196 48q87 0 162 -37.5t126 -102.5l-126 -89q-28 40 -70 62t-92 22q-63 0 -110 -29t-71.5 -79t-24.5 -112q0 -61 24 -110.5t70.5 -78.5t111.5 -29q107 0 163 65v81h-146v126h288
l-1 -268q-52 -70 -131 -109zM489 -81l-72 -188h-116l40 188h148z" />
    <glyph glyph-name="uni0123" unicode="&#x123;" horiz-adv-x="641" 
d="M244 581l111 169h147l-115 -169h-143zM542.5 -85.5q-35.5 -61.5 -99.5 -95.5t-147 -34q-70 0 -137 24t-107 63l65 107q34 -29 80.5 -46.5t87.5 -17.5q66 0 109 36.5t43 118.5v24q-19 -38 -68 -62t-104 -24q-68 0 -120 32.5t-80.5 91t-28.5 134.5q0 72 28.5 127.5t80.5 86
t120 30.5q56 0 100.5 -19t62.5 -50v59h150v-445q0 -79 -35.5 -140.5zM399 172q34 36 34 94t-34 94.5t-89 36.5t-89 -36t-34 -95t34 -94.5t89 -35.5t89 36z" />
    <glyph glyph-name="Hcircumflex" unicode="&#x124;" horiz-adv-x="757" 
d="M379 855l-71 -85h-148l145 169h147l146 -169h-149zM682 0h-154v263h-298v-263h-155v700h155v-294h298v294h154v-700z" />
    <glyph glyph-name="hcircumflex" unicode="&#x125;" horiz-adv-x="606" 
d="M138 887l-70 -85h-149l145 169h148l145 -169h-149zM498 461.5q49 -48.5 49 -126.5v-335h-150v296q0 41 -24.5 67t-63.5 26q-42 0 -69.5 -29t-27.5 -74v-286h-149v730h149v-288q18 31 61 49.5t97 18.5q79 0 128 -48.5z" />
    <glyph glyph-name="Hbar" unicode="&#x126;" horiz-adv-x="793" 
d="M700 512v-512h-154v286h-299v-286h-154v512h-70v107h70v81h154v-81h299v81h154v-81h70v-107h-70zM247 512v-83h299v83h-299z" />
    <glyph glyph-name="hbar" unicode="&#x127;" horiz-adv-x="606" 
d="M500 462q46 -50 46 -141v-321h-149v282q0 95 -85 95q-48 0 -74 -27t-26 -79v-271h-149v568h-70v97h70v67h149v-67h161v-97h-161v-141q22 40 63.5 62.5t96.5 22.5q82 0 128 -50z" />
    <glyph glyph-name="Itilde" unicode="&#x128;" horiz-adv-x="309" 
d="M197 780q-19 7 -46 22q-29 19 -49 19q-14 0 -20.5 -11t-6.5 -35h-108q0 159 104 159q22 0 41 -7t46 -22q29 -19 48 -19q14 0 21 11t7 35h108q0 -79 -26.5 -119t-77.5 -40q-22 0 -41 7zM232 700v-700h-155v700h155z" />
    <glyph glyph-name="itilde" unicode="&#x129;" horiz-adv-x="278" 
d="M87 632q-11 0 -15 -10t-4 -36h-94q0 82 20.5 120.5t61.5 38.5q22 0 41 -7t45 -22q30 -20 49 -20q10 0 14.5 10t4.5 36h94q0 -82 -20.5 -120.5t-61.5 -38.5q-22 0 -41 7t-46 22q-28 20 -48 20zM213 500v-500h-149v500h149z" />
    <glyph glyph-name="Imacron" unicode="&#x12a;" horiz-adv-x="309" 
d="M324 899v-115h-339v115h339zM232 700v-700h-155v700h155z" />
    <glyph glyph-name="imacron" unicode="&#x12b;" horiz-adv-x="278" 
d="M278 710v-116h-278v116h278zM213 500v-500h-149v500h149z" />
    <glyph glyph-name="Ibreve" unicode="&#x12c;" horiz-adv-x="309" 
d="M22.5 805.5q-47.5 41.5 -47.5 113.5v11h117q0 -73 62 -73q63 0 63 73h117v-11q0 -72 -48 -113.5t-132 -41.5t-131.5 41.5zM232 700v-700h-155v700h155z" />
    <glyph glyph-name="ibreve" unicode="&#x12d;" horiz-adv-x="278" 
d="M21 616.5q-44 41.5 -44 112.5v11h109q0 -72 53 -72t53 72h109v-11q0 -71 -44 -112.5t-118 -41.5t-118 41.5zM213 500v-500h-149v500h149z" />
    <glyph glyph-name="Iogonek" unicode="&#x12e;" horiz-adv-x="309" 
d="M168.5 -48q-18.5 -19 -18.5 -34q0 -26 51 -27h31v-105h-60q-68 0 -105.5 26.5t-37.5 70.5q0 33 19 63.5t55 54.5h-26v699h155v-700q-45 -29 -63.5 -48z" />
    <glyph glyph-name="iogonek" unicode="&#x12f;" horiz-adv-x="278" 
d="M205.5 733.5q25.5 -23.5 25.5 -63.5t-25 -64t-67 -24t-67 24t-25 64t25.5 63.5t66.5 23.5t66.5 -23.5zM213 0q-44 -29 -62.5 -48t-18.5 -34q0 -27 51 -27h30v-105h-59q-68 0 -105.5 26.5t-37.5 70.5q0 33 19 63.5t55 54.5h-21v499h149v-500z" />
    <glyph glyph-name="Idotaccent" unicode="&#x130;" horiz-adv-x="309" 
d="M82.5 796.5q-24.5 24.5 -24.5 62.5q0 39 25 63.5t64 24.5q40 0 65 -25t25 -63t-25 -62.5t-65 -24.5t-64.5 24.5zM232 700v-700h-155v700h155z" />
    <glyph glyph-name="dotlessi" unicode="&#x131;" horiz-adv-x="278" 
d="M213 500v-500h-149v500h149z" />
    <glyph glyph-name="ij" unicode="&#x133;" horiz-adv-x="555" 
d="M72 606q-25 24 -25 64t25.5 63.5t66.5 23.5t66.5 -23.5t25.5 -63.5t-25 -64t-67 -24t-67 24zM350 606q-25 24 -25 64t25 63.5t66 23.5t66.5 -23.5t25.5 -63.5t-25 -64t-67 -24q-41 0 -66 24zM213 500v-500h-149v500h149zM330 -57q12 12 12 38v519h149v-547
q0 -75 -41.5 -114t-123.5 -39h-92v131h58q26 0 38 12z" />
    <glyph glyph-name="Jcircumflex" unicode="&#x134;" horiz-adv-x="574" 
d="M432 855l-71 -85h-148l145 169h147l146 -169h-149zM153 15q-57 31 -93 83t-40 112l152 48v-21q0 -42 29.5 -72t72.5 -30q42 0 71.5 30t29.5 72v463h155v-459q0 -70 -34.5 -129t-93.5 -93.5t-128 -34.5q-64 0 -121 31z" />
    <glyph glyph-name="jcircumflex" unicode="&#x135;" horiz-adv-x="278" 
d="M190 581l-51 86l-51 -86h-132l114 169h138l114 -169h-132zM213 -47q0 -75 -41.5 -114t-123.5 -39h-92v131h58q26 0 38 12t12 38v519h149v-547z" />
    <glyph glyph-name="uni0136" unicode="&#x136;" horiz-adv-x="697" 
d="M392 349l301 -349h-192l-214 244l-57 -60v-184h-155v700h155v-318l276 318h187zM435 -81l-72 -188h-116l40 188h148z" />
    <glyph glyph-name="uni0137" unicode="&#x137;" horiz-adv-x="570" 
d="M249 172l-37 -43v-129h-149v732h149v-432l184 200h172l-207 -232l208 -268h-176zM374 -81l-72 -188h-115l40 188h147z" />
    <glyph glyph-name="Lacute" unicode="&#x139;" horiz-adv-x="586" 
d="M57 770l111 169h147l-115 -169h-143zM561 0h-486v700h155v-557h331v-143z" />
    <glyph glyph-name="lacute" unicode="&#x13a;" horiz-adv-x="269" 
d="M59 802l111 169h147l-115 -169h-143zM59 732h149v-732h-149v732z" />
    <glyph glyph-name="uni013B" unicode="&#x13b;" horiz-adv-x="586" 
d="M561 0h-486v700h155v-557h331v-143zM382 -81l-72 -188h-116l40 188h148z" />
    <glyph glyph-name="uni013C" unicode="&#x13c;" horiz-adv-x="269" 
d="M59 732h149v-732h-149v732zM236 -81l-72 -188h-115l40 188h147z" />
    <glyph glyph-name="Lcaron" unicode="&#x13d;" horiz-adv-x="586" 
d="M475 714l-32 -212h-114v212h146zM561 0h-486v700h155v-557h331v-143z" />
    <glyph glyph-name="lcaron" unicode="&#x13e;" horiz-adv-x="269" 
d="M59 732h149v-732h-149v732zM359 732v-211h-115v211h115z" />
    <glyph glyph-name="Ldot" unicode="&#x13f;" horiz-adv-x="592" 
d="M561 0h-486v700h155v-557h331v-143zM343.5 290.5q-26.5 26.5 -26.5 69.5t26.5 69.5t69.5 26.5t70 -26.5t27 -69.5t-26.5 -69.5t-70.5 -26.5q-43 0 -69.5 26.5z" />
    <glyph glyph-name="ldot" unicode="&#x140;" horiz-adv-x="269" 
d="M59 732h149v-732h-149v732zM297.5 291.5q-26.5 26.5 -26.5 63.5q0 36 26.5 62.5t63.5 26.5q36 0 62 -26.5t26 -62.5q0 -37 -26 -63.5t-62 -26.5q-37 0 -63.5 26.5z" />
    <glyph glyph-name="Lslash" unicode="&#x141;" horiz-adv-x="617" 
d="M592 0h-486v234l-100 -52v134l100 52v332h155v-252l215 111v-134l-215 -111v-171h331v-143z" />
    <glyph glyph-name="lslash" unicode="&#x142;" horiz-adv-x="371" 
d="M248 0h-149v279l-90 -48v126l90 49v326h149v-245l106 58v-127l-106 -57v-361z" />
    <glyph glyph-name="Nacute" unicode="&#x143;" horiz-adv-x="782" 
d="M291 770l111 169h148l-115 -169h-144zM707 0h-145l-334 448v-448h-153v700h145l335 -449v449h152v-700z" />
    <glyph glyph-name="nacute" unicode="&#x144;" horiz-adv-x="606" 
d="M211 581l111 169h147l-115 -169h-143zM457.5 490q40.5 -24 64.5 -64.5t24 -88.5v-337h-149v286q0 38 -27 65t-65 28q-39 0 -66 -27.5t-27 -65.5l1 -286h-150v500h146v-74q21 40 65 64t95 24q48 0 88.5 -24z" />
    <glyph glyph-name="uni0145" unicode="&#x145;" horiz-adv-x="782" 
d="M707 0h-146l-333 449v-449h-153v700h146l333 -449v449h153v-700zM465 -81l-72 -188h-115l40 188h147z" />
    <glyph glyph-name="uni0146" unicode="&#x146;" horiz-adv-x="606" 
d="M457.5 490q40.5 -24 64.5 -64.5t24 -88.5v-337h-149v286q0 38 -27 65t-65 28q-39 0 -66 -27.5t-27 -65.5l1 -286h-150v500h146v-74q21 40 65 64t95 24q48 0 88.5 -24zM377 -81l-72 -188h-116l40 188h148z" />
    <glyph glyph-name="Ncaron" unicode="&#x147;" horiz-adv-x="782" 
d="M173 939h148l71 -85l70 85h148l-145 -169h-147zM707 0h-145l-334 448v-448h-153v700h145l335 -449v449h152v-700z" />
    <glyph glyph-name="ncaron" unicode="&#x148;" horiz-adv-x="606" 
d="M379 581h-148l-145 169h149l70 -85l70 85h149zM457.5 490q40.5 -24 64.5 -64.5t24 -88.5v-337h-149v286q0 38 -27 65t-65 28q-39 0 -66 -27.5t-27 -65.5l1 -286h-150v500h146v-74q21 40 65 64t95 24q48 0 88.5 -24z" />
    <glyph glyph-name="Eng" unicode="&#x14a;" horiz-adv-x="782" 
d="M665.5 -147q-41.5 -39 -123.5 -39h-92v131h58q45 0 49 39l1 18l-330 446v-448h-153v700h145l335 -449v449h152v-733q0 -75 -41.5 -114z" />
    <glyph glyph-name="eng" unicode="&#x14b;" horiz-adv-x="606" 
d="M457.5 490q40.5 -24 64.5 -64.5t24 -88.5v-382q-3 -69 -44.5 -105t-120.5 -36h-92v131h58q26 0 38 11.5t12 37.5v292q0 38 -27 65t-65 28q-39 0 -66 -27.5t-27 -65.5l1 -286h-150v500h146v-74q21 40 65 64t95 24q48 0 88.5 -24z" />
    <glyph glyph-name="Omacron" unicode="&#x14c;" horiz-adv-x="823" 
d="M581 899v-115h-339v115h339zM90 534.5q48 84.5 132.5 132.5t188.5 47q104 1 189 -47t133 -132.5t47 -185.5q1 -101 -47 -185t-133 -131.5t-189 -46.5q-104 -1 -188.5 46.5t-132.5 131.5t-47 185q-1 101 47 185.5zM592 462q-26 50 -73 78t-108 28q-60 0 -107 -28t-73 -78
t-26 -113t26 -112.5t73 -77t107 -27.5q61 0 108 27.5t73 77t26 112.5t-26 113z" />
    <glyph glyph-name="omacron" unicode="&#x14d;" horiz-adv-x="621" 
d="M480 710v-116h-339v116h339zM165.5 22q-62.5 36 -97 97.5t-34.5 135.5q0 75 34 136.5t97.5 97t147.5 35.5t145 -35.5t93.5 -96.5t32.5 -137q0 -75 -33 -136.5t-95.5 -97t-146.5 -35.5q-81 0 -143.5 36zM400 158.5q33 38.5 33 96.5q0 60 -31 98t-89 38q-59 0 -93.5 -38.5
t-34.5 -97.5t32.5 -97t91.5 -38q58 0 91 38.5z" />
    <glyph glyph-name="Obreve" unicode="&#x14e;" horiz-adv-x="823" 
d="M281.5 806.5q-49.5 42.5 -49.5 112.5v11h117q0 -33 17 -53t45 -20t45.5 20t17.5 53h117v-11q0 -70 -49.5 -112.5t-130.5 -42.5q-80 0 -129.5 42.5zM221.5 32q-83.5 46 -130 128.5t-46.5 189.5t46.5 189.5t130 128.5t191.5 46t191.5 -46t130 -128.5t46.5 -189.5
t-46.5 -189.5t-130 -128.5t-191.5 -46t-191.5 46zM521 158.5q47 27.5 73.5 77.5t26.5 114t-26.5 114t-73.5 77.5t-108 27.5t-108 -27.5t-73.5 -77.5t-26.5 -114t26.5 -114t73.5 -77.5t108 -27.5t108 27.5z" />
    <glyph glyph-name="obreve" unicode="&#x14f;" horiz-adv-x="621" 
d="M265.5 688q17.5 -20 45.5 -20t45 20t17 52h117q0 -74 -49.5 -119.5t-129.5 -45.5q-81 0 -130.5 45.5t-49.5 119.5h117q0 -32 17.5 -52zM165.5 22q-62.5 36 -97 97.5t-34.5 135.5q0 75 34 136.5t97.5 97t147.5 35.5t145 -35.5t93.5 -96.5t32.5 -137q0 -75 -33 -136.5
t-95.5 -97t-146.5 -35.5q-81 0 -143.5 36zM400 158.5q33 38.5 33 96.5q0 60 -31 98t-89 38q-59 0 -93.5 -38.5t-34.5 -97.5t32.5 -97t91.5 -38q58 0 91 38.5z" />
    <glyph glyph-name="Ohungarumlaut" unicode="&#x150;" horiz-adv-x="823" 
d="M465 939l-117 -169h-145l114 169h148zM684 939l-117 -169h-144l114 169h147zM90 534.5q48 84.5 132.5 132.5t188.5 47q104 1 189 -47t133 -132.5t47 -185.5q1 -101 -47 -185t-133 -131.5t-189 -46.5q-104 -1 -188.5 46.5t-132.5 131.5t-47 185q-1 101 47 185.5zM592 462
q-26 50 -73 78t-108 28q-60 0 -107 -28t-73 -78t-26 -113t26 -112.5t73 -77t107 -27.5q61 0 108 27.5t73 77t26 112.5t-26 113z" />
    <glyph glyph-name="ohungarumlaut" unicode="&#x151;" horiz-adv-x="621" 
d="M104 581l111 169h147l-115 -169h-143zM329 581l111 169h147l-115 -169h-143zM165.5 22q-62.5 36 -97 97.5t-34.5 135.5q0 75 34 136.5t97.5 97t147.5 35.5t145 -35.5t93.5 -96.5t32.5 -137q0 -75 -33 -136.5t-95.5 -97t-146.5 -35.5q-81 0 -143.5 36zM400 158.5
q33 38.5 33 96.5q0 60 -31 98t-89 38q-59 0 -93.5 -38.5t-34.5 -97.5t32.5 -97t91.5 -38q58 0 91 38.5z" />
    <glyph glyph-name="OE" unicode="&#x152;" horiz-adv-x="1084" 
d="M411 0q-108 0 -191.5 43.5t-130 123t-46.5 182.5q-1 102 46 182.5t131.5 125t190.5 43.5h612v-139h-353v-139h328v-137h-328v-145h363v-140h-622zM411 557q-93 0 -149.5 -56.5t-56.5 -151.5q0 -94 56.5 -150t149.5 -56h105v414h-105z" />
    <glyph glyph-name="oe" unicode="&#x153;" horiz-adv-x="1001" 
d="M896 443.5q70 -66.5 70 -185.5q0 -29 -2 -45h-381q0 -45 39.5 -73.5t92.5 -28.5q46 0 87 14.5t64 38.5l81 -88q-32 -40 -97 -63t-141 -23q-62 0 -113 18.5t-87 53.5q-36 -36 -87 -56t-113 -20q-81 0 -143.5 36t-97 97.5t-34.5 135.5q0 75 34 136.5t97.5 97t147.5 35.5
q64 0 115 -21t86 -59q36 32 84 49t104 17q124 0 194 -66.5zM818 304q0 41 -31.5 69t-84.5 28q-32 0 -60 -14.5t-44 -37t-17 -45.5h237zM395 153.5q32 33.5 37 85.5v14v17q-3 54 -34 87.5t-85 33.5q-59 0 -93.5 -38.5t-34.5 -97.5t32.5 -97t91.5 -38q54 0 86 33.5z" />
    <glyph glyph-name="Racute" unicode="&#x154;" horiz-adv-x="687" 
d="M232 770l111 169h147l-115 -169h-143zM228 1h-155v699h327q63 0 116 -31t84 -84t31 -116q0 -75 -43.5 -134.5t-112.5 -81.5l-17 -4l194 -248l-185 -1l-177 238h-62v-237zM443.5 404q26.5 27 26.5 65t-26.5 65t-64.5 27h-151v-184h151q38 0 64.5 27z" />
    <glyph glyph-name="racute" unicode="&#x155;" horiz-adv-x="421" 
d="M141 581l111 169h147l-115 -169h-143zM402 506l-1 -141q-23 1 -70 1q-60 0 -89.5 -31t-29.5 -96v-239h-149v500h146v-82q20 43 60 68.5t90 25.5q22 0 43 -6z" />
    <glyph glyph-name="uni0156" unicode="&#x156;" horiz-adv-x="687" 
d="M228 1h-155v699h327q63 0 116 -31t84 -84t31 -116q0 -75 -43.5 -134.5t-112.5 -81.5l-17 -4l194 -248l-185 -1l-177 238h-62v-237zM443.5 404q26.5 27 26.5 65t-26.5 65t-64.5 27h-151v-184h151q38 0 64.5 27zM420 -81l-72 -188h-116l40 188h148z" />
    <glyph glyph-name="uni0157" unicode="&#x157;" horiz-adv-x="421" 
d="M402 506l-1 -141q-23 1 -70 1q-60 0 -89.5 -31t-29.5 -96v-239h-149v500h146v-82q20 43 60 68.5t90 25.5q22 0 43 -6zM212 -81l-72 -188h-116l40 188h148z" />
    <glyph glyph-name="Rcaron" unicode="&#x158;" horiz-adv-x="687" 
d="M113 939h148l71 -85l70 85h149l-146 -169h-147zM228 1h-155v699h327q63 0 116 -31t84 -84t31 -116q0 -75 -43.5 -134.5t-112.5 -81.5l-17 -4l194 -248l-185 -1l-177 238h-62v-237zM443.5 404q26.5 27 26.5 65t-26.5 65t-64.5 27h-151v-184h151q38 0 64.5 27z" />
    <glyph glyph-name="rcaron" unicode="&#x159;" horiz-adv-x="421" 
d="M293 581h-148l-145 169h149l70 -85l70 85h149zM402 506l-1 -141q-23 1 -70 1q-60 0 -89.5 -31t-29.5 -96v-239h-149v500h146v-82q20 43 60 68.5t90 25.5q22 0 43 -6z" />
    <glyph glyph-name="Sacute" unicode="&#x15a;" horiz-adv-x="636" 
d="M232 770l111 169h147l-115 -169h-143zM144 27q-80 41 -118 114l105 84q33 -48 86 -74t117 -26q57 0 86.5 20t29.5 56q0 27 -22 44t-75 30l-110 27q-198 48 -198 203q0 62 32 109.5t92.5 73.5t143.5 26q95 0 167 -34t109 -95l-105 -85q-63 76 -172 76q-54 0 -82.5 -18
t-28.5 -50q0 -24 22.5 -41t78.5 -30l114 -27q190 -47 190 -201q0 -66 -33.5 -116.5t-96 -78.5t-147.5 -28q-105 0 -185 41z" />
    <glyph glyph-name="sacute" unicode="&#x15b;" horiz-adv-x="516" 
d="M180 581l111 169h148l-115 -169h-144zM126 8.5q-62 22.5 -100 62.5l64 102q33 -29 80 -47t93 -18q35 0 53.5 11t18.5 29q0 16 -13.5 25.5t-43.5 17.5l-90 22q-74 18 -108.5 53.5t-34.5 90.5q0 77 58 122t158 45q66 0 123.5 -20t92.5 -55l-66 -101q-77 54 -150 54
q-33 0 -50.5 -10.5t-17.5 -28.5q0 -14 13 -23t42 -16l90 -22q77 -19 112 -54.5t35 -91.5q0 -79 -59.5 -124.5t-164.5 -45.5q-73 0 -135 22.5z" />
    <glyph glyph-name="Scircumflex" unicode="&#x15c;" horiz-adv-x="636" 
d="M99 770l145 169h147l145 -169h-148l-70 85l-71 -85h-148zM606 209q0 -66 -33.5 -116.5t-96 -78.5t-147.5 -28q-105 0 -185 41t-118 114l105 84q33 -48 86 -74t117 -26q57 0 86.5 20t29.5 56q0 27 -22 44t-75 30l-110 27q-198 48 -198 203q0 62 32 109.5t92.5 73.5
t143.5 26q95 0 167 -34t109 -95l-105 -85q-63 76 -172 76q-54 0 -82.5 -18t-28.5 -50q0 -24 22.5 -41t78.5 -30l114 -27q190 -47 190 -201z" />
    <glyph glyph-name="scircumflex" unicode="&#x15d;" horiz-adv-x="516" 
d="M41 581l145 169h147l145 -169h-148l-71 85l-70 -85h-148zM450 247.5q35 -35.5 35 -91.5q0 -79 -59.5 -124.5t-164.5 -45.5q-73 0 -135 22.5t-100 62.5l64 102q33 -29 80 -47t93 -18q35 0 53.5 11t18.5 29q0 16 -13.5 25.5t-43.5 17.5l-90 22q-74 18 -108.5 53.5
t-34.5 90.5q0 77 58 122t158 45q66 0 123.5 -20t92.5 -55l-66 -101q-77 54 -150 54q-33 0 -50.5 -10.5t-17.5 -28.5q0 -14 13 -23t42 -16l90 -22q77 -19 112 -54.5z" />
    <glyph glyph-name="Scedilla" unicode="&#x15e;" horiz-adv-x="636" 
d="M191 -200l75 191q-83 10 -145.5 49t-94.5 101l105 84q33 -48 86 -74t117 -26q57 0 86.5 20t29.5 56q0 27 -22 44t-75 30l-110 27q-198 48 -198 203q0 62 32 109.5t92.5 73.5t143.5 26q95 0 167 -34t109 -95l-105 -85q-63 76 -172 76q-54 0 -82.5 -18t-28.5 -50
q0 -24 22.5 -41t78.5 -30l114 -27q190 -47 190 -201q0 -87 -56 -145.5t-155 -72.5l-53 -191h-151z" />
    <glyph glyph-name="scedilla" unicode="&#x15f;" horiz-adv-x="516" 
d="M443.5 48q-41.5 -43 -117.5 -56l-52 -192h-151l74 191q-54 8 -98.5 28.5t-72.5 51.5l64 102q33 -29 80 -47t93 -18q35 0 53.5 11t18.5 29q0 16 -13.5 25.5t-43.5 17.5l-90 22q-74 18 -108.5 53.5t-34.5 90.5q0 77 58 122t158 45q66 0 123.5 -20t92.5 -55l-66 -101
q-77 54 -150 54q-33 0 -50.5 -10.5t-17.5 -28.5q0 -14 13 -23t42 -16l90 -22q77 -19 112 -54.5t35 -91.5q0 -65 -41.5 -108z" />
    <glyph glyph-name="Scaron" unicode="&#x160;" horiz-adv-x="636" 
d="M99 939h148l71 -85l70 85h148l-145 -169h-147zM606 209q0 -66 -33.5 -116.5t-96 -78.5t-147.5 -28q-105 0 -185 41t-118 114l105 84q33 -48 86 -74t117 -26q57 0 86.5 20t29.5 56q0 27 -22 44t-75 30l-110 27q-198 48 -198 203q0 62 32 109.5t92.5 73.5t143.5 26
q95 0 167 -34t109 -95l-105 -85q-63 76 -172 76q-54 0 -82.5 -18t-28.5 -50q0 -24 22.5 -41t78.5 -30l114 -27q190 -47 190 -201z" />
    <glyph glyph-name="scaron" unicode="&#x161;" horiz-adv-x="516" 
d="M41 750h148l70 -85l71 85h148l-145 -169h-147zM450 247.5q35 -35.5 35 -91.5q0 -79 -59.5 -124.5t-164.5 -45.5q-73 0 -135 22.5t-100 62.5l64 102q33 -29 80 -47t93 -18q35 0 53.5 11t18.5 29q0 16 -13.5 25.5t-43.5 17.5l-90 22q-74 18 -108.5 53.5t-34.5 90.5
q0 77 58 122t158 45q66 0 123.5 -20t92.5 -55l-66 -101q-77 54 -150 54q-33 0 -50.5 -10.5t-17.5 -28.5q0 -14 13 -23t42 -16l90 -22q77 -19 112 -54.5z" />
    <glyph glyph-name="uni0162" unicode="&#x162;" horiz-adv-x="606" 
d="M587 557h-207v-557h-14l-54 -200h-152l78 200l-12 1v556h-206v143h567v-143z" />
    <glyph glyph-name="uni0163" unicode="&#x163;" horiz-adv-x="429" 
d="M395 0h-75l-49 -200h-133l65 210q-41 16 -67 53t-26 83l1 223h-92v131h92v161h149v-161h133v-131h-133v-202q0 -14 10 -24t24 -10h101v-133z" />
    <glyph glyph-name="Tcaron" unicode="&#x164;" horiz-adv-x="606" 
d="M84 939h149l70 -85l70 85h149l-145 -169h-148zM587 557h-207v-557h-154v557h-206v143h567v-143z" />
    <glyph glyph-name="tcaron" unicode="&#x165;" horiz-adv-x="432" 
d="M433 777v-212h-114v212h114zM176.5 18q-30.5 18 -48.5 49t-18 67l1 235h-92v131h92v161h149v-161h133v-131h-133v-223q0 -5 3.5 -9t8.5 -4h123v-133h-152q-36 0 -66.5 18z" />
    <glyph glyph-name="Tbar" unicode="&#x166;" horiz-adv-x="606" 
d="M380 418h117v-123h-117v-295h-154v295h-117v123h117v139h-206v143h567v-143h-207v-139z" />
    <glyph glyph-name="tbar" unicode="&#x167;" horiz-adv-x="429" 
d="M260 192v-25q0 -14 10 -24t24 -10h101v-133h-140q-39 0 -72.5 20t-53 53.5t-19.5 72.5v46h-91v132h92v45h-92v131h92v161h149v-161h133v-131h-133v-45h135v-132h-135z" />
    <glyph glyph-name="Utilde" unicode="&#x168;" horiz-adv-x="728" 
d="M406 780q-19 7 -46 22q-29 19 -48 19q-14 0 -21 -11t-7 -35h-108q0 79 26.5 119t77.5 40q22 0 41 -7t46 -22q31 -19 49 -19q14 0 20.5 10.5t6.5 35.5h108q0 -159 -104 -159q-22 0 -41 7zM208 25q-68 39 -105 107.5t-37 152.5v415h156v-424q0 -65 36.5 -104t106.5 -39
q74 0 108.5 38.5t34.5 104.5v424h155v-415q0 -85 -35.5 -153t-103 -107t-159.5 -39q-89 0 -157 39z" />
    <glyph glyph-name="utilde" unicode="&#x169;" horiz-adv-x="598" 
d="M246 632q-14 0 -21 -11t-7 -35h-107q0 159 103 159q23 0 42 -7t45 -22q30 -20 49 -20q14 0 20.5 10.5t6.5 35.5h108q0 -159 -104 -159q-22 0 -41 7t-46 22q-28 20 -48 20zM393 0v74q-22 -40 -66 -64t-95 -24q-48 0 -88.5 23.5t-64 64.5t-23.5 89v337h149v-286
q0 -38 27 -65t65 -28q38 0 65.5 27.5t27.5 65.5l-1 286h149v-500h-145z" />
    <glyph glyph-name="Umacron" unicode="&#x16a;" horiz-adv-x="728" 
d="M533 899v-115h-338v115h338zM208 25q-68 39 -105 107.5t-37 152.5v415h156v-424q0 -65 36.5 -104t106.5 -39q74 0 108.5 38.5t34.5 104.5v424h155v-415q0 -85 -35.5 -153t-103 -107t-159.5 -39q-89 0 -157 39z" />
    <glyph glyph-name="umacron" unicode="&#x16b;" horiz-adv-x="598" 
d="M467 710v-116h-338v116h338zM393 0v74q-22 -40 -66 -64t-95 -24q-48 0 -88.5 23.5t-64 64.5t-23.5 89v337h149v-286q0 -38 27 -65t65 -28q38 0 65.5 27.5t27.5 65.5l-1 286h149v-500h-145z" />
    <glyph glyph-name="Ubreve" unicode="&#x16c;" horiz-adv-x="728" 
d="M233.5 806.5q-49.5 42.5 -49.5 112.5v11h117q0 -33 17.5 -53t45.5 -20t45 20t17 53h117v-11q0 -70 -49.5 -112.5t-129.5 -42.5q-81 0 -130.5 42.5zM208 25q-68 39 -105 107.5t-37 152.5v415h156v-424q0 -65 36.5 -104t106.5 -39q74 0 108.5 38.5t34.5 104.5v424h155v-415
q0 -85 -35.5 -153t-103 -107t-159.5 -39q-89 0 -157 39z" />
    <glyph glyph-name="ubreve" unicode="&#x16d;" horiz-adv-x="598" 
d="M252.5 688q17.5 -20 45.5 -20t45.5 20t17.5 52h116v-11q0 -69 -49.5 -111.5t-129.5 -42.5q-81 0 -130 42.5t-49 111.5v11h116q0 -32 17.5 -52zM393 0v74q-22 -40 -66 -64t-95 -24q-48 0 -88.5 23.5t-64 64.5t-23.5 89v337h149v-286q0 -38 27 -65t65 -28q38 0 65.5 27.5
t27.5 65.5l-1 286h149v-500h-145z" />
    <glyph glyph-name="Uring" unicode="&#x16e;" horiz-adv-x="728" 
d="M289.5 777.5q-33.5 18.5 -53 49.5t-19.5 68t19.5 68.5t53 50t74.5 18.5t74.5 -18.5t52.5 -50t19 -68.5t-19 -68t-52.5 -49.5t-74.5 -18.5t-74.5 18.5zM403.5 855.5q14.5 14.5 14.5 39.5t-14.5 39.5t-39.5 14.5q-26 0 -40.5 -14.5t-14.5 -39.5t14.5 -39.5t40.5 -14.5
q25 0 39.5 14.5zM208 25q-68 39 -105 107.5t-37 152.5v415h156v-424q0 -65 36.5 -104t106.5 -39q74 0 108.5 38.5t34.5 104.5v424h155v-415q0 -85 -35.5 -153t-103 -107t-159.5 -39q-89 0 -157 39z" />
    <glyph glyph-name="uring" unicode="&#x16f;" horiz-adv-x="598" 
d="M170.5 774q19.5 31 53 49.5t74.5 18.5t74.5 -18.5t53 -49.5t19.5 -68q0 -38 -19.5 -69t-53 -49.5t-74.5 -18.5t-74.5 18.5t-53 49.5t-19.5 69q0 37 19.5 68zM337.5 745.5q-14.5 14.5 -39.5 14.5t-39.5 -14.5t-14.5 -39.5t14.5 -39.5t39.5 -14.5q26 0 40 14.5t14 39.5
t-14.5 39.5zM393 0v74q-22 -40 -66 -64t-95 -24q-48 0 -88.5 23.5t-64 64.5t-23.5 89v337h149v-286q0 -38 27 -65t65 -28q38 0 65.5 27.5t27.5 65.5l-1 286h149v-500h-145z" />
    <glyph glyph-name="Uhungarumlaut" unicode="&#x170;" horiz-adv-x="728" 
d="M417 939l-117 -169h-144l114 169h147zM637 939l-118 -169h-144l114 169h148zM208 25q-68 39 -105 107.5t-37 152.5v415h156v-424q0 -65 36.5 -104t106.5 -39q74 0 108.5 38.5t34.5 104.5v424h155v-415q0 -85 -35.5 -153t-103 -107t-159.5 -39q-89 0 -157 39z" />
    <glyph glyph-name="uhungarumlaut" unicode="&#x171;" horiz-adv-x="598" 
d="M91 581l111 169h147l-115 -169h-143zM332 581l111 169h147l-115 -169h-143zM393 0v74q-22 -40 -66 -64t-95 -24q-48 0 -88.5 23.5t-64 64.5t-23.5 89v337h149v-286q0 -38 27 -65t65 -28q38 0 65.5 27.5t27.5 65.5l-1 286h149v-500h-145z" />
    <glyph glyph-name="Uogonek" unicode="&#x172;" horiz-adv-x="728" 
d="M663 700v-415q0 -102 -50 -177.5t-140 -105.5l8 1q-45 -29 -63.5 -47.5t-18.5 -33.5q0 -27 52 -27h30v-105h-59q-69 0 -106.5 26t-37.5 71q0 27 13.5 53t39.5 48q-80 7 -140 47.5t-92.5 105.5t-32.5 144v415h156v-424q0 -65 36.5 -104t106.5 -39q74 0 108.5 38.5
t34.5 104.5v424h155z" />
    <glyph glyph-name="uogonek" unicode="&#x173;" horiz-adv-x="598" 
d="M538 1l-11 -1q-42 -27 -58 -46t-16 -36q0 -27 52 -27h30v-105h-59q-69 0 -106.5 26.5t-37.5 70.5q0 33 19.5 63.5t55.5 54.5h-14v73q-22 -40 -66 -64t-95 -24q-48 0 -88.5 23.5t-64 64.5t-23.5 89v337h149v-286q0 -38 27 -65t65 -28q38 0 65.5 27.5t27.5 65.5l-1 286h149
v-499z" />
    <glyph glyph-name="Wcircumflex" unicode="&#x174;" horiz-adv-x="1063" 
d="M313 770l145 169h147l145 -169h-148l-71 85l-70 -85h-148zM1047 700l-206 -700h-171l-138 401l-138 -401h-170l-207 700h165l136 -482l175 482h78l175 -483l135 483h166z" />
    <glyph glyph-name="wcircumflex" unicode="&#x175;" horiz-adv-x="862" 
d="M212 581l145 169h148l145 -169h-149l-70 85l-70 -85h-149zM694 0h-166l-97 316l-97 -316h-166l-156 500h153l94 -324l104 324h136l104 -324l94 324h153z" />
    <glyph glyph-name="Ycircumflex" unicode="&#x176;" horiz-adv-x="659" 
d="M110 770l146 169h147l145 -169h-148l-71 85l-70 -85h-149zM408 274v-274h-156v274l-257 426h177l158 -278l159 278h177z" />
    <glyph glyph-name="ycircumflex" unicode="&#x177;" horiz-adv-x="560" 
d="M62 581l145 169h148l145 -169h-149l-70 85l-70 -85h-149zM260 -169q-48 -31 -132 -31h-109v133h83q48 0 68 11t31 42l8 21l-200 504h160l116 -332l107 332h160l-216 -575q-28 -74 -76 -105z" />
    <glyph glyph-name="Ydieresis" unicode="&#x178;" horiz-adv-x="659" 
d="M142.5 796.5q-24.5 24.5 -24.5 62.5q0 39 25 63.5t64 24.5q40 0 64.5 -24.5t24.5 -63.5q0 -38 -24.5 -62.5t-64.5 -24.5t-64.5 24.5zM387 796q-25 25 -25 63q0 39 25 63.5t64 24.5q40 0 65 -24.5t25 -63.5t-25 -63.5t-65 -24.5q-39 0 -64 25zM408 274v-274h-156v274
l-257 426h177l158 -278l159 278h177z" />
    <glyph glyph-name="Zacute" unicode="&#x179;" horiz-adv-x="611" 
d="M206 770l114 169h174l-145 -169h-143zM571 0h-531v116l324 445h-318v139h521v-116l-325 -445h329v-139z" />
    <glyph glyph-name="zacute" unicode="&#x17a;" horiz-adv-x="500" 
d="M172 581l111 169h147l-114 -169h-144zM463 0h-428v98l232 286h-224v127h418v-98l-233 -287h235v-126z" />
    <glyph glyph-name="Zdotaccent" unicode="&#x17b;" horiz-adv-x="611" 
d="M239.5 796q-25.5 24 -25.5 63t25.5 63.5t66.5 24.5t66.5 -24.5t25.5 -63.5t-25.5 -63t-66.5 -24t-66.5 24zM571 0h-531v116l324 445h-318v139h521v-116l-325 -445h329v-139z" />
    <glyph glyph-name="zdotaccent" unicode="&#x17c;" horiz-adv-x="500" 
d="M186.5 608q-26.5 26 -26.5 63t26.5 63.5t63.5 26.5q36 0 62 -26.5t26 -63.5t-26 -63t-62 -26q-37 0 -63.5 26zM463 0h-428v98l232 286h-224v127h418v-98l-233 -287h235v-126z" />
    <glyph glyph-name="Zcaron" unicode="&#x17d;" horiz-adv-x="611" 
d="M87 939h149l70 -85l70 85h149l-145 -169h-148zM571 0h-531v116l324 445h-318v139h521v-116l-325 -445h329v-139z" />
    <glyph glyph-name="zcaron" unicode="&#x17e;" horiz-adv-x="500" 
d="M324 581h-148l-145 169h149l70 -85l70 85h149zM463 0h-428v98l232 286h-224v127h418v-98l-233 -287h235v-126z" />
    <glyph glyph-name="uni01CD" unicode="&#x1cd;" horiz-adv-x="716" 
d="M148 939h148l71 -85l70 85h149l-146 -169h-147zM217 123l-45 -123h-164l263 700h163l272 -700h-164l-46 123h-279zM357 550l-92 -293h184z" />
    <glyph glyph-name="uni01CE" unicode="&#x1ce;" horiz-adv-x="582" 
d="M87 750h149l70 -85l70 85h149l-145 -169h-148zM386 75q-19 -41 -61.5 -64t-103.5 -23q-55 0 -97 21.5t-65 59t-23 85.5q0 78 62.5 117t164.5 39q50 0 103 -9l-1 30q0 30 -23 47t-59 17q-35 0 -70 -15t-60 -41l-79 85q31 36 96 61t126 25q64 0 113 -25t76 -71t27 -106
v-308h-126v75zM286 228q-105 0 -105 -65q0 -30 21 -48.5t57 -18.5q51 0 79.5 27t28.5 75v22q-48 8 -81 8z" />
    <glyph glyph-name="uni01E2" unicode="&#x1e2;" horiz-adv-x="1093" 
d="M543 784v115h338v-115h-338zM1042 0h-516v140h-255l-84 -140h-184l432 700h597v-142h-353v-133h330v-142h-330v-141h363v-142zM526 569l-181 -301h181v301z" />
    <glyph glyph-name="uni01E3" unicode="&#x1e3;" horiz-adv-x="935" 
d="M633 710v-116h-338v116h338zM830 443.5q70 -66.5 70 -185.5q0 -29 -2 -45h-381q0 -45 39.5 -73.5t92.5 -28.5q46 0 87 14.5t64 38.5l81 -88q-32 -40 -97 -63t-141 -23q-69 0 -125 23.5t-92 66.5q-42 -47 -95 -69.5t-110 -22.5q-55 0 -97 21.5t-65 59t-23 85.5
q0 78 62.5 117t164.5 39q50 0 103 -9l-1 30q0 30 -23 47t-59 17q-35 0 -70 -15t-60 -41l-79 85q31 36 96 61t126 25q101 0 160 -59q73 59 180 59q124 0 194 -66.5zM752 304q0 41 -31.5 69t-84.5 28q-32 0 -60 -14.5t-44 -37t-17 -45.5h237zM367 220q-48 8 -81 8
q-105 0 -105 -65q0 -30 21 -48.5t57 -18.5q52 0 80 27t28 74v23z" />
    <glyph glyph-name="Gcaron" unicode="&#x1e6;" horiz-adv-x="764" 
d="M182 939h149l70 -85l71 85h148l-145 -169h-147zM584 25q-79 -39 -173 -39q-117 0 -199.5 48t-124.5 130t-42 184q0 103 43.5 186t126.5 131t196 48q87 0 162 -37.5t126 -102.5l-126 -89q-28 40 -70 62t-92 22q-63 0 -110 -29t-71.5 -79t-24.5 -112q0 -61 24 -110.5
t70.5 -78.5t111.5 -29q107 0 163 65v81h-146v126h288l-1 -268q-52 -70 -131 -109z" />
    <glyph glyph-name="gcaron" unicode="&#x1e7;" horiz-adv-x="641" 
d="M397 581h-147l-146 169h149l70 -85l71 85h148zM542.5 -85.5q-35.5 -61.5 -99.5 -95.5t-147 -34q-70 0 -137 24t-107 63l65 107q34 -29 80.5 -46.5t87.5 -17.5q66 0 109 36.5t43 118.5v24q-19 -38 -68 -62t-104 -24q-68 0 -120 32.5t-80.5 91t-28.5 134.5q0 72 28.5 127.5
t80.5 86t120 30.5q56 0 100.5 -19t62.5 -50v59h150v-445q0 -79 -35.5 -140.5zM399 172q34 36 34 94t-34 94.5t-89 36.5t-89 -36t-34 -95t34 -94.5t89 -35.5t89 36z" />
    <glyph glyph-name="uni01E8" unicode="&#x1e8;" horiz-adv-x="697" 
d="M440 770h-148l-145 169h149l70 -85l70 85h149zM392 349l301 -349h-192l-214 244l-57 -60v-184h-155v700h155v-318l276 318h187z" />
    <glyph glyph-name="uni01E9" unicode="&#x1e9;" horiz-adv-x="570" 
d="M-82 971h149l70 -85l70 85h149l-145 -169h-148zM249 172l-37 -43v-129h-149v732h149v-432l184 200h172l-207 -232l208 -268h-176z" />
    <glyph glyph-name="AEacute" unicode="&#x1fc;" horiz-adv-x="1093" 
d="M612 770l111 169h147l-115 -169h-143zM1042 0h-516v140h-255l-84 -140h-184l432 700h597v-142h-353v-133h330v-142h-330v-141h363v-142zM526 569l-181 -301h181v301z" />
    <glyph glyph-name="aeacute" unicode="&#x1fd;" horiz-adv-x="935" 
d="M685 750l-115 -169h-143l111 169h147zM830 443.5q70 -66.5 70 -185.5q0 -29 -2 -45h-381q0 -45 39.5 -73.5t92.5 -28.5q46 0 87 14.5t64 38.5l81 -88q-32 -40 -97 -63t-141 -23q-69 0 -125 23.5t-92 66.5q-42 -47 -95 -69.5t-110 -22.5q-55 0 -97 21.5t-65 59t-23 85.5
q0 78 62.5 117t164.5 39q50 0 103 -9l-1 30q0 30 -23 47t-59 17q-35 0 -70 -15t-60 -41l-79 85q31 36 96 61t126 25q101 0 160 -59q73 59 180 59q124 0 194 -66.5zM752 304q0 41 -31.5 69t-84.5 28q-32 0 -60 -14.5t-44 -37t-17 -45.5h237zM367 220q-48 8 -81 8
q-105 0 -105 -65q0 -30 21 -48.5t57 -18.5q52 0 80 27t28 74v23z" />
    <glyph glyph-name="Oslashacute" unicode="&#x1fe;" horiz-adv-x="823" 
d="M313 770l111 169h147l-115 -169h-143zM733 164q-48 -84 -133 -131.5t-189 -46.5q-123 0 -217 66l-67 -67l-80 79l66 66q-70 91 -70 219q-1 101 47 185.5t132.5 132.5t188.5 47q125 0 219 -67l68 68l80 -79l-67 -67q69 -97 69 -220q1 -101 -47 -185zM229 243l293 293
q-47 32 -111 32q-60 0 -107 -28t-73 -78t-26 -113q0 -58 24 -106zM594 456l-293 -293q48 -31 110 -31q61 0 108 27.5t73 77t26 112.5q0 59 -24 107z" />
    <glyph glyph-name="oslashacute" unicode="&#x1ff;" horiz-adv-x="625" 
d="M212 581l115 169h173l-145 -169h-143zM587 255q0 -76 -34.5 -137.5t-96.5 -96.5t-143 -35q-90 0 -158 44l-60 -60l-67 68l58 58q-48 68 -48 159q0 76 34.5 137.5t97 96.5t143.5 35q90 0 158 -43l59 59l68 -67l-58 -58q47 -66 47 -160zM216.5 360.5
q-35.5 -39.5 -35.5 -105.5q0 -38 13 -63l189 188q-29 20 -70 20q-61 0 -96.5 -39.5zM408.5 150q35.5 39 35.5 105q0 37 -12 64l-189 -189q28 -19 70 -19q60 0 95.5 39z" />
    <glyph glyph-name="uni0218" unicode="&#x218;" horiz-adv-x="636" 
d="M144 27q-80 41 -118 114l105 84q33 -48 86 -74t117 -26q57 0 86.5 20t29.5 56q0 27 -22 44t-75 30l-110 27q-198 48 -198 203q0 62 32 109.5t92.5 73.5t143.5 26q95 0 167 -34t109 -95l-105 -85q-63 76 -172 76q-54 0 -82.5 -18t-28.5 -50q0 -24 22.5 -41t78.5 -30
l114 -27q190 -47 190 -201q0 -66 -33.5 -116.5t-96 -78.5t-147.5 -28q-105 0 -185 41zM401 -81l-72 -188h-116l40 188h148z" />
    <glyph glyph-name="uni0219" unicode="&#x219;" horiz-adv-x="516" 
d="M126 8.5q-62 22.5 -100 62.5l64 102q33 -29 80 -47t93 -18q35 0 53.5 11t18.5 29q0 16 -13.5 25.5t-43.5 17.5l-90 22q-74 18 -108.5 53.5t-34.5 90.5q0 77 58 122t158 45q66 0 123.5 -20t92.5 -55l-66 -101q-77 54 -150 54q-33 0 -50.5 -10.5t-17.5 -28.5q0 -14 13 -23
t42 -16l90 -22q77 -19 112 -54.5t35 -91.5q0 -79 -59.5 -124.5t-164.5 -45.5q-73 0 -135 22.5zM333 -81l-72 -188h-116l40 188h148z" />
    <glyph glyph-name="uni021A" unicode="&#x21a;" horiz-adv-x="606" 
d="M20 557v143h567v-143h-207v-557h-154v557h-206zM370 -81l-72 -188h-115l40 188h147z" />
    <glyph glyph-name="uni021B" unicode="&#x21b;" horiz-adv-x="429" 
d="M19 511h92v150h149v-150h133v-132h-133v-194q0 -28 12.5 -40t41.5 -12h81v-133h-123q-84 0 -122.5 36.5t-38.5 119.5v223h-92v132zM296 -81l-38 -188h-116l40 188h114z" />
    <glyph glyph-name="uni0237" unicode="&#x237;" horiz-adv-x="278" 
d="M52 -57q12 12 12 38v519h149v-547q0 -75 -41.5 -114t-123.5 -39h-92v131h58q26 0 38 12z" />
    <glyph glyph-name="circumflex" unicode="&#x2c6;" horiz-adv-x="620" 
d="M310 666l-70 -85h-149l145 169h148l145 -169h-149z" />
    <glyph glyph-name="caron" unicode="&#x2c7;" horiz-adv-x="620" 
d="M384 581h-148l-145 169h149l70 -85l70 85h149z" />
    <glyph glyph-name="breve" unicode="&#x2d8;" horiz-adv-x="620" 
d="M178.5 616q-47.5 41 -47.5 113v11h116q0 -72 63 -72t63 72h116v-11q0 -72 -47.5 -113t-131.5 -41t-131.5 41z" />
    <glyph glyph-name="dotaccent" unicode="&#x2d9;" horiz-adv-x="620" 
d="M243 606q-25 24 -25 64t25.5 63.5t66.5 23.5t66.5 -23.5t25.5 -63.5t-25 -64t-67 -24t-67 24z" />
    <glyph glyph-name="ring" unicode="&#x2da;" horiz-adv-x="620" 
d="M235.5 587.5q-33.5 18.5 -53 49.5t-19.5 69q0 37 19.5 68t53 49.5t74.5 18.5t74.5 -18.5t53 -49.5t19.5 -68q0 -38 -19.5 -69t-53 -49.5t-74.5 -18.5t-74.5 18.5zM350 666.5q14 14.5 14 39.5t-14.5 39.5t-39.5 14.5t-39.5 -14.5t-14.5 -39.5t14.5 -39.5t39.5 -14.5
q26 0 40 14.5z" />
    <glyph glyph-name="ogonek" unicode="&#x2db;" horiz-adv-x="620" 
d="M214.5 -187.5q-37.5 26.5 -37.5 70.5q0 47 38.5 87.5t106.5 61.5l58 -32q-44 -29 -62.5 -48t-18.5 -34q0 -27 51 -27h30v-105h-59q-69 0 -106.5 26.5z" />
    <glyph glyph-name="tilde" unicode="&#x2dc;" horiz-adv-x="620" 
d="M352 590q-19 7 -46 22q-28 20 -48 20q-14 0 -20.5 -10.5t-6.5 -35.5h-108q0 159 104 159q22 0 41 -7t46 -22q28 -20 48 -20q14 0 21 11t7 35h107q0 -79 -26 -119t-77 -40q-23 0 -42 7z" />
    <glyph glyph-name="hungarumlaut" unicode="&#x2dd;" horiz-adv-x="620" 
d="M390 750l-118 -169h-144l114 169h148zM609 750l-117 -169h-145l114 169h148z" />
    <glyph glyph-name="gravecomb" unicode="&#x300;" 
d="M-531 750h173l115 -169h-144z" />
    <glyph glyph-name="acutecomb" unicode="&#x301;" 
d="M-87 750l-145 -169h-143l115 169h173z" />
    <glyph glyph-name="uni0302" unicode="&#x302;" 
d="M-310 666l-70 -85h-149l145 169h148l145 -169h-149z" />
    <glyph glyph-name="tildecomb" unicode="&#x303;" 
d="M-268 590q-19 7 -46 22q-28 20 -48 20q-14 0 -21 -11t-7 -35h-107q0 159 103 159q23 0 42 -7t45 -22q30 -20 49 -20q14 0 20.5 10.5t6.5 35.5h108q0 -159 -104 -159q-22 0 -41 7z" />
    <glyph glyph-name="uni0304" unicode="&#x304;" 
d="M-141 710v-116h-338v116h338z" />
    <glyph glyph-name="uni0306" unicode="&#x306;" 
d="M-441.5 616q-47.5 41 -47.5 113v11h116q0 -72 63 -72t63 72h116v-11q0 -72 -47.5 -113t-131.5 -41t-131.5 41z" />
    <glyph glyph-name="uni0307" unicode="&#x307;" 
d="M-377 606q-25 24 -25 64t25.5 63.5t66.5 23.5t66.5 -23.5t25.5 -63.5t-25 -64t-67 -24t-67 24z" />
    <glyph glyph-name="uni0308" unicode="&#x308;" 
d="M-496.5 606.5q-24.5 24.5 -24.5 63.5q0 38 24.5 62.5t64.5 24.5t64.5 -24.5t24.5 -62.5q0 -39 -24.5 -63.5t-64.5 -24.5t-64.5 24.5zM-252.5 606.5q-24.5 24.5 -24.5 63.5q0 38 24.5 62.5t64.5 24.5t64.5 -24.5t24.5 -62.5q0 -39 -24.5 -63.5t-64.5 -24.5t-64.5 24.5z
" />
    <glyph glyph-name="uni030A" unicode="&#x30a;" 
d="M-384.5 587.5q-33.5 18.5 -53 49.5t-19.5 69q0 37 19.5 68t53 49.5t74.5 18.5t74.5 -18.5t53 -49.5t19.5 -68q0 -38 -19.5 -69t-53 -49.5t-74.5 -18.5t-74.5 18.5zM-270.5 666.5q14.5 14.5 14.5 39.5t-14.5 39.5t-39.5 14.5t-39.5 -14.5t-14.5 -39.5t14 -39.5t40 -14.5
q25 0 39.5 14.5z" />
    <glyph glyph-name="uni030B" unicode="&#x30b;" 
d="M-230 750l-118 -169h-144l114 169h148zM-11 750l-117 -169h-145l114 169h148z" />
    <glyph glyph-name="uni030C" unicode="&#x30c;" 
d="M-236 581h-148l-145 169h149l70 -85l70 85h149z" />
    <glyph glyph-name="uni0312" unicode="&#x312;" 
 />
    <glyph glyph-name="uni0315" unicode="&#x315;" 
d="M-237 768l-32 -211h-114v211h146z" />
    <glyph glyph-name="uni0326" unicode="&#x326;" 
d="M-236 -81l-72 -188h-116l40 188h148z" />
    <glyph glyph-name="uni0327" unicode="&#x327;" 
d="M-241 14l-58 -214h-152l83 214h127z" />
    <glyph glyph-name="uni0328" unicode="&#x328;" 
d="M-405.5 -187.5q-37.5 26.5 -37.5 70.5q0 47 38.5 87.5t106.5 61.5l58 -32q-44 -29 -63 -48t-19 -34q0 -27 51 -27h31v-105h-59q-69 0 -106.5 26.5z" />
    <glyph glyph-name="uni060C" unicode="&#x60c;" horiz-adv-x="266" 
d="M24 0l82 301h121l-54 -301h-149z" />
    <glyph glyph-name="uni0615" unicode="&#x615;" 
d="M385.5 869.5q22.5 -26.5 22.5 -76.5v-61h-262v60h43v176h60v-106q34 34 73 34q41 0 63.5 -26.5zM349 794q0 20 -9.5 31t-25.5 11q-34 0 -65 -37v-7h100v2z" />
    <glyph glyph-name="uni061B" unicode="&#x61b;" horiz-adv-x="283" 
d="M45 365l82 301h121l-54 -301h-149zM191 26q-26 -24 -70 -24q-42 0 -66.5 25t-24.5 68t25 68.5t68 25.5t68.5 -26t25.5 -70q0 -43 -26 -67z" />
    <glyph glyph-name="uni061F" unicode="&#x61f;" horiz-adv-x="471" 
d="M316 241h-140v41q0 26 -6.5 38t-32.5 34l-39 32q-46 39 -65.5 74.5t-19.5 77.5q0 53 26 92.5t72.5 61.5t105.5 22q79 0 140.5 -38.5t95.5 -106.5l-107 -72q-51 87 -126 87q-30 0 -46.5 -13.5t-16.5 -37.5q0 -30 36 -62l44 -37q38 -32 53 -49.5t20 -36t6 -57.5v-50z
M314 15.5q-26 -25.5 -69 -25.5t-68 26t-25 69t25.5 68t69.5 25q42 0 67.5 -25.5t25.5 -69.5q0 -42 -26 -67.5z" />
    <glyph glyph-name="uni0621" unicode="&#x621;" horiz-adv-x="673" 
d="M41 0v138h105q-31 48 -31 102v11q0 65 34 119.5t90.5 86.5t121.5 32q80 0 149 -53q39 -30 65 -76l-118 -73q-8 19 -27 36q-28 26 -69 26q-43 0 -74.5 -29t-31.5 -71v-7q0 -45 31 -74.5t77 -29.5h231v-138h-553z" />
    <glyph glyph-name="uni0622" unicode="&#x622;" horiz-adv-x="303" 
d="M83 700h138v-700h-138v700zM71 917q7 5 15 5q11 0 19 -8q31 -31 100 -31q23 0 83 21l24 -66q-23 -10 -55 -19t-52 -9q-34 0 -61.5 10t-53.5 32q-3 3 -7 3q-3 0 -8 -3l-41 -26l-37 42z" />
    <glyph glyph-name="uni0623" unicode="&#x623;" horiz-adv-x="283" 
d="M35 755v70h33q-8 20 -6 40q5 38 33 64t67 26q34 0 59.5 -16.5t38.5 -47.5l-55 -40q-9 18 -18 25.5t-25 7.5q-12 0 -20.5 -8t-8.5 -19t6.5 -21.5t22.5 -10.5h96v-70h-223zM73 700h138v-699h-138v699z" />
    <glyph glyph-name="uni0624" unicode="&#x624;" horiz-adv-x="577" 
d="M241 579v70h34q-8 22 -7 40q5 38 33 64t68 26q34 0 59.5 -16.5t37.5 -47.5l-54 -40q-9 18 -18 25.5t-25 7.5q-12 0 -21 -7.5t-9 -19.5q0 -11 7 -21.5t23 -10.5h96v-70h-224zM446 -155q-39 -37 -83 -55.5t-105 -25t-163 -5.5l1 137q115 0 168.5 9t89.5 41q16 15 24 45l2 9
h-91q-67 0 -123.5 33.5t-89.5 91t-33 125.5q0 66 33 122t89.5 88.5t123.5 32.5h234v-465q0 -112 -77 -183zM384 354h-95q-45 0 -77 -30t-32 -74q0 -47 32 -79.5t77 -32.5h95v216z" />
    <glyph glyph-name="uni0625" unicode="&#x625;" horiz-adv-x="283" 
d="M73 699h138v-698h-138v698zM35 -265v70h33q-9 22 -6 41q5 38 33 64t67 26q34 0 59.5 -16.5t38.5 -47.5l-55 -40q-9 18 -18 25.5t-25 7.5q-12 0 -20.5 -8t-8.5 -19q0 -12 6.5 -22.5t22.5 -10.5h96v-70h-223z" />
    <glyph glyph-name="uni0626" unicode="&#x626;" horiz-adv-x="1054" 
d="M6 323v70h33q-8 26 -6 40q5 38 33 64t68 26q33 0 59 -17t38 -47l-54 -40q-9 18 -18 25.5t-25 7.5q-12 0 -21 -8t-9 -19t7 -21.5t23 -10.5h96v-70h-224zM863 354h-144q-16 0 -26.5 -10t-10.5 -24v-425q0 -43 -30.5 -73.5t-72.5 -30.5h-256q-76 0 -140 38t-102 102t-38 140
v193h141v-193q0 -38 18.5 -70.5t50.5 -52t70 -19.5h179q17 0 28 11t11 28v352q0 47 24 87t64.5 63t89.5 23h283l-2 -493h-140z" />
    <glyph glyph-name="uni0627" unicode="&#x627;" horiz-adv-x="303" 
d="M83 700h138v-700h-138v700z" />
    <glyph glyph-name="uni0628" unicode="&#x628;" horiz-adv-x="872" 
d="M781 25.5q-37 -36.5 -89 -36.5h-437q-60 0 -111 29.5t-80.5 79.5t-29.5 110v182h140v-182q0 -34 23.5 -57.5t57.5 -23.5h400q10 0 17 7t7 17v340h139v-377q0 -52 -37 -88.5zM374 -98q23 23 56 23q32 0 55.5 -23t23.5 -55q0 -33 -23.5 -56t-55.5 -23q-33 0 -56 23t-23 56
q0 32 23 55z" />
    <glyph glyph-name="uni0629" unicode="&#x629;" horiz-adv-x="570" 
d="M234 713q23 -23 23 -55q0 -33 -23 -56t-56 -23q-32 0 -55.5 23t-23.5 56q0 32 23.5 55t55.5 23q33 0 56 -23zM434.5 713q23.5 -23 23.5 -55q0 -33 -23.5 -56t-56.5 -23q-32 0 -55 23t-23 56q0 32 23 55t55 23q33 0 56.5 -23zM407 462.5q54 -30.5 85 -83.5t31 -117v-25
q0 -65 -32 -119t-86 -86t-118 -32q-65 0 -121 31.5t-89 85.5t-33 117v259h243q66 0 120 -30.5zM358.5 167q28.5 29 28.5 72v16q0 41 -29.5 70.5t-70.5 29.5h-105v-117q0 -43 31 -71.5t74 -28.5t71.5 29z" />
    <glyph glyph-name="uni062A" unicode="&#x62a;" horiz-adv-x="872" 
d="M387 634q23 -23 23 -55t-23 -55.5t-56 -23.5q-32 0 -55.5 23.5t-23.5 55.5t23.5 55t55.5 23q33 0 56 -23zM587.5 634q23.5 -23 23.5 -55t-23.5 -55.5t-56.5 -23.5q-32 0 -55 23.5t-23 55.5t23 55t55 23q33 0 56.5 -23zM781.5 37q-36.5 -37 -89.5 -37h-437
q-60 0 -111 29.5t-80.5 80t-29.5 110.5v170h140v-170q0 -34 23.5 -58t57.5 -24h400q10 0 17 7t7 17v329h139v-365q0 -52 -36.5 -89z" />
    <glyph glyph-name="uni062B" unicode="&#x62b;" horiz-adv-x="871" 
d="M468.5 820q23.5 -23 23.5 -55q0 -33 -23.5 -56t-56.5 -23q-32 0 -55 23t-23 56q0 32 23 55t55 23q33 0 56.5 -23zM370 634q23 -23 23 -55t-23 -55.5t-56 -23.5q-32 0 -55.5 23.5t-23.5 55.5t23.5 55t55.5 23q33 0 56 -23zM570 634q23 -23 23 -55t-23 -55.5t-56 -23.5
q-32 0 -55.5 23.5t-23.5 55.5t23.5 55t55.5 23q33 0 56 -23zM781.5 37q-36.5 -37 -89.5 -37h-437q-60 0 -111 29.5t-80.5 80t-29.5 110.5v170h140v-170q0 -34 23.5 -58t57.5 -24h400q10 0 17 7t7 17v329h139v-365q0 -52 -36.5 -89z" />
    <glyph glyph-name="uni062C" unicode="&#x62c;" horiz-adv-x="718" 
d="M190.5 -31q-30.5 -31 -30.5 -74q0 -44 30.5 -75t73.5 -31h200v-138h-201q-66 0 -122 33t-88.5 89t-32.5 122t32.5 122t88.5 88.5t122 32.5h249q-4 3 -10 15.5t-6 25.5v16q0 86 -53 123q-43 35 -116 35q-64 0 -136 -25l-60 123q113 43 207 43q112 0 189 -63
q44 -35 75 -92.5t31 -140.5v-20q0 -14 6 -27t21 -13h12v-138h-408q-43 0 -73.5 -31zM346.5 -57.5q21.5 -21.5 21.5 -50.5q0 -30 -21.5 -51.5t-51.5 -21.5t-51.5 21.5t-21.5 51.5q0 29 21.5 50.5t51.5 21.5t51.5 -21.5z" />
    <glyph glyph-name="uni062D" unicode="&#x62d;" horiz-adv-x="718" 
d="M195.5 -21.5q-21.5 -21.5 -21.5 -52.5q0 -30 22 -52t53 -22h250v-139h-250q-59 0 -108 28.5t-78 77.5t-29 107t29 107t78 77t108 28h265q-8 4 -13.5 13.5t-5.5 20.5v20q0 49 -13.5 81t-41.5 53q-40 30 -121 30q-41 0 -81.5 -7.5t-60.5 -16.5l-35 136q29 9 78.5 17.5
t104.5 8.5q124 0 200 -56q108 -85 108 -244v-17q0 -17 12 -28t32 -11h12v-138h-440q-32 0 -53.5 -21.5z" />
    <glyph glyph-name="uni062E" unicode="&#x62e;" horiz-adv-x="718" 
d="M404.5 714q23.5 -23 23.5 -55q0 -33 -23.5 -56t-55.5 -23q-33 0 -56 23t-23 56q0 32 23 55t56 23q32 0 55.5 -23zM195.5 -21.5q-21.5 -21.5 -21.5 -52.5q0 -30 22 -52t53 -22h250v-139h-250q-59 0 -108 28.5t-78 77.5t-29 107t29 107t78 77t108 28h265q-8 4 -13.5 13.5
t-5.5 20.5v19q0 49 -13.5 80t-41.5 54q-38 30 -121 30q-42 0 -82 -7t-60 -16l-35 135q31 9 81 18.5t105 9.5q124 0 197 -57q47 -38 77.5 -96t30.5 -149v-16q0 -17 12 -28t32 -11h12v-138h-440q-32 0 -53.5 -21.5z" />
    <glyph glyph-name="uni062F" unicode="&#x62f;" horiz-adv-x="548" 
d="M30 138h285q24 0 40 20q11 13 11 30q0 3 -2 11l-82 293l132 38l84 -294q5 -27 5 -47q0 -65 -41 -118q-27 -33 -65.5 -52t-81.5 -19h-285v138z" />
    <glyph glyph-name="uni0630" unicode="&#x630;" horiz-adv-x="548" 
d="M262.5 712q22.5 22 54.5 22q31 0 53 -22t22 -52q0 -32 -22.5 -55t-53.5 -23t-53.5 22.5t-22.5 54.5q0 31 22.5 53zM30 138h285q24 0 40 20q11 13 11 30q0 3 -2 11l-82 293l132 38l84 -294q5 -27 5 -47q0 -65 -41 -118q-27 -33 -65.5 -52t-81.5 -19h-285v138z" />
    <glyph glyph-name="uni0631" unicode="&#x631;" horiz-adv-x="342" 
d="M224 -160.5q-65 -70.5 -187 -76.5l-51 131q62 5 97 18.5t51.5 41t16.5 76.5v462h138v-462q0 -120 -65 -190.5z" />
    <glyph glyph-name="uni0632" unicode="&#x632;" horiz-adv-x="350" 
d="M273 714q23 -23 23 -55q0 -33 -23 -56t-56 -23q-32 0 -55.5 23t-23.5 56q0 32 23.5 55t55.5 23q33 0 56 -23zM224 -160.5q-65 -70.5 -187 -76.5l-51 131q62 5 97 18.5t51.5 41t16.5 76.5v462h138v-462q0 -120 -65 -190.5z" />
    <glyph glyph-name="uni0633" unicode="&#x633;" horiz-adv-x="1322" 
d="M890 62q-27 -29 -65.5 -45.5t-81.5 -16.5q-29 0 -51 5t-43 15v-83q0 -40 -19.5 -73.5t-53 -53t-72.5 -19.5h-186q-74 0 -137.5 37t-100.5 100.5t-37 137.5v195h139v-195q0 -37 18.5 -68t49.5 -49.5t68 -18.5h153q17 0 28.5 11.5t11.5 28.5v426h138v-181q0 -34 23.5 -55.5
t61.5 -21.5q41 0 65 23t24 57v172h138v-175q0 -36 25 -56.5t64 -20.5q32 0 55.5 23.5t23.5 56.5v274h139v-274q0 -61 -29.5 -110.5t-80.5 -78.5t-114 -29q-92 0 -154 62z" />
    <glyph glyph-name="uni0634" unicode="&#x634;" horiz-adv-x="1321" 
d="M920 821q23 -23 23 -55q0 -33 -23 -56t-56 -23q-32 0 -55.5 23t-23.5 56q0 32 23.5 55t55.5 23q33 0 56 -23zM820.5 634q23.5 -23 23.5 -55t-23.5 -55.5t-55.5 -23.5q-33 0 -56 23.5t-23 55.5t23 55t56 23q32 0 55.5 -23zM1023.5 634q23.5 -23 23.5 -55t-23.5 -55.5
t-55.5 -23.5q-33 0 -56 23.5t-23 55.5t23 55t56 23q32 0 55.5 -23zM890 62q-27 -29 -65.5 -45.5t-81.5 -16.5q-29 0 -51 5t-43 15v-83q0 -40 -19.5 -73.5t-53 -53t-72.5 -19.5h-186q-74 0 -137.5 37t-100.5 100.5t-37 137.5v195h139v-195q0 -37 18.5 -68t49.5 -49.5
t68 -18.5h153q17 0 28.5 11.5t11.5 28.5v426h138v-181q0 -34 23.5 -55.5t61.5 -21.5q41 0 65 23t24 57v172h138v-175q0 -36 25 -56.5t64 -20.5q32 0 55.5 23.5t23.5 56.5v274h139v-274q0 -61 -29.5 -110.5t-80.5 -78.5t-114 -29q-92 0 -154 62z" />
    <glyph glyph-name="uni0635" unicode="&#x635;" horiz-adv-x="1295" 
d="M1241 223v-111q0 -46 -32.5 -79t-78.5 -33h-481v-76q0 -36 -18.5 -67t-49.5 -49t-67 -18h-195q-75 0 -138.5 37t-100.5 100.5t-37 138.5v170h137v-170q0 -37 19 -69t51 -50.5t69 -18.5h162q12 0 21 9t9 21v534h138v-86l237 72q40 13 84 13q72 0 135 -34.5t98 -94.5
q38 -64 38 -139zM1084 293q-16 29 -46 44.5t-67 15.5q-22 0 -45 -6l-277 -84v-125h431q10 0 16.5 7t6.5 18v60q0 39 -19 70z" />
    <glyph glyph-name="uni0636" unicode="&#x636;" horiz-adv-x="1293" 
d="M972.5 714q23.5 -23 23.5 -55q0 -33 -23.5 -56t-55.5 -23q-33 0 -56 23t-23 56q0 32 23 55t56 23q32 0 55.5 -23zM1241 223v-111q0 -46 -32.5 -79t-78.5 -33h-481v-76q0 -36 -18.5 -67t-49.5 -49t-67 -18h-195q-75 0 -138.5 37t-100.5 100.5t-37 138.5v196h137v-196
q0 -37 19 -69t51 -50.5t69 -18.5h162q12 0 21 9t9 21v534h138v-86l237 72q40 13 84 13q72 0 135 -34.5t98 -94.5q38 -64 38 -139zM1084 293q-16 29 -46 44.5t-67 15.5q-22 0 -45 -6l-277 -84v-125h431q10 0 16.5 7t6.5 18v60q0 39 -19 70z" />
    <glyph glyph-name="uni0637" unicode="&#x637;" horiz-adv-x="938" 
d="M893 223v-111q0 -46 -32.5 -79t-78.5 -33h-739v138h119v561h138v-292l237 72q40 13 84 13q73 0 136 -34.5t98 -94.5q38 -64 38 -140zM736 294q-16 28 -47 44t-67 16q-21 0 -44 -6l-278 -84v-126h431q10 0 17 7t7 18v60q0 39 -19 71z" />
    <glyph glyph-name="uni0638" unicode="&#x638;" horiz-adv-x="933" 
d="M637.5 714q23.5 -23 23.5 -55q0 -33 -23.5 -56t-55.5 -23q-33 0 -56 23t-23 56q0 32 23 55t56 23q32 0 55.5 -23zM893 223v-111q0 -46 -32.5 -79t-78.5 -33h-739v138h119v561h138v-292l237 72q40 13 84 13q73 0 136 -34.5t98 -94.5q38 -64 38 -140zM736 294
q-16 28 -47 44t-67 16q-21 0 -44 -6l-278 -84v-126h431q10 0 17 7t7 18v60q0 39 -19 71z" />
    <glyph glyph-name="uni0639" unicode="&#x639;" horiz-adv-x="648" 
d="M254 0q-31 0 -52.5 -21.5t-21.5 -52.5q0 -30 21.5 -51.5t52.5 -21.5h252v-137h-252q-58 0 -106.5 28t-76.5 76.5t-28 105.5q0 54 24 100t67 69l9 5q-28 32 -41 63t-13 71v14q0 67 33.5 123.5t90 89t123.5 32.5q86 0 145.5 -41.5t86.5 -119.5l-98 -67q-15 39 -51 64.5
t-83 25.5q-44 0 -76 -30.5t-34 -74.5v-14q0 -44 31.5 -71t78.5 -27h257v-138h-339z" />
    <glyph glyph-name="uni063A" unicode="&#x63a;" horiz-adv-x="646" 
d="M389 714q23 -23 23 -55q0 -33 -23 -56t-56 -23q-32 0 -55.5 23t-23.5 56q0 32 23.5 55t55.5 23q33 0 56 -23zM254 0q-31 0 -52.5 -21.5t-21.5 -52.5q0 -30 21.5 -51.5t52.5 -21.5h257v-137h-257q-58 0 -106.5 28t-76.5 76.5t-28 105.5q0 54 24 100t67 69l9 5
q-25 17 -39.5 54t-14.5 80v14q0 67 33.5 123.5t90 89t123.5 32.5q86 0 145.5 -41.5t86.5 -119.5l-98 -67q-15 39 -51 64.5t-83 25.5q-44 0 -76 -30.5t-34 -74.5v-14q0 -44 31.5 -71t78.5 -27h257v-138h-339z" />
    <glyph glyph-name="uni0640" unicode="&#x640;" horiz-adv-x="343" 
d="M353 138v-138h-363v138h363z" />
    <glyph glyph-name="uni0641" unicode="&#x641;" horiz-adv-x="1007" 
d="M819.5 714q23.5 -23 23.5 -55t-23.5 -55.5t-55.5 -23.5q-33 0 -56 23.5t-23 55.5t23 55t56 23q32 0 55.5 -23zM918.5 35q-34.5 -35 -87.5 -35h-562q-61 0 -113 30.5t-82.5 83t-30.5 113.5v123h137v-123q0 -37 26.5 -63t62.5 -26h237q-16 23 -25.5 52.5t-9.5 58.5
q0 65 34 121t91.5 89.5t125.5 33.5h231v-371q0 -52 -34.5 -87zM805 147.5q9 9.5 9 22.5v185l-92 -1q-31 0 -57 -16t-41 -41t-15 -53q0 -45 33 -75.5t78 -30.5h63q13 0 22 9.5z" />
    <glyph glyph-name="uni0642" unicode="&#x642;" horiz-adv-x="803" 
d="M446.5 714q23.5 -23 23.5 -55t-23.5 -55.5t-55.5 -23.5q-33 0 -56 23.5t-23 55.5t23 55t56 23q32 0 55.5 -23zM647 714q23 -23 23 -55t-23 -55.5t-56 -23.5q-32 0 -55.5 23.5t-23.5 55.5t23.5 55t55.5 23q33 0 56 -23zM749 -59q0 -41 -20.5 -76.5t-55.5 -56t-77 -20.5
h-274q-76 0 -140 37.5t-101.5 101.5t-37.5 140v195h138v-192q0 -38 19 -71t51.5 -52t70.5 -19h255q14 0 24 10t10 24v38h-96q-67 0 -123.5 32t-89.5 86.5t-33 118.5v20q0 68 32 122t88.5 84t125.5 30h234v-552zM611 367h-96q-47 0 -78 -32t-31 -78v-18q0 -41 32.5 -71
t76.5 -30h96v229z" />
    <glyph glyph-name="uni0643" unicode="&#x643;" horiz-adv-x="896" 
d="M787.5 35q-35.5 -35 -86.5 -35h-425q-61 0 -112.5 30.5t-82 81.5t-30.5 112v166h138v-166q0 -36 25.5 -61t61.5 -25h372q15 0 26 10.5t11 25.5v525h138v-579q0 -50 -35.5 -85zM328 435v70h34q-8 22 -7 40q5 38 33.5 64t67.5 26q34 0 59.5 -16.5t37.5 -47.5l-54 -40
q-9 18 -18 25.5t-25 7.5q-12 0 -21 -8t-9 -19t7 -21.5t23 -10.5h96v-70h-224z" />
    <glyph glyph-name="uni0644" unicode="&#x644;" horiz-adv-x="708" 
d="M181 -157q-64 37 -101 100.5t-37 138.5v180h139v-180q0 -37 18.5 -69t50.5 -50.5t69 -18.5h148q19 0 32.5 13.5t13.5 31.5v711l138 -2v-736q0 -42 -21 -78t-57 -57t-78 -21h-176q-75 0 -139 37z" />
    <glyph glyph-name="uni0645" unicode="&#x645;" horiz-adv-x="630" 
d="M230 28l-1 -18q-11 -89 -69 -146t-151 -75l-26 134q111 22 111 130v440h240q66 0 121.5 -33t88 -89t32.5 -122v-12q-1 -65 -34 -119.5t-88 -86t-120 -31.5q-55 0 -104 28zM407 166.5q30 28.5 32 69.5v13q0 43 -30 73t-73 30h-105v-117q2 -42 32 -69.5t71 -27.5
q43 0 73 28.5z" />
    <glyph glyph-name="uni0646" unicode="&#x646;" horiz-adv-x="713" 
d="M180 -156.5q-63 37.5 -100 101t-37 138.5v179h137v-179q0 -37 18.5 -69t50.5 -51t70 -19h153q17 0 28 11t11 28v506h138v-579q0 -43 -29.5 -73.5t-72.5 -30.5h-228q-76 0 -139 37.5zM382.5 458q23.5 -23 23.5 -55t-23.5 -55.5t-56.5 -23.5q-32 0 -55 23.5t-23 55.5t23 55
t55 23q33 0 56.5 -23z" />
    <glyph glyph-name="uni0647" unicode="&#x647;" horiz-adv-x="570" 
d="M407 462.5q54 -30.5 85 -83.5t31 -117v-25q0 -65 -32 -119t-86 -86t-118 -32q-65 0 -121 31.5t-89 85.5t-33 117v259h243q66 0 120 -30.5zM358.5 167q28.5 29 28.5 72v16q0 41 -29.5 70.5t-70.5 29.5h-105v-117q0 -43 31 -71.5t74 -28.5t71.5 29z" />
    <glyph glyph-name="uni0648" unicode="&#x648;" horiz-adv-x="577" 
d="M446 -155q-39 -37 -83 -55.5t-105 -25t-163 -5.5l1 137q115 0 168.5 9t89.5 41q16 15 24 45l2 9h-91q-67 0 -123.5 33.5t-89.5 91t-33 125.5q0 66 33 122t89.5 88.5t123.5 32.5h234v-465q0 -112 -77 -183zM384 354h-95q-45 0 -77 -30t-32 -74q0 -47 32 -79.5t77 -32.5h95
v216z" />
    <glyph glyph-name="uni0649" unicode="&#x649;" horiz-adv-x="1056" 
d="M860 0l3 354h-144q-16 0 -26.5 -10t-10.5 -24v-425q0 -43 -30.5 -73.5t-72.5 -30.5h-256q-76 0 -140 38t-102 102t-38 140v193h141v-193q0 -38 18.5 -70.5t50.5 -52t70 -19.5h179q17 0 28 11t11 28v352q0 47 24 87t64.5 63t89.5 23h283l-2 -493h-140z" />
    <glyph glyph-name="uni064A" unicode="&#x64a;" horiz-adv-x="1056" 
d="M863 354h-144q-16 0 -26.5 -10t-10.5 -24v-425q0 -43 -30.5 -73.5t-72.5 -30.5h-256q-76 0 -140 38t-102 102t-38 140v193h141v-193q0 -38 18.5 -70.5t50.5 -52t70 -19.5h179q17 0 28 11t11 28v352q0 47 24 87t64.5 63t89.5 23h283l-2 -493h-140zM390.5 -301
q23.5 -23 23.5 -55t-23.5 -55.5t-55.5 -23.5q-33 0 -56 23.5t-23 55.5t23 55t56 23q32 0 55.5 -23zM591.5 -301q23.5 -23 23.5 -55t-23.5 -55.5t-55.5 -23.5q-33 0 -56 23.5t-23 55.5t23 55t56 23q32 0 55.5 -23z" />
    <glyph glyph-name="uni064B" unicode="&#x64b;" 
d="M206 1049l1 -43l-199 -71l-1 50zM206 958l1 -52l-199 -72l-1 49z" />
    <glyph glyph-name="uni064C" unicode="&#x64c;" 
d="M238.5 792q-17.5 -21 -44.5 -26l-144 -44l-9 43q-4 26 -26 26l-14 -5l-12 39l14 8q15 8 30 8q33 0 42 -43l4 -10l39 13q-13 18 -13 40q0 32 22 54t54 22t53.5 -22t21.5 -54q0 -28 -17.5 -49zM203 820.5q8 8.5 8 20.5t-8 20.5t-19 8.5q-12 0 -20.5 -8t-8.5 -20
q0 -13 8 -21.5t20 -8.5t20 8.5z" />
    <glyph glyph-name="uni064D" unicode="&#x64d;" 
d="M205 0l1 -44l-199 -71l-1 50zM205 -92l1 -51l-199 -72l-1 49z" />
    <glyph glyph-name="uni064E" unicode="&#x64e;" 
d="M246 916v-44l-198 -71l-1 50z" />
    <glyph glyph-name="uni064F" unicode="&#x64f;" 
d="M164 1031q22 -22 22 -54q0 -52 -63 -75l-116 -40l-19 54l60 21q-14 18 -14 40q0 32 22 54t54 22t54 -22zM129 962.5q8 8.5 8 22.5q0 11 -8.5 19.5t-19.5 8.5q-12 0 -20.5 -8.5t-8.5 -19.5q0 -14 8.5 -22.5t20.5 -8.5t20 8.5z" />
    <glyph glyph-name="uni0650" unicode="&#x650;" 
d="M245 -129l1 -52l-199 -72v49z" />
    <glyph glyph-name="uni0651" unicode="&#x651;" 
d="M246 807q0 -36 -18 -58t-50 -22q-13 0 -27 5t-22 15q-20 -31 -52 -31q-33 0 -55 22t-22 56v45h62v-45q0 -16 14 -16q7 0 11.5 5t4.5 12v59h61v-50q0 -15 14 -15q8 0 13 5t5 13v74h61v-74z" />
    <glyph glyph-name="uni0652" unicode="&#x652;" 
d="M56 910.5q-24 24.5 -24 59.5t24.5 59t58.5 24t58.5 -24.5t24.5 -58.5q0 -35 -24.5 -59.5t-58.5 -24.5q-35 0 -59 24.5zM137 944.5q9 9.5 9 23.5t-8.5 23t-22.5 9t-23 -9t-9 -23t9 -23.5t23 -9.5q13 0 22 9.5z" />
    <glyph glyph-name="uni0653" unicode="&#x653;" 
d="M74 1081q7 5 15 5q11 0 19 -8q31 -31 100 -31q23 0 83 21l24 -66q-23 -10 -55 -19t-52 -9q-34 0 -61.5 10t-53.5 32q-3 3 -7 3q-3 0 -8 -3l-41 -26l-37 42z" />
    <glyph glyph-name="uni0658" unicode="&#x658;" 
 />
    <glyph glyph-name="uni0660" unicode="&#x660;" horiz-adv-x="284" 
d="M72 154.5q26 25.5 70 25.5q45 0 70.5 -25.5t25.5 -70.5q0 -44 -25.5 -70t-70.5 -26q-44 0 -70 26t-26 70q0 45 26 70.5z" />
    <glyph glyph-name="uni0661" unicode="&#x661;" horiz-adv-x="292" 
d="M222 0h-151v700h151v-700z" />
    <glyph glyph-name="uni0662" unicode="&#x662;" horiz-adv-x="626" 
d="M334 548q-38 0 -64.5 -30t-26.5 -70v-448h-154v444q0 68 32.5 127t88.5 94t122 35h206v-151z" />
    <glyph glyph-name="uni0663" unicode="&#x663;" horiz-adv-x="865" 
d="M433 317q-27 -29 -65.5 -45.5t-81.5 -16.5q-29 0 -51 5t-43 15v-276h-138v701h138v-230q0 -34 23 -55.5t62 -21.5q41 0 65 23t24 57v227h138v-230q0 -36 25 -56.5t64 -20.5q32 0 55.5 23.5t23.5 56.5v227h139v-227q0 -61 -29.5 -110.5t-81 -78.5t-114.5 -29
q-91 0 -153 62z" />
    <glyph glyph-name="uni0664" unicode="&#x664;" horiz-adv-x="599" 
d="M242 245q-23 0 -39.5 -16t-16.5 -39t16.5 -39t39.5 -16h226v-135h-226q-53 0 -96.5 26t-69 69.5t-25.5 94.5q0 46 20 85.5t55 60.5l10 6q-44 53 -44 126v14q0 61 30.5 111t81.5 79t109 29q159 0 212 -151l-99 -68q-15 40 -43.5 62t-69.5 22q-35 0 -60.5 -24.5
t-26.5 -58.5v-13q0 -36 25.5 -62.5t61.5 -26.5h231v-136h-302z" />
    <glyph glyph-name="uni0665" unicode="&#x665;" horiz-adv-x="698" 
d="M195.5 31.5q-66.5 45.5 -103 128t-36.5 190.5t36.5 190.5t103 128t153.5 45.5t153.5 -45.5t103 -128t36.5 -190.5t-36.5 -190.5t-103 -128t-153.5 -45.5t-153.5 45.5zM447.5 187q37.5 62 37.5 163t-37.5 163t-98.5 62t-98.5 -62t-37.5 -163t37.5 -163t98.5 -62t98.5 62z
" />
    <glyph glyph-name="uni0666" unicode="&#x666;" horiz-adv-x="626" 
d="M294 700q67 0 123 -35t88.5 -94t32.5 -127v-444h-155v448q0 40 -26 70t-64 30l-204 1v151h205z" />
    <glyph glyph-name="uni0667" unicode="&#x667;" horiz-adv-x="690" 
d="M435 0h-180l-247 700h166l171 -518l170 518h166z" />
    <glyph glyph-name="uni0668" unicode="&#x668;" horiz-adv-x="707" 
d="M533 0l-179 519l-180 -519h-166l256 700h180l255 -700h-166z" />
    <glyph glyph-name="uni0669" unicode="&#x669;" horiz-adv-x="581" 
d="M409 668q54 -32 86 -86t32 -118v-464h-140v200l-62 1q-130 0 -203.5 64t-73.5 181v18q0 64 33 118t89 86t121 32q64 0 118 -32zM361 533q-29 29 -69 29q-44 0 -76 -32t-32 -77v-13q0 -42 32.5 -72t75.5 -30h98v126q0 40 -29 69z" />
    <glyph glyph-name="uni066A" unicode="&#x66a;" horiz-adv-x="711" 
d="M678 700l-471 -700h-130l470 700h131zM60.5 548.5q-25.5 24.5 -25.5 62.5t25.5 63t64.5 25q38 0 63.5 -25t25.5 -63q0 -37 -25.5 -62t-63.5 -25q-39 0 -64.5 24.5zM477.5 12.5q-25.5 24.5 -25.5 62.5t25.5 62.5t63.5 24.5q39 0 64.5 -24.5t25.5 -62.5t-25.5 -62.5
t-64.5 -24.5q-38 0 -63.5 24.5z" />
    <glyph glyph-name="uni066B" unicode="&#x66b;" horiz-adv-x="266" 
d="M227 144l-82 -302h-121l53 302h150z" />
    <glyph glyph-name="uni066C" unicode="&#x66c;" horiz-adv-x="266" 
d="M227 144l-82 -302h-121l53 302h150z" />
    <glyph glyph-name="uni066D" unicode="&#x66d;" horiz-adv-x="468" 
d="M400 64l-87 -63l-80 121l-80 -120l-87 62l92 114l-140 38l33 102l135 -51l-6 145h107l-7 -146l137 51l33 -102l-141 -38z" />
    <glyph glyph-name="uni066E" unicode="&#x66e;" horiz-adv-x="863" 
d="M781.5 37q-36.5 -37 -89.5 -37h-437q-60 0 -111 29.5t-80.5 80t-29.5 110.5v171h140v-171q0 -34 23.5 -58t57.5 -24h400q10 0 17 7t7 17v329h139v-365q0 -52 -36.5 -89z" />
    <glyph glyph-name="uni066F" unicode="&#x66f;" horiz-adv-x="803" 
d="M631 475q54 -32 86 -86.5t32 -119.5v-328q0 -41 -20.5 -76.5t-55.5 -56t-77 -20.5h-274q-76 0 -140 37.5t-101.5 101.5t-37.5 140v195h138v-192q0 -38 19 -71t51.5 -52t70.5 -19h255q14 0 24 10t10 24v38h-96q-67 0 -123.5 32t-89.5 86.5t-33 118.5v20q0 69 32.5 126
t88.5 90.5t125 33.5q62 0 116 -32zM611 269q0 41 -29 69.5t-67 28.5q-47 0 -78 -32t-31 -78v-18q0 -41 32.5 -71t76.5 -30h96v131z" />
    <glyph glyph-name="uni0671" unicode="&#x671;" horiz-adv-x="283" 
d="M73 700h138v-700h-138v700z" />
    <glyph glyph-name="uni0679" unicode="&#x679;" horiz-adv-x="863" 
d="M781.5 37q-36.5 -37 -89.5 -37h-437q-60 0 -111 29.5t-80.5 80t-29.5 110.5v171h140v-171q0 -34 23.5 -58t57.5 -24h400q10 0 17 7t7 17v329h139v-365q0 -52 -36.5 -89zM543.5 653.5q22.5 -26.5 22.5 -76.5v-61h-262v60h43v176h60v-106q34 34 73 34q41 0 63.5 -26.5z
M507 578q0 20 -9.5 31t-25.5 11q-34 0 -65 -37v-7h100v2z" />
    <glyph glyph-name="uni067E" unicode="&#x67e;" horiz-adv-x="863" 
d="M781.5 37q-36.5 -37 -89.5 -37h-437q-60 0 -111 29.5t-80.5 80t-29.5 110.5v171h140v-171q0 -34 23.5 -58t57.5 -24h400q10 0 17 7t7 17v329h139v-365q0 -52 -36.5 -89zM275.5 -217q-23.5 23 -23.5 55q0 33 23.5 56t55.5 23q33 0 56 -23t23 -56q0 -32 -23 -55t-56 -23
q-32 0 -55.5 23zM475.5 -217q-23.5 23 -23.5 55q0 33 23.5 56t55.5 23q33 0 56 -23t23 -56q0 -32 -23 -55t-56 -23q-32 0 -55.5 23zM374 -402q-23 23 -23 55t23 55.5t55 23.5q33 0 56.5 -23.5t23.5 -55.5t-23.5 -55t-56.5 -23q-32 0 -55 23z" />
    <glyph glyph-name="uni0686" unicode="&#x686;" horiz-adv-x="718" 
d="M190.5 -31q-30.5 -31 -30.5 -74q0 -44 30.5 -75t73.5 -31h200v-138h-201q-66 0 -122 33t-88.5 89t-32.5 122t32.5 122t88.5 88.5t122 32.5h249q-4 3 -10 15.5t-6 25.5v15q0 86 -53 123q-43 35 -117 35q-63 0 -135 -25l-60 124q113 43 206 43q111 0 190 -63
q106 -86 106 -238v-15q0 -14 6 -27t21 -13h12v-138h-408q-43 0 -73.5 -31zM258.5 -94.5q-10.5 10.5 -10.5 24.5t10.5 24t24.5 10t24 -10t10 -24t-10 -24.5t-24 -10.5t-24.5 10.5zM348 -94.5q-10 10.5 -10 24.5t10 24t24 10t24 -10t10 -24t-10 -24.5t-24 -10.5t-24 10.5z
M303 -177.5q-10 10.5 -10 24.5t10 24t24 10t24 -10t10 -24t-10 -24.5t-24 -10.5t-24 10.5z" />
    <glyph glyph-name="uni0688" unicode="&#x688;" horiz-adv-x="548" 
d="M30 138h285q24 0 40 20q11 13 11 30q0 3 -2 11l-82 293l132 38l84 -294q5 -27 5 -47q0 -65 -41 -118q-27 -33 -65.5 -52t-81.5 -19h-285v138zM453.5 700.5q22.5 -26.5 22.5 -76.5v-61h-262v60h43v176h60v-106q34 34 73 34q41 0 63.5 -26.5zM417 625q0 20 -9.5 31
t-25.5 11q-34 0 -65 -37v-7h100v2z" />
    <glyph glyph-name="uni0691" unicode="&#x691;" horiz-adv-x="342" 
d="M224 -160.5q-65 -70.5 -187 -76.5l-51 131q62 5 97 18.5t51.5 41t16.5 76.5v462h138v-462q0 -120 -65 -190.5zM328.5 684.5q22.5 -26.5 22.5 -76.5v-61h-262v60h43v176h60v-106q34 34 73 34q41 0 63.5 -26.5zM292 609q0 20 -9.5 31t-25.5 11q-34 0 -65 -37v-7h100v2z" />
    <glyph glyph-name="uni0698" unicode="&#x698;" horiz-adv-x="342" 
d="M264 895q23 -23 23 -55t-23 -55.5t-56 -23.5q-32 0 -55.5 23.5t-23.5 55.5t23.5 55t55.5 23q33 0 56 -23zM165.5 710q23.5 -23 23.5 -55t-23.5 -55.5t-55.5 -23.5q-33 0 -56 23.5t-23 55.5t23 55t56 23q32 0 55.5 -23zM365.5 710q23.5 -23 23.5 -55t-23.5 -55.5
t-55.5 -23.5q-33 0 -56 23.5t-23 55.5t23 55t56 23q32 0 55.5 -23zM224 -160.5q-65 -70.5 -187 -76.5l-51 131q62 5 97 18.5t51.5 41t16.5 76.5v462h138v-462q0 -120 -65 -190.5z" />
    <glyph glyph-name="uni06A1" unicode="&#x6a1;" horiz-adv-x="1007" 
d="M918.5 35q-34.5 -35 -87.5 -35h-562q-61 0 -113 30.5t-82.5 83t-30.5 113.5v123h137v-123q0 -37 26.5 -63t62.5 -26h237q-16 23 -25.5 52.5t-9.5 58.5q0 65 34 121t91.5 89.5t125.5 33.5h231v-371q0 -52 -34.5 -87zM805 147.5q9 9.5 9 22.5v185l-92 -1q-31 0 -57 -16
t-41 -41t-15 -53q0 -45 33 -75.5t78 -30.5h63q13 0 22 9.5z" />
    <glyph glyph-name="uni06A4" unicode="&#x6a4;" horiz-adv-x="1007" 
d="M816 875q23 -23 23 -55t-23 -55.5t-56 -23.5q-32 0 -55.5 23.5t-23.5 55.5t23.5 55t55.5 23q33 0 56 -23zM717.5 690q23.5 -23 23.5 -55q0 -33 -23.5 -56t-55.5 -23q-33 0 -56 23t-23 56q0 32 23 55t56 23q32 0 55.5 -23zM918 690q23 -23 23 -55q0 -33 -23 -56t-56 -23
q-32 0 -55.5 23t-23.5 56q0 32 23.5 55t55.5 23q33 0 56 -23zM918.5 35q-34.5 -35 -87.5 -35h-562q-61 0 -113 30.5t-82.5 83t-30.5 113.5v123h137v-123q0 -37 26.5 -63t62.5 -26h237q-16 23 -25.5 52.5t-9.5 58.5q0 65 34 121t91.5 89.5t125.5 33.5h231v-371
q0 -52 -34.5 -87zM805 147.5q9 9.5 9 22.5v185l-92 -1q-31 0 -57 -16t-41 -41t-15 -53q0 -45 33 -75.5t78 -30.5h63q13 0 22 9.5z" />
    <glyph glyph-name="uni06A9" unicode="&#x6a9;" horiz-adv-x="1050" 
d="M861 460q62 -36 98.5 -98.5t36.5 -136.5v-225h-729q-61 0 -111.5 29.5t-80.5 80t-30 110.5v170h140v-170q0 -34 24 -58t58 -24h591v78q0 38 -19 70.5t-51 51t-70 18.5h-225l-102 152l200 280l114 -81l-152 -211h173q73 0 135 -36z" />
    <glyph glyph-name="uni06AF" unicode="&#x6af;" horiz-adv-x="1050" 
d="M537 809l-188 -252l-44 41l185 247zM861 460q62 -36 98.5 -98.5t36.5 -136.5v-225h-729q-61 0 -111.5 29.5t-80.5 80t-30 110.5v170h140v-170q0 -34 24 -58t58 -24h591v78q0 38 -19 70.5t-51 51t-70 18.5h-225l-102 152l200 280l114 -81l-152 -211h173q73 0 135 -36z" />
    <glyph glyph-name="uni06BA" unicode="&#x6ba;" horiz-adv-x="711" 
d="M180 -156.5q-63 37.5 -100 101t-37 138.5v179h137v-179q0 -37 18.5 -69t50.5 -51t70 -19h153q17 0 28 11t11 28v506h138v-579q0 -43 -29.5 -73.5t-72.5 -30.5h-228q-76 0 -139 37.5z" />
    <glyph glyph-name="uni06BE" unicode="&#x6be;" horiz-adv-x="784" 
d="M558 554q80 -59 126 -152t46 -207v-62q0 -36 -18 -66.5t-48.5 -48.5t-65.5 -18h-608v138h110q-14 21 -23 51t-9 58q0 60 31.5 106.5t85 72.5t116.5 26q66 0 120.5 -33t85.5 -90t31 -124v-19q0 -25 -6 -48h41q8 0 14 5.5t6 13.5v38q0 78 -29.5 142t-82.5 105.5t-123 53.5
q-59 10 -150 10v136h25q61 -1 82 -2.5t64 -8.5q99 -18 179 -77zM235.5 290.5q-29.5 -23.5 -29.5 -62.5q0 -26 12 -46.5t30.5 -32t36.5 -11.5h89q11 0 19 7.5t8 18.5v54q0 21 -13 43.5t-36 37.5t-51 15q-36 0 -65.5 -23.5z" />
    <glyph glyph-name="uni06C1" unicode="&#x6c1;" horiz-adv-x="570" 
d="M407 462.5q54 -30.5 85 -83.5t31 -117v-25q0 -65 -32 -119t-86 -86t-118 -32q-65 0 -121 31.5t-89 85.5t-33 117v259h243q66 0 120 -30.5zM358.5 167q28.5 29 28.5 72v16q0 41 -29.5 70.5t-70.5 29.5h-105v-117q0 -43 31 -71.5t74 -28.5t71.5 29z" />
    <glyph glyph-name="uni06C2" unicode="&#x6c2;" horiz-adv-x="570" 
d="M138 564v70h34q-8 22 -7 40q5 38 33 64t68 26q34 0 59.5 -16.5t37.5 -47.5l-54 -40q-9 18 -18 25.5t-25 7.5q-12 0 -21 -8t-9 -19t7 -21.5t23 -10.5h96v-70h-224zM407 462.5q54 -30.5 85 -83.5t31 -117v-25q0 -65 -32 -119t-86 -86t-118 -32q-65 0 -121 31.5t-89 85.5
t-33 117v259h243q66 0 120 -30.5zM358.5 167q28.5 29 28.5 72v16q0 41 -29.5 70.5t-70.5 29.5h-105v-117q0 -43 31 -71.5t74 -28.5t71.5 29z" />
    <glyph glyph-name="uni06C3" unicode="&#x6c3;" horiz-adv-x="570" 
d="M234 713q23 -23 23 -55q0 -33 -23 -56t-56 -23q-32 0 -55.5 23t-23.5 56q0 32 23.5 55t55.5 23q33 0 56 -23zM434.5 713q23.5 -23 23.5 -55q0 -33 -23.5 -56t-56.5 -23q-32 0 -55 23t-23 56q0 32 23 55t55 23q33 0 56.5 -23zM407 462.5q54 -30.5 85 -83.5t31 -117v-25
q0 -65 -32 -119t-86 -86t-118 -32q-65 0 -121 31.5t-89 85.5t-33 117v259h243q66 0 120 -30.5zM358.5 167q28.5 29 28.5 72v16q0 41 -29.5 70.5t-70.5 29.5h-105v-117q0 -43 31 -71.5t74 -28.5t71.5 29z" />
    <glyph glyph-name="uni06CC" unicode="&#x6cc;" horiz-adv-x="1056" 
d="M859 0l3 354h-144q-16 0 -26.5 -10t-10.5 -24v-425q0 -43 -30.5 -73.5t-72.5 -30.5h-256q-76 0 -140 38t-102 102t-38 140v193h141v-193q0 -38 18.5 -70.5t50.5 -52t70 -19.5h179q17 0 28 11t11 28v352q0 47 24 87t64.5 63t89.5 23h283l-2 -493h-140z" />
    <glyph glyph-name="uni06D2" unicode="&#x6d2;" horiz-adv-x="664" 
d="M151.5 19q-38.5 19 -65.5 52q-41 53 -41 118q0 20 5 47l51 179l133 -38l-50 -178q-2 -8 -2 -11q0 -17 11 -30q16 -20 40 -20h441v-138h-441q-43 0 -81.5 19z" />
    <glyph glyph-name="uni06D3" unicode="&#x6d3;" horiz-adv-x="664" 
d="M68 483v70h33q-9 23 -6 40q5 38 33.5 64t67.5 26q33 0 58.5 -16.5t38.5 -47.5l-54 -40q-10 19 -18.5 26t-24.5 7q-13 0 -21.5 -8t-8.5 -19t7 -21.5t23 -10.5h96v-70h-224zM151.5 19q-38.5 19 -65.5 52q-41 53 -41 118q0 20 5 47l51 179l133 -38l-50 -178q-2 -8 -2 -11
q0 -17 11 -30q16 -20 40 -20h441v-138h-441q-43 0 -81.5 19z" />
    <glyph glyph-name="uni06D4" unicode="&#x6d4;" horiz-adv-x="600" 
 />
    <glyph glyph-name="uni06F0" unicode="&#x6f0;" horiz-adv-x="284" 
d="M72 154.5q26 25.5 70 25.5q45 0 70.5 -25.5t25.5 -70.5q0 -44 -25.5 -70t-70.5 -26q-44 0 -70 26t-26 70q0 45 26 70.5z" />
    <glyph glyph-name="uni06F1" unicode="&#x6f1;" horiz-adv-x="292" 
d="M222 0h-151v700h151v-700z" />
    <glyph glyph-name="uni06F2" unicode="&#x6f2;" horiz-adv-x="626" 
d="M334 548q-38 0 -64.5 -30t-26.5 -70v-448h-154v444q0 68 32.5 127t88.5 94t122 35h206v-151z" />
    <glyph glyph-name="uni06F3" unicode="&#x6f3;" horiz-adv-x="865" 
d="M433 317q-27 -29 -65.5 -45.5t-81.5 -16.5q-29 0 -51 5t-43 15v-276h-138v701h138v-230q0 -34 23 -55.5t62 -21.5q41 0 65 23t24 57v227h138v-230q0 -36 25 -56.5t64 -20.5q32 0 55.5 23.5t23.5 56.5v227h139v-227q0 -61 -29.5 -110.5t-81 -78.5t-114.5 -29
q-91 0 -153 62z" />
    <glyph glyph-name="uni06F4" unicode="&#x6f4;" horiz-adv-x="820" 
d="M766 192h-560v-192h-151v700h151v-370h109q-27 18 -40 43.5t-13 66.5v14q0 67 33.5 123t90 88.5t122.5 32.5q86 0 146 -41.5t87 -118.5l-99 -67q-14 38 -50.5 64t-83.5 26q-44 0 -75.5 -31t-33.5 -74v-15q0 -46 32 -78.5t77 -32.5h258v-138z" />
    <glyph glyph-name="uni06F5" unicode="&#x6f5;" horiz-adv-x="726" 
d="M371 21q-37 -35 -99 -35q-55 0 -99 27.5t-73 78.5q-46 81 -46 201q0 72 18 143t50 128q41 72 100 110t130 38q72 0 135 -41t109 -118q36 -61 55.5 -137t19.5 -152q0 -111 -42 -183q-26 -45 -68 -70t-93 -25q-59 0 -97 35zM474 119q22 0 40 31q23 40 23 114
q0 58 -15.5 116.5t-42.5 103.5q-20 36 -52.5 65t-74.5 29q-64 0 -111 -76q-25 -41 -39 -97t-14 -112q0 -41 10 -84t30 -66q19 -23 44 -23q23 0 27.5 15t4.5 42l-1 90h134l1 -86q0 -62 36 -62z" />
    <glyph glyph-name="uni06F6" unicode="&#x6f6;" horiz-adv-x="648" 
d="M254 194q-27 0 -47 -17t-25 -42l-2 -135h-137l1 136q3 50 26.5 91t63.5 62l9 4q-54 63 -54 148v15q0 67 33.5 123t90 88.5t123.5 32.5q86 0 145.5 -41.5t86.5 -118.5l-98 -68q-15 39 -51 65t-83 26q-44 0 -76 -31t-34 -74v-15q0 -46 32.5 -78.5t77.5 -32.5h257v-138h-339
z" />
    <glyph glyph-name="uni06F7" unicode="&#x6f7;" horiz-adv-x="690" 
d="M435 0h-180l-247 700h166l171 -518l170 518h166z" />
    <glyph glyph-name="uni06F8" unicode="&#x6f8;" horiz-adv-x="707" 
d="M533 0l-179 519l-180 -519h-166l256 700h180l255 -700h-166z" />
    <glyph glyph-name="uni06F9" unicode="&#x6f9;" horiz-adv-x="581" 
d="M409 668q54 -32 86 -86t32 -118v-464h-140v200l-62 1q-130 0 -203.5 64t-73.5 181v18q0 64 33 118t89 86t121 32q64 0 118 -32zM361 533q-29 29 -69 29q-44 0 -76 -32t-32 -77v-13q0 -42 32.5 -72t75.5 -30h98v126q0 40 -29 69z" />
    <glyph glyph-name="uni1E20" unicode="&#x1e20;" horiz-adv-x="764" 
d="M232 784v115h339v-115h-339zM584 25q-79 -39 -173 -39q-117 0 -199.5 48t-124.5 130t-42 184q0 103 43.5 186t126.5 131t196 48q87 0 162 -37.5t126 -102.5l-126 -89q-28 40 -70 62t-92 22q-63 0 -110 -29t-71.5 -79t-24.5 -112q0 -61 24 -110.5t70.5 -78.5t111.5 -29
q107 0 163 65v81h-146v126h288l-1 -268q-52 -70 -131 -109z" />
    <glyph glyph-name="uni1E21" unicode="&#x1e21;" horiz-adv-x="641" 
d="M493 710v-116h-339v116h339zM542.5 -85.5q-35.5 -61.5 -99.5 -95.5t-147 -34q-70 0 -137 24t-107 63l65 107q34 -29 80.5 -46.5t87.5 -17.5q66 0 109 36.5t43 118.5v24q-19 -38 -68 -62t-104 -24q-68 0 -120 32.5t-80.5 91t-28.5 134.5q0 72 28.5 127.5t80.5 86t120 30.5
q56 0 100.5 -19t62.5 -50v59h150v-445q0 -79 -35.5 -140.5zM399 172q34 36 34 94t-34 94.5t-89 36.5t-89 -36t-34 -95t34 -94.5t89 -35.5t89 36z" />
    <glyph glyph-name="uni1E30" unicode="&#x1e30;" horiz-adv-x="697" 
d="M266 770l111 169h147l-115 -169h-143zM392 349l301 -349h-192l-214 244l-57 -60v-184h-155v700h155v-318l276 318h187z" />
    <glyph glyph-name="uni1E31" unicode="&#x1e31;" horiz-adv-x="570" 
d="M74 802l111 169h148l-115 -169h-144zM249 172l-37 -43v-129h-149v732h149v-432l184 200h172l-207 -232l208 -268h-176z" />
    <glyph glyph-name="uni1E3E" unicode="&#x1e3e;" horiz-adv-x="934" 
d="M366 770l111 169h148l-115 -169h-144zM859 0h-153v484l-185 -484h-116l-177 484v-484h-153v700h200l188 -524l201 524h195v-700z" />
    <glyph glyph-name="uni1E3F" unicode="&#x1e3f;" horiz-adv-x="916" 
d="M320 581l111 169h147l-115 -169h-143zM809 459q48 -51 48 -133v-326h-149v290q0 39 -24 64t-60 25q-40 0 -64.5 -27.5t-24.5 -72.5v-279h-149v290q0 39 -25 64t-62 25q-40 0 -63 -27.5t-23 -72.5v-279h-149v500h145v-72q20 37 62.5 59.5t93.5 22.5q53 0 94.5 -25.5
t57.5 -67.5q19 42 65.5 67.5t102.5 25.5q76 0 124 -51z" />
    <glyph glyph-name="uni1E40" unicode="&#x1e40;" horiz-adv-x="934" 
d="M403.5 798q-26.5 26 -26.5 63t26.5 63t63.5 26q36 0 62.5 -26t26.5 -63t-26.5 -63t-62.5 -26q-37 0 -63.5 26zM859 0h-153v484l-185 -484h-116l-177 484v-484h-153v700h200l188 -524l201 524h195v-700z" />
    <glyph glyph-name="uni1E41" unicode="&#x1e41;" horiz-adv-x="916" 
d="M400.5 733.5q25.5 23.5 66.5 23.5t66.5 -23.5t25.5 -63.5t-25 -64t-67 -24t-67 24t-25 64t25.5 63.5zM809 459q48 -51 48 -133v-326h-149v290q0 39 -24 64t-60 25q-40 0 -64.5 -27.5t-24.5 -72.5v-279h-149v290q0 39 -25 64t-62 25q-40 0 -63 -27.5t-23 -72.5v-279h-149
v500h145v-72q20 37 62.5 59.5t93.5 22.5q53 0 94.5 -25.5t57.5 -67.5q19 42 65.5 67.5t102.5 25.5q76 0 124 -51z" />
    <glyph glyph-name="uni1E44" unicode="&#x1e44;" horiz-adv-x="782" 
d="M327.5 798q-26.5 26 -26.5 63t26.5 63t64.5 26q36 0 62 -26t26 -63t-26 -63t-62 -26q-38 0 -64.5 26zM707 0h-146l-333 449v-449h-153v700h146l333 -449v449h153v-700z" />
    <glyph glyph-name="uni1E45" unicode="&#x1e45;" horiz-adv-x="606" 
d="M238.5 733.5q25.5 23.5 66.5 23.5t66.5 -23.5t25.5 -63.5t-25 -64t-67 -24t-67 24t-25 64t25.5 63.5zM457.5 490q40.5 -24 64.5 -64.5t24 -88.5v-337h-149v286q0 38 -27 65t-65 28q-39 0 -66 -27.5t-27 -65.5l1 -286h-150v500h146v-74q21 40 65 64t95 24q48 0 88.5 -24z
" />
    <glyph glyph-name="Wgrave" unicode="&#x1e80;" horiz-adv-x="1063" 
d="M371 939h147l111 -169h-144zM1047 700l-206 -700h-171l-138 401l-138 -401h-170l-207 700h165l136 -482l175 482h78l175 -483l135 483h166z" />
    <glyph glyph-name="wgrave" unicode="&#x1e81;" horiz-adv-x="862" 
d="M236 750h147l111 -169h-143zM694 0h-166l-97 316l-97 -316h-166l-156 500h153l94 -324l104 324h136l104 -324l94 324h153z" />
    <glyph glyph-name="Wacute" unicode="&#x1e82;" horiz-adv-x="1063" 
d="M466 770l111 169h147l-114 -169h-144zM1047 700l-206 -700h-171l-138 401l-138 -401h-170l-207 700h165l136 -482l175 482h78l175 -483l135 483h166z" />
    <glyph glyph-name="wacute" unicode="&#x1e83;" horiz-adv-x="862" 
d="M371 581l111 169h146l-113 -169h-144zM694 0h-166l-97 316l-97 -316h-166l-153 500h153l91 -324l106 324h137l101 -324l97 324h152z" />
    <glyph glyph-name="Wdieresis" unicode="&#x1e84;" horiz-adv-x="1063" 
d="M345.5 798q-26.5 26 -26.5 63t26.5 63t63.5 26q36 0 62.5 -26t26.5 -63t-26.5 -63t-62.5 -26q-37 0 -63.5 26zM589.5 798q-26.5 26 -26.5 63t26.5 63t64.5 26q36 0 62 -26t26 -63t-26 -63t-62 -26q-38 0 -64.5 26zM1047 700l-206 -700h-171l-138 401l-138 -401h-170
l-207 700h165l136 -482l175 482h78l175 -483l135 483h166z" />
    <glyph glyph-name="wdieresis" unicode="&#x1e85;" horiz-adv-x="862" 
d="M245.5 734.5q26.5 26.5 63.5 26.5q36 0 62 -26.5t26 -63.5t-26 -63t-62 -26q-37 0 -63.5 26t-26.5 63t26.5 63.5zM489.5 734.5q26.5 26.5 63.5 26.5q36 0 62.5 -26.5t26.5 -63.5t-26.5 -63t-62.5 -26q-37 0 -63.5 26t-26.5 63t26.5 63.5zM694 0h-166l-97 316l-97 -316
h-166l-156 511h153l94 -335l104 335h136l104 -335l94 335h153z" />
    <glyph glyph-name="uni1E90" unicode="&#x1e90;" horiz-adv-x="611" 
d="M87 770l145 169h148l145 -169h-149l-70 85l-70 -85h-149zM571 0h-531v116l324 445h-318v139h521v-116l-325 -445h329v-139z" />
    <glyph glyph-name="uni1E91" unicode="&#x1e91;" horiz-adv-x="500" 
d="M250 666l-70 -85h-149l145 169h148l145 -169h-149zM463 0h-428v98l232 286h-224v127h418v-98l-233 -287h235v-126z" />
    <glyph glyph-name="Ygrave" unicode="&#x1ef2;" horiz-adv-x="659" 
d="M171 939h147l111 -169h-144zM408 274v-274h-156v274l-257 426h177l158 -278l159 278h177z" />
    <glyph glyph-name="ygrave" unicode="&#x1ef3;" horiz-adv-x="560" 
d="M125 750h147l111 -169h-144zM260 -169q-48 -31 -132 -31h-109v133h83q48 0 68 11t31 42l8 21l-200 504h160l116 -332l107 332h160l-216 -575q-28 -74 -76 -105z" />
    <glyph glyph-name="uni2000" unicode="&#x2000;" horiz-adv-x="500" 
 />
    <glyph glyph-name="uni2001" unicode="&#x2001;" horiz-adv-x="1000" 
 />
    <glyph glyph-name="uni2002" unicode="&#x2002;" horiz-adv-x="500" 
 />
    <glyph glyph-name="uni2003" unicode="&#x2003;" horiz-adv-x="1000" 
 />
    <glyph glyph-name="uni2009" unicode="&#x2009;" horiz-adv-x="204" 
 />
    <glyph glyph-name="uni200A" unicode="&#x200a;" horiz-adv-x="60" 
 />
    <glyph glyph-name="uni200B" unicode="&#x200b;" 
 />
    <glyph glyph-name="endash" unicode="&#x2013;" horiz-adv-x="569" 
d="M534 348v-125h-500v125h500z" />
    <glyph glyph-name="emdash" unicode="&#x2014;" horiz-adv-x="1070" 
d="M1035 348v-125h-1001v125h1001z" />
    <glyph glyph-name="quoteleft" unicode="&#x2018;" horiz-adv-x="255" 
d="M230 714l-55 -272h-151l78 272h128z" />
    <glyph glyph-name="quoteright" unicode="&#x2019;" horiz-adv-x="255" 
d="M24 442l55 272h151l-78 -272h-128z" />
    <glyph glyph-name="quotesinglbase" unicode="&#x201a;" horiz-adv-x="250" 
d="M14 -148l55 272h151l-78 -272h-128z" />
    <glyph glyph-name="quotedblleft" unicode="&#x201c;" horiz-adv-x="471" 
d="M230 714l-55 -272h-151l78 272h128zM447 714l-55 -272h-151l78 272h128z" />
    <glyph glyph-name="quotedblright" unicode="&#x201d;" horiz-adv-x="471" 
d="M24 442l55 272h151l-78 -272h-128zM241 442l55 272h151l-78 -272h-128z" />
    <glyph glyph-name="quotedblbase" unicode="&#x201e;" horiz-adv-x="466" 
d="M14 -148l55 272h151l-78 -272h-128zM231 -148l55 272h151l-78 -272h-128z" />
    <glyph glyph-name="dagger" unicode="&#x2020;" horiz-adv-x="519" 
d="M331 388v-518h-142v518h-152v131h152v221h142v-221h151v-131h-151z" />
    <glyph glyph-name="daggerdbl" unicode="&#x2021;" horiz-adv-x="539" 
d="M341 219h131v-131h-131v-218h-142v218h-132v131h132v169h-152v131h152v221h142v-221h151v-131h-151v-169z" />
    <glyph glyph-name="bullet" unicode="&#x2022;" horiz-adv-x="504" 
d="M138.5 461.5q40.5 43.5 102.5 48.5q44 3 82 -16.5t60 -56t22 -81.5q0 -41 -20 -76t-55 -56t-78 -21t-78 20.5t-55.5 56t-20.5 78.5q0 60 40.5 103.5z" />
    <glyph glyph-name="ellipsis" unicode="&#x2026;" horiz-adv-x="827" 
d="M73 152.5q25 25.5 69 25.5t68.5 -25.5t24.5 -70.5q0 -42 -25 -67t-68 -25q-42 0 -68 25.5t-26 67.5q0 44 25 69.5zM345 152.5q25 25.5 69 25.5t69 -25t25 -68t-25 -69t-68 -26t-69 25.5t-26 67.5q0 44 25 69.5zM617.5 153q25.5 25 67.5 25q44 0 69 -25t25 -68t-25 -69
t-68 -26t-68.5 26t-25.5 70q0 42 25.5 67z" />
    <glyph glyph-name="perthousand" unicode="&#x2030;" horiz-adv-x="1323" 
d="M115 368.5q-43 23.5 -67.5 66t-24.5 95.5t24.5 95t67.5 65.5t97 23.5q53 0 96 -23.5t67.5 -65.5t24.5 -95t-24.5 -95.5t-67.5 -66t-96 -23.5q-54 0 -97 23.5zM750 700l-470 -700h-130l470 700h130zM267 471q21 22 21 59q0 36 -21 58t-55 22t-55 -22t-21 -58q0 -37 21 -59
t55 -22t55 22zM592 9.5q-43 23.5 -67.5 66t-24.5 95.5t24.5 95t67.5 65.5t96 23.5q54 0 97 -23.5t67.5 -65.5t24.5 -95t-24.5 -95.5t-67.5 -66t-97 -23.5q-53 0 -96 23.5zM1015 9.5q-43 23.5 -67.5 66t-24.5 95.5t24.5 95t67.5 65.5t96 23.5q54 0 97 -23.5t67.5 -65.5
t24.5 -95t-24.5 -95.5t-67.5 -66t-97 -23.5q-53 0 -96 23.5zM743 112q21 22 21 59q0 36 -21 58t-55 22t-55 -22t-21 -58q0 -37 21 -59t55 -22t55 22zM1166 112q21 22 21 59q0 36 -21 58t-55 22t-55 -22t-21 -58q0 -37 21 -59t55 -22t55 22z" />
    <glyph glyph-name="guilsinglleft" unicode="&#x2039;" horiz-adv-x="354" 
d="M330 34h-156l-155 221l155 222h156l-155 -222z" />
    <glyph glyph-name="guilsinglright" unicode="&#x203a;" horiz-adv-x="354" 
d="M180 34h-156l155 221l-155 222h156l155 -222z" />
    <glyph glyph-name="fraction" unicode="&#x2044;" horiz-adv-x="204" 
d="M404 700l-490 -700h-114l490 700h114z" />
    <glyph glyph-name="Euro" unicode="&#x20ac;" horiz-adv-x="618" 
d="M427.5 149.5q27.5 24.5 41.5 69.5l126 -60q-28 -80 -90 -126.5t-142 -46.5q-97 0 -166 66t-93 182h-77v84h66q-1 8 -1 32t1 32h-66v84h77q24 116 93 182t166 66q80 0 142 -46.5t90 -125.5l-126 -61q-14 45 -41.5 69.5t-62.5 24.5q-38 0 -65.5 -28.5t-40.5 -80.5h163v-84
h-176q-1 -7 -1 -31q0 -25 1 -33h176v-84h-163q13 -52 41 -80.5t65 -28.5q35 0 62.5 24.5z" />
    <glyph glyph-name="arrowleft" unicode="&#x2190;" horiz-adv-x="710" 
d="M258 283l114 -116l-88 -89l-257 272l257 272l88 -89l-114 -116h408v-134h-408z" />
    <glyph glyph-name="arrowup" unicode="&#x2191;" horiz-adv-x="710" 
d="M422 440v-407h-134v407l-116 -114l-89 88l272 258l272 -258l-89 -88z" />
    <glyph glyph-name="arrowright" unicode="&#x2192;" horiz-adv-x="710" 
d="M426 78l-88 89l114 116h-408v134h408l-114 116l88 89l257 -272z" />
    <glyph glyph-name="arrowdown" unicode="&#x2193;" horiz-adv-x="710" 
d="M355 29l-272 257l89 88l116 -113v407h134v-408l116 114l89 -88z" />
    <glyph glyph-name="uni2196" unicode="&#x2196;" horiz-adv-x="710" 
d="M242 365l-1 -164h-126l11 374l374 11l-1 -126l-163 -1l289 -289l-94 -94z" />
    </font>
</defs>
</svg>
