<svg width="218" height="209" viewBox="0 0 218 209" fill="none" xmlns="http://www.w3.org/2000/svg">
<path d="M135.61 22.7109L68.68 137.511H0L36.98 73.9609H71.6L101.49 22.7109H135.61Z" fill="#2050C4"/>
<path d="M118.44 122.909C117.22 140.079 116.95 156.169 117.36 170.909C114.39 176.719 109.79 184.299 102.76 191.999C95.4599 199.839 87.7499 205.249 81.3999 208.899C74.7699 208.489 65.4399 206.599 58.1399 199.839C49.3499 191.729 47.8598 180.499 45.9698 166.579C44.3498 154.409 45.0198 144.269 45.9698 137.509H68.6899C89.6499 105.459 110.61 78.8293 131.56 46.7793C125.75 70.0393 120.74 91.9393 118.44 122.899V122.909Z" fill="#5EB182"/>
<path d="M217.551 99.9199C214.441 108.57 197.671 154.01 174.821 182.54C164.681 195.25 156.031 201.2 147.511 204.71C139.131 208.09 131.691 208.77 126.821 208.9H81.3906C85.0406 207.14 88.8306 204.98 92.6106 202.68C114.651 189.02 126.681 172.39 138.721 155.63C147.641 143.33 159.271 124.67 169.141 99.9199H217.551Z" fill="#2050C4"/>
<path d="M110.049 0L96.7893 22.71L69.2793 69.9H5.2793L32.9893 22.38L45.9293 0H110.049Z" fill="#F3AF3D"/>
</svg>
